solid 
   facet normal -1.000000e+00 0.000000e+00 0.000000e+00
      outer loop
         vertex -5.500000e+00 2.250000e+00 2.250000e+00
         vertex -5.500000e+00 7.500000e-01 1.299038e+00
         vertex -5.500000e+00 -2.250000e+00 2.250000e+00
      endloop
   endfacet
   facet normal -1.000000e+00 0.000000e+00 0.000000e+00
      outer loop
         vertex -5.500000e+00 7.500000e-01 1.299038e+00
         vertex -5.500000e+00 -2.604723e-01 1.477212e+00
         vertex -5.500000e+00 -2.250000e+00 2.250000e+00
      endloop
   endfacet
   facet normal -1.000000e+00 -0.000000e+00 0.000000e+00
      outer loop
         vertex -5.500000e+00 -2.250000e+00 2.250000e+00
         vertex -5.500000e+00 -1.500000e+00 1.102182e-15
         vertex -5.500000e+00 -2.250000e+00 -2.250000e+00
      endloop
   endfacet
   facet normal -1.000000e+00 -0.000000e+00 0.000000e+00
      outer loop
         vertex -5.500000e+00 -1.500000e+00 1.102182e-15
         vertex -5.500000e+00 -1.149067e+00 -9.641814e-01
         vertex -5.500000e+00 -2.250000e+00 -2.250000e+00
      endloop
   endfacet
   facet normal -1.000000e+00 0.000000e+00 -0.000000e+00
      outer loop
         vertex -5.500000e+00 -2.250000e+00 -2.250000e+00
         vertex -5.500000e+00 -2.604723e-01 -1.477212e+00
         vertex -5.500000e+00 2.250000e+00 -2.250000e+00
      endloop
   endfacet
   facet normal -1.000000e+00 0.000000e+00 -0.000000e+00
      outer loop
         vertex -5.500000e+00 -2.604723e-01 -1.477212e+00
         vertex -5.500000e+00 7.500000e-01 -1.299038e+00
         vertex -5.500000e+00 2.250000e+00 -2.250000e+00
      endloop
   endfacet
   facet normal -1.000000e+00 0.000000e+00 0.000000e+00
      outer loop
         vertex -5.500000e+00 2.250000e+00 -2.250000e+00
         vertex -5.500000e+00 1.409539e+00 -5.130302e-01
         vertex -5.500000e+00 2.250000e+00 2.250000e+00
      endloop
   endfacet
   facet normal -1.000000e+00 0.000000e+00 0.000000e+00
      outer loop
         vertex -5.500000e+00 1.409539e+00 -5.130302e-01
         vertex -5.500000e+00 1.409539e+00 5.130302e-01
         vertex -5.500000e+00 2.250000e+00 2.250000e+00
      endloop
   endfacet
   facet normal -1.000000e+00 0.000000e+00 0.000000e+00
      outer loop
         vertex -5.500000e+00 2.250000e+00 2.250000e+00
         vertex -5.500000e+00 1.409539e+00 5.130302e-01
         vertex -5.500000e+00 7.500000e-01 1.299038e+00
      endloop
   endfacet
   facet normal -1.000000e+00 0.000000e+00 0.000000e+00
      outer loop
         vertex -5.500000e+00 1.409539e+00 -5.130302e-01
         vertex -5.500000e+00 2.250000e+00 -2.250000e+00
         vertex -5.500000e+00 7.500000e-01 -1.299038e+00
      endloop
   endfacet
   facet normal -1.000000e+00 0.000000e+00 0.000000e+00
      outer loop
         vertex -5.500000e+00 -2.604723e-01 -1.477212e+00
         vertex -5.500000e+00 -2.250000e+00 -2.250000e+00
         vertex -5.500000e+00 -1.149067e+00 -9.641814e-01
      endloop
   endfacet
   facet normal -1.000000e+00 0.000000e+00 0.000000e+00
      outer loop
         vertex -5.500000e+00 -1.500000e+00 1.102182e-15
         vertex -5.500000e+00 -2.250000e+00 2.250000e+00
         vertex -5.500000e+00 -1.149067e+00 9.641814e-01
      endloop
   endfacet
   facet normal -1.000000e+00 0.000000e+00 0.000000e+00
      outer loop
         vertex -5.500000e+00 -1.149067e+00 9.641814e-01
         vertex -5.500000e+00 -2.250000e+00 2.250000e+00
         vertex -5.500000e+00 -2.604723e-01 1.477212e+00
      endloop
   endfacet
   facet normal 1.000000e+00 0.000000e+00 0.000000e+00
      outer loop
         vertex 1.000000e+01 -2.250000e+00 -2.250000e+00
         vertex 1.000000e+01 -1.500000e+00 -1.745122e-15
         vertex 1.000000e+01 -2.250000e+00 2.250000e+00
      endloop
   endfacet
   facet normal 1.000000e+00 0.000000e+00 0.000000e+00
      outer loop
         vertex 1.000000e+01 -1.500000e+00 -1.745122e-15
         vertex 1.000000e+01 -1.149067e+00 9.641814e-01
         vertex 1.000000e+01 -2.250000e+00 2.250000e+00
      endloop
   endfacet
   facet normal 1.000000e+00 0.000000e+00 -0.000000e+00
      outer loop
         vertex 1.000000e+01 -2.250000e+00 2.250000e+00
         vertex 1.000000e+01 -2.604723e-01 1.477212e+00
         vertex 1.000000e+01 2.250000e+00 2.250000e+00
      endloop
   endfacet
   facet normal 1.000000e+00 0.000000e+00 -0.000000e+00
      outer loop
         vertex 1.000000e+01 -2.604723e-01 1.477212e+00
         vertex 1.000000e+01 7.500000e-01 1.299038e+00
         vertex 1.000000e+01 2.250000e+00 2.250000e+00
      endloop
   endfacet
   facet normal 1.000000e+00 -0.000000e+00 0.000000e+00
      outer loop
         vertex 1.000000e+01 2.250000e+00 2.250000e+00
         vertex 1.000000e+01 1.409539e+00 5.130302e-01
         vertex 1.000000e+01 2.250000e+00 -2.250000e+00
      endloop
   endfacet
   facet normal 1.000000e+00 -0.000000e+00 0.000000e+00
      outer loop
         vertex 1.000000e+01 1.409539e+00 5.130302e-01
         vertex 1.000000e+01 1.409539e+00 -5.130302e-01
         vertex 1.000000e+01 2.250000e+00 -2.250000e+00
      endloop
   endfacet
   facet normal 1.000000e+00 0.000000e+00 0.000000e+00
      outer loop
         vertex 1.000000e+01 2.250000e+00 -2.250000e+00
         vertex 1.000000e+01 7.500000e-01 -1.299038e+00
         vertex 1.000000e+01 -2.250000e+00 -2.250000e+00
      endloop
   endfacet
   facet normal 1.000000e+00 -0.000000e+00 0.000000e+00
      outer loop
         vertex 1.000000e+01 7.500000e-01 -1.299038e+00
         vertex 1.000000e+01 -2.604723e-01 -1.477212e+00
         vertex 1.000000e+01 -2.250000e+00 -2.250000e+00
      endloop
   endfacet
   facet normal 1.000000e+00 0.000000e+00 0.000000e+00
      outer loop
         vertex 1.000000e+01 -2.250000e+00 -2.250000e+00
         vertex 1.000000e+01 -2.604723e-01 -1.477212e+00
         vertex 1.000000e+01 -1.149067e+00 -9.641814e-01
      endloop
   endfacet
   facet normal 1.000000e+00 0.000000e+00 0.000000e+00
      outer loop
         vertex 1.000000e+01 7.500000e-01 -1.299038e+00
         vertex 1.000000e+01 2.250000e+00 -2.250000e+00
         vertex 1.000000e+01 1.409539e+00 -5.130302e-01
      endloop
   endfacet
   facet normal 1.000000e+00 0.000000e+00 0.000000e+00
      outer loop
         vertex 1.000000e+01 1.409539e+00 5.130302e-01
         vertex 1.000000e+01 2.250000e+00 2.250000e+00
         vertex 1.000000e+01 7.500000e-01 1.299038e+00
      endloop
   endfacet
   facet normal 1.000000e+00 0.000000e+00 0.000000e+00
      outer loop
         vertex 1.000000e+01 -2.604723e-01 1.477212e+00
         vertex 1.000000e+01 -2.250000e+00 2.250000e+00
         vertex 1.000000e+01 -1.149067e+00 9.641814e-01
      endloop
   endfacet
   facet normal 1.000000e+00 0.000000e+00 0.000000e+00
      outer loop
         vertex 1.000000e+01 -1.500000e+00 -1.745122e-15
         vertex 1.000000e+01 -2.250000e+00 -2.250000e+00
         vertex 1.000000e+01 -1.149067e+00 -9.641814e-01
      endloop
   endfacet
   facet normal -0.000000e+00 9.396926e-01 3.420201e-01
      outer loop
         vertex 1.000000e+01 -1.149067e+00 -9.641814e-01
         vertex -5.500000e+00 -1.149067e+00 -9.641814e-01
         vertex -5.500000e+00 -1.500000e+00 1.102182e-15
      endloop
   endfacet
   facet normal 6.282726e-17 9.396926e-01 3.420201e-01
      outer loop
         vertex 1.000000e+01 -1.500000e+00 -1.745122e-15
         vertex 1.000000e+01 -1.149067e+00 -9.641814e-01
         vertex -5.500000e+00 -1.500000e+00 1.102182e-15
      endloop
   endfacet
   facet normal -0.000000e+00 5.000000e-01 8.660254e-01
      outer loop
         vertex 1.000000e+01 -2.604723e-01 -1.477212e+00
         vertex -5.500000e+00 -2.604723e-01 -1.477212e+00
         vertex -5.500000e+00 -1.149067e+00 -9.641814e-01
      endloop
   endfacet
   facet normal 0.000000e+00 5.000000e-01 8.660254e-01
      outer loop
         vertex 1.000000e+01 -1.149067e+00 -9.641814e-01
         vertex 1.000000e+01 -2.604723e-01 -1.477212e+00
         vertex -5.500000e+00 -1.149067e+00 -9.641814e-01
      endloop
   endfacet
   facet normal 0.000000e+00 -1.736482e-01 9.848078e-01
      outer loop
         vertex 1.000000e+01 7.500000e-01 -1.299038e+00
         vertex -5.500000e+00 7.500000e-01 -1.299038e+00
         vertex -5.500000e+00 -2.604723e-01 -1.477212e+00
      endloop
   endfacet
   facet normal 0.000000e+00 -1.736482e-01 9.848078e-01
      outer loop
         vertex 1.000000e+01 -2.604723e-01 -1.477212e+00
         vertex 1.000000e+01 7.500000e-01 -1.299038e+00
         vertex -5.500000e+00 -2.604723e-01 -1.477212e+00
      endloop
   endfacet
   facet normal 0.000000e+00 -7.660444e-01 6.427877e-01
      outer loop
         vertex 1.000000e+01 1.409539e+00 -5.130302e-01
         vertex -5.500000e+00 1.409539e+00 -5.130302e-01
         vertex -5.500000e+00 7.500000e-01 -1.299038e+00
      endloop
   endfacet
   facet normal 0.000000e+00 -7.660444e-01 6.427877e-01
      outer loop
         vertex 1.000000e+01 7.500000e-01 -1.299038e+00
         vertex 1.000000e+01 1.409539e+00 -5.130302e-01
         vertex -5.500000e+00 7.500000e-01 -1.299038e+00
      endloop
   endfacet
   facet normal 0.000000e+00 -1.000000e+00 0.000000e+00
      outer loop
         vertex 1.000000e+01 1.409539e+00 5.130302e-01
         vertex -5.500000e+00 1.409539e+00 5.130302e-01
         vertex -5.500000e+00 1.409539e+00 -5.130302e-01
      endloop
   endfacet
   facet normal 0.000000e+00 -1.000000e+00 -0.000000e+00
      outer loop
         vertex 1.000000e+01 1.409539e+00 -5.130302e-01
         vertex 1.000000e+01 1.409539e+00 5.130302e-01
         vertex -5.500000e+00 1.409539e+00 -5.130302e-01
      endloop
   endfacet
   facet normal 0.000000e+00 -7.660444e-01 -6.427877e-01
      outer loop
         vertex 1.000000e+01 7.500000e-01 1.299038e+00
         vertex -5.500000e+00 7.500000e-01 1.299038e+00
         vertex -5.500000e+00 1.409539e+00 5.130302e-01
      endloop
   endfacet
   facet normal 0.000000e+00 -7.660444e-01 -6.427877e-01
      outer loop
         vertex 1.000000e+01 1.409539e+00 5.130302e-01
         vertex 1.000000e+01 7.500000e-01 1.299038e+00
         vertex -5.500000e+00 1.409539e+00 5.130302e-01
      endloop
   endfacet
   facet normal 0.000000e+00 -1.736482e-01 -9.848078e-01
      outer loop
         vertex 1.000000e+01 -2.604723e-01 1.477212e+00
         vertex -5.500000e+00 -2.604723e-01 1.477212e+00
         vertex -5.500000e+00 7.500000e-01 1.299038e+00
      endloop
   endfacet
   facet normal 0.000000e+00 -1.736482e-01 -9.848078e-01
      outer loop
         vertex 1.000000e+01 7.500000e-01 1.299038e+00
         vertex 1.000000e+01 -2.604723e-01 1.477212e+00
         vertex -5.500000e+00 7.500000e-01 1.299038e+00
      endloop
   endfacet
   facet normal 0.000000e+00 5.000000e-01 -8.660254e-01
      outer loop
         vertex 1.000000e+01 -1.149067e+00 9.641814e-01
         vertex -5.500000e+00 -1.149067e+00 9.641814e-01
         vertex -5.500000e+00 -2.604723e-01 1.477212e+00
      endloop
   endfacet
   facet normal 0.000000e+00 5.000000e-01 -8.660254e-01
      outer loop
         vertex 1.000000e+01 -2.604723e-01 1.477212e+00
         vertex 1.000000e+01 -1.149067e+00 9.641814e-01
         vertex -5.500000e+00 -2.604723e-01 1.477212e+00
      endloop
   endfacet
   facet normal -6.282808e-17 9.396926e-01 -3.420201e-01
      outer loop
         vertex 1.000000e+01 -1.500000e+00 -1.377728e-15
         vertex -5.500000e+00 -1.500000e+00 1.469576e-15
         vertex -5.500000e+00 -1.149067e+00 9.641814e-01
      endloop
   endfacet
   facet normal 0.000000e+00 9.396926e-01 -3.420201e-01
      outer loop
         vertex 1.000000e+01 -1.149067e+00 9.641814e-01
         vertex 1.000000e+01 -1.500000e+00 -1.377728e-15
         vertex -5.500000e+00 -1.149067e+00 9.641814e-01
      endloop
   endfacet
   facet normal -0.000000e+00 -0.000000e+00 -1.000000e+00
      outer loop
         vertex -5.500000e+00 2.250000e+00 -2.250000e+00
         vertex 0.000000e+00 2.250000e+00 -2.250000e+00
         vertex 0.000000e+00 -2.250000e+00 -2.250000e+00
      endloop
   endfacet
   facet normal 0.000000e+00 0.000000e+00 -1.000000e+00
      outer loop
         vertex -5.500000e+00 2.250000e+00 -2.250000e+00
         vertex 0.000000e+00 -2.250000e+00 -2.250000e+00
         vertex -5.500000e+00 -2.250000e+00 -2.250000e+00
      endloop
   endfacet
   facet normal 0.000000e+00 -1.000000e+00 0.000000e+00
      outer loop
         vertex -5.500000e+00 -2.250000e+00 -2.250000e+00
         vertex 0.000000e+00 -2.250000e+00 -2.250000e+00
         vertex 0.000000e+00 -2.250000e+00 2.250000e+00
      endloop
   endfacet
   facet normal -0.000000e+00 -1.000000e+00 0.000000e+00
      outer loop
         vertex -5.500000e+00 -2.250000e+00 -2.250000e+00
         vertex 0.000000e+00 -2.250000e+00 2.250000e+00
         vertex -5.500000e+00 -2.250000e+00 2.250000e+00
      endloop
   endfacet
   facet normal 0.000000e+00 -0.000000e+00 1.000000e+00
      outer loop
         vertex -5.500000e+00 -2.250000e+00 2.250000e+00
         vertex 0.000000e+00 -2.250000e+00 2.250000e+00
         vertex 0.000000e+00 2.250000e+00 2.250000e+00
      endloop
   endfacet
   facet normal 0.000000e+00 0.000000e+00 1.000000e+00
      outer loop
         vertex -5.500000e+00 -2.250000e+00 2.250000e+00
         vertex 0.000000e+00 2.250000e+00 2.250000e+00
         vertex -5.500000e+00 2.250000e+00 2.250000e+00
      endloop
   endfacet
   facet normal 0.000000e+00 1.000000e+00 0.000000e+00
      outer loop
         vertex -5.500000e+00 2.250000e+00 2.250000e+00
         vertex 0.000000e+00 2.250000e+00 2.250000e+00
         vertex 0.000000e+00 2.250000e+00 -2.250000e+00
      endloop
   endfacet
   facet normal 0.000000e+00 1.000000e+00 0.000000e+00
      outer loop
         vertex -5.500000e+00 2.250000e+00 2.250000e+00
         vertex 0.000000e+00 2.250000e+00 -2.250000e+00
         vertex -5.500000e+00 2.250000e+00 -2.250000e+00
      endloop
   endfacet
   facet normal 0.000000e+00 1.000000e+00 0.000000e+00
      outer loop
         vertex 1.000000e+01 2.250000e+00 -2.250000e+00
         vertex 4.500000e+00 2.250000e+00 -2.250000e+00
         vertex 4.500000e+00 2.250000e+00 2.250000e+00
      endloop
   endfacet
   facet normal -0.000000e+00 1.000000e+00 0.000000e+00
      outer loop
         vertex 1.000000e+01 2.250000e+00 -2.250000e+00
         vertex 4.500000e+00 2.250000e+00 2.250000e+00
         vertex 1.000000e+01 2.250000e+00 2.250000e+00
      endloop
   endfacet
   facet normal -0.000000e+00 0.000000e+00 1.000000e+00
      outer loop
         vertex 1.000000e+01 2.250000e+00 2.250000e+00
         vertex 4.500000e+00 2.250000e+00 2.250000e+00
         vertex 4.500000e+00 -2.250000e+00 2.250000e+00
      endloop
   endfacet
   facet normal 0.000000e+00 0.000000e+00 1.000000e+00
      outer loop
         vertex 1.000000e+01 2.250000e+00 2.250000e+00
         vertex 4.500000e+00 -2.250000e+00 2.250000e+00
         vertex 1.000000e+01 -2.250000e+00 2.250000e+00
      endloop
   endfacet
   facet normal 0.000000e+00 -1.000000e+00 0.000000e+00
      outer loop
         vertex 1.000000e+01 -2.250000e+00 2.250000e+00
         vertex 4.500000e+00 -2.250000e+00 2.250000e+00
         vertex 4.500000e+00 -2.250000e+00 -2.250000e+00
      endloop
   endfacet
   facet normal 0.000000e+00 -1.000000e+00 0.000000e+00
      outer loop
         vertex 1.000000e+01 -2.250000e+00 2.250000e+00
         vertex 4.500000e+00 -2.250000e+00 -2.250000e+00
         vertex 1.000000e+01 -2.250000e+00 -2.250000e+00
      endloop
   endfacet
   facet normal 0.000000e+00 0.000000e+00 -1.000000e+00
      outer loop
         vertex 1.000000e+01 -2.250000e+00 -2.250000e+00
         vertex 4.500000e+00 -2.250000e+00 -2.250000e+00
         vertex 4.500000e+00 2.250000e+00 -2.250000e+00
      endloop
   endfacet
   facet normal 0.000000e+00 0.000000e+00 -1.000000e+00
      outer loop
         vertex 1.000000e+01 -2.250000e+00 -2.250000e+00
         vertex 4.500000e+00 2.250000e+00 -2.250000e+00
         vertex 1.000000e+01 2.250000e+00 -2.250000e+00
      endloop
   endfacet
   facet normal -1.000000e+00 8.588953e-24 1.836970e-16
      outer loop
         vertex 3.188126e-16 3.603875e+00 1.735535e+00
         vertex 4.499279e-32 4.000000e+00 2.449294e-16
         vertex 5.744805e-16 2.493959e+00 3.127326e+00
      endloop
   endfacet
   facet normal -1.000000e+00 3.065361e-24 1.836970e-16
      outer loop
         vertex 4.499279e-32 4.000000e+00 2.449294e-16
         vertex -3.188126e-16 3.603875e+00 -1.735535e+00
         vertex 5.744805e-16 2.493959e+00 3.127326e+00
      endloop
   endfacet
   facet normal -1.000000e+00 2.000819e-16 5.991714e-16
      outer loop
         vertex 5.744805e-16 2.493959e+00 3.127326e+00
         vertex 0.000000e+00 2.250000e+00 2.250000e+00
         vertex 7.163654e-16 8.900837e-01 3.899712e+00
      endloop
   endfacet
   facet normal -1.000000e+00 0.000000e+00 4.342368e-16
      outer loop
         vertex 0.000000e+00 2.250000e+00 2.250000e+00
         vertex 0.000000e+00 -2.250000e+00 2.250000e+00
         vertex 7.163654e-16 8.900837e-01 3.899712e+00
      endloop
   endfacet
   facet normal -1.000000e+00 0.000000e+00 4.342368e-16
      outer loop
         vertex 7.163654e-16 8.900837e-01 3.899712e+00
         vertex 0.000000e+00 -2.250000e+00 2.250000e+00
         vertex 7.163654e-16 -8.900837e-01 3.899712e+00
      endloop
   endfacet
   facet normal -1.000000e+00 2.354822e-15 0.000000e+00
      outer loop
         vertex 0.000000e+00 2.250000e+00 2.250000e+00
         vertex 5.744805e-16 2.493959e+00 3.127326e+00
         vertex 0.000000e+00 2.250000e+00 -2.250000e+00
      endloop
   endfacet
   facet normal -1.000000e+00 -2.809207e-16 1.195787e-16
      outer loop
         vertex 5.744805e-16 2.493959e+00 3.127326e+00
         vertex -3.188126e-16 3.603875e+00 -1.735535e+00
         vertex 0.000000e+00 2.250000e+00 -2.250000e+00
      endloop
   endfacet
   facet normal -1.000000e+00 -4.380213e-16 5.330073e-16
      outer loop
         vertex -3.188126e-16 3.603875e+00 -1.735535e+00
         vertex -5.744805e-16 2.493959e+00 -3.127326e+00
         vertex 0.000000e+00 2.250000e+00 -2.250000e+00
      endloop
   endfacet
   facet normal -1.000000e+00 0.000000e+00 6.548084e-16
      outer loop
         vertex 0.000000e+00 2.250000e+00 -2.250000e+00
         vertex -5.744805e-16 2.493959e+00 -3.127326e+00
         vertex 0.000000e+00 -2.250000e+00 -2.250000e+00
      endloop
   endfacet
   facet normal -1.000000e+00 -6.295070e-17 3.144155e-16
      outer loop
         vertex -5.744805e-16 2.493959e+00 -3.127326e+00
         vertex -7.163654e-16 8.900837e-01 -3.899712e+00
         vertex 0.000000e+00 -2.250000e+00 -2.250000e+00
      endloop
   endfacet
   facet normal -1.000000e+00 0.000000e+00 4.342368e-16
      outer loop
         vertex -7.163654e-16 8.900837e-01 -3.899712e+00
         vertex -7.163654e-16 -8.900837e-01 -3.899712e+00
         vertex 0.000000e+00 -2.250000e+00 -2.250000e+00
      endloop
   endfacet
   facet normal -1.000000e+00 2.000819e-16 5.991714e-16
      outer loop
         vertex -7.163654e-16 -8.900837e-01 -3.899712e+00
         vertex -5.744805e-16 -2.493959e+00 -3.127326e+00
         vertex 0.000000e+00 -2.250000e+00 -2.250000e+00
      endloop
   endfacet
   facet normal -1.000000e+00 2.354822e-15 0.000000e+00
      outer loop
         vertex 0.000000e+00 -2.250000e+00 -2.250000e+00
         vertex -5.744805e-16 -2.493959e+00 -3.127326e+00
         vertex 0.000000e+00 -2.250000e+00 2.250000e+00
      endloop
   endfacet
   facet normal -1.000000e+00 -9.119528e-17 1.109712e-16
      outer loop
         vertex -5.744805e-16 -2.493959e+00 -3.127326e+00
         vertex -3.188126e-16 -3.603875e+00 -1.735535e+00
         vertex 0.000000e+00 -2.250000e+00 2.250000e+00
      endloop
   endfacet
   facet normal -1.000000e+00 -1.825975e-16 1.420203e-16
      outer loop
         vertex -3.188126e-16 -3.603875e+00 -1.735535e+00
         vertex 4.499279e-32 -4.000000e+00 2.449294e-16
         vertex 0.000000e+00 -2.250000e+00 2.250000e+00
      endloop
   endfacet
   facet normal -1.000000e+00 -3.342776e-16 2.599937e-16
      outer loop
         vertex 4.499279e-32 -4.000000e+00 2.449294e-16
         vertex 3.188126e-16 -3.603875e+00 1.735535e+00
         vertex 0.000000e+00 -2.250000e+00 2.250000e+00
      endloop
   endfacet
   facet normal -1.000000e+00 -5.831597e-16 9.149562e-16
      outer loop
         vertex 0.000000e+00 -2.250000e+00 2.250000e+00
         vertex 3.188126e-16 -3.603875e+00 1.735535e+00
         vertex 7.163654e-16 -8.900837e-01 3.899712e+00
      endloop
   endfacet
   facet normal -1.000000e+00 2.687938e-23 1.836970e-16
      outer loop
         vertex 3.188126e-16 -3.603875e+00 1.735535e+00
         vertex 5.744805e-16 -2.493959e+00 3.127326e+00
         vertex 7.163654e-16 -8.900837e-01 3.899712e+00
      endloop
   endfacet
   facet normal 1.000000e+00 0.000000e+00 0.000000e+00
      outer loop
         vertex 4.500000e+00 3.603875e+00 -1.735535e+00
         vertex 4.500000e+00 4.000000e+00 -5.817072e-16
         vertex 4.500000e+00 2.493959e+00 -3.127326e+00
      endloop
   endfacet
   facet normal 1.000000e+00 0.000000e+00 0.000000e+00
      outer loop
         vertex 4.500000e+00 4.000000e+00 -5.817072e-16
         vertex 4.500000e+00 3.603875e+00 1.735535e+00
         vertex 4.500000e+00 2.493959e+00 -3.127326e+00
      endloop
   endfacet
   facet normal 1.000000e+00 0.000000e+00 0.000000e+00
      outer loop
         vertex 4.500000e+00 2.493959e+00 -3.127326e+00
         vertex 4.500000e+00 2.250000e+00 -2.250000e+00
         vertex 4.500000e+00 8.900837e-01 -3.899712e+00
      endloop
   endfacet
   facet normal 1.000000e+00 -0.000000e+00 0.000000e+00
      outer loop
         vertex 4.500000e+00 2.250000e+00 -2.250000e+00
         vertex 4.500000e+00 -2.250000e+00 -2.250000e+00
         vertex 4.500000e+00 8.900837e-01 -3.899712e+00
      endloop
   endfacet
   facet normal 1.000000e+00 0.000000e+00 0.000000e+00
      outer loop
         vertex 4.500000e+00 8.900837e-01 -3.899712e+00
         vertex 4.500000e+00 -2.250000e+00 -2.250000e+00
         vertex 4.500000e+00 -8.900837e-01 -3.899712e+00
      endloop
   endfacet
   facet normal 1.000000e+00 0.000000e+00 0.000000e+00
      outer loop
         vertex 4.500000e+00 2.250000e+00 -2.250000e+00
         vertex 4.500000e+00 2.493959e+00 -3.127326e+00
         vertex 4.500000e+00 2.250000e+00 2.250000e+00
      endloop
   endfacet
   facet normal 1.000000e+00 0.000000e+00 0.000000e+00
      outer loop
         vertex 4.500000e+00 2.493959e+00 -3.127326e+00
         vertex 4.500000e+00 3.603875e+00 1.735535e+00
         vertex 4.500000e+00 2.250000e+00 2.250000e+00
      endloop
   endfacet
   facet normal 1.000000e+00 0.000000e+00 0.000000e+00
      outer loop
         vertex 4.500000e+00 3.603875e+00 1.735535e+00
         vertex 4.500000e+00 2.493959e+00 3.127326e+00
         vertex 4.500000e+00 2.250000e+00 2.250000e+00
      endloop
   endfacet
   facet normal 1.000000e+00 0.000000e+00 0.000000e+00
      outer loop
         vertex 4.500000e+00 2.250000e+00 2.250000e+00
         vertex 4.500000e+00 2.493959e+00 3.127326e+00
         vertex 4.500000e+00 -2.250000e+00 2.250000e+00
      endloop
   endfacet
   facet normal 1.000000e+00 0.000000e+00 0.000000e+00
      outer loop
         vertex 4.500000e+00 2.493959e+00 3.127326e+00
         vertex 4.500000e+00 8.900837e-01 3.899712e+00
         vertex 4.500000e+00 -2.250000e+00 2.250000e+00
      endloop
   endfacet
   facet normal 1.000000e+00 -0.000000e+00 0.000000e+00
      outer loop
         vertex 4.500000e+00 8.900837e-01 3.899712e+00
         vertex 4.500000e+00 -8.900837e-01 3.899712e+00
         vertex 4.500000e+00 -2.250000e+00 2.250000e+00
      endloop
   endfacet
   facet normal 1.000000e+00 -0.000000e+00 0.000000e+00
      outer loop
         vertex 4.500000e+00 -8.900837e-01 3.899712e+00
         vertex 4.500000e+00 -2.493959e+00 3.127326e+00
         vertex 4.500000e+00 -2.250000e+00 2.250000e+00
      endloop
   endfacet
   facet normal 1.000000e+00 0.000000e+00 0.000000e+00
      outer loop
         vertex 4.500000e+00 -2.250000e+00 2.250000e+00
         vertex 4.500000e+00 -2.493959e+00 3.127326e+00
         vertex 4.500000e+00 -2.250000e+00 -2.250000e+00
      endloop
   endfacet
   facet normal 1.000000e+00 -0.000000e+00 0.000000e+00
      outer loop
         vertex 4.500000e+00 -2.493959e+00 3.127326e+00
         vertex 4.500000e+00 -3.603875e+00 1.735535e+00
         vertex 4.500000e+00 -2.250000e+00 -2.250000e+00
      endloop
   endfacet
   facet normal 1.000000e+00 -0.000000e+00 0.000000e+00
      outer loop
         vertex 4.500000e+00 -3.603875e+00 1.735535e+00
         vertex 4.500000e+00 -4.000000e+00 -5.817072e-16
         vertex 4.500000e+00 -2.250000e+00 -2.250000e+00
      endloop
   endfacet
   facet normal 1.000000e+00 -0.000000e+00 -0.000000e+00
      outer loop
         vertex 4.500000e+00 -4.000000e+00 -5.817072e-16
         vertex 4.500000e+00 -3.603875e+00 -1.735535e+00
         vertex 4.500000e+00 -2.250000e+00 -2.250000e+00
      endloop
   endfacet
   facet normal 1.000000e+00 0.000000e+00 0.000000e+00
      outer loop
         vertex 4.500000e+00 -2.250000e+00 -2.250000e+00
         vertex 4.500000e+00 -3.603875e+00 -1.735535e+00
         vertex 4.500000e+00 -8.900837e-01 -3.899712e+00
      endloop
   endfacet
   facet normal 1.000000e+00 -0.000000e+00 -0.000000e+00
      outer loop
         vertex 4.500000e+00 -3.603875e+00 -1.735535e+00
         vertex 4.500000e+00 -2.493959e+00 -3.127326e+00
         vertex 4.500000e+00 -8.900837e-01 -3.899712e+00
      endloop
   endfacet
   facet normal -0.000000e+00 9.749279e-01 2.225210e-01
      outer loop
         vertex 4.499279e-32 4.000000e+00 2.449294e-16
         vertex 3.188126e-16 3.603875e+00 1.735535e+00
         vertex 4.500000e+00 3.603875e+00 1.735535e+00
      endloop
   endfacet
   facet normal 4.157748e-17 9.749279e-01 2.225210e-01
      outer loop
         vertex 4.499279e-32 4.000000e+00 2.449294e-16
         vertex 4.500000e+00 3.603875e+00 1.735535e+00
         vertex 4.500000e+00 4.000000e+00 -5.817072e-16
      endloop
   endfacet
   facet normal -0.000000e+00 7.818315e-01 6.234897e-01
      outer loop
         vertex 3.188126e-16 3.603875e+00 1.735535e+00
         vertex 5.744805e-16 2.493959e+00 3.127326e+00
         vertex 4.500000e+00 2.493959e+00 3.127326e+00
      endloop
   endfacet
   facet normal 0.000000e+00 7.818315e-01 6.234897e-01
      outer loop
         vertex 3.188126e-16 3.603875e+00 1.735535e+00
         vertex 4.500000e+00 2.493959e+00 3.127326e+00
         vertex 4.500000e+00 3.603875e+00 1.735535e+00
      endloop
   endfacet
   facet normal -0.000000e+00 4.338837e-01 9.009689e-01
      outer loop
         vertex 5.744805e-16 2.493959e+00 3.127326e+00
         vertex 7.163654e-16 8.900837e-01 3.899712e+00
         vertex 4.500000e+00 8.900837e-01 3.899712e+00
      endloop
   endfacet
   facet normal 0.000000e+00 4.338837e-01 9.009689e-01
      outer loop
         vertex 5.744805e-16 2.493959e+00 3.127326e+00
         vertex 4.500000e+00 8.900837e-01 3.899712e+00
         vertex 4.500000e+00 2.493959e+00 3.127326e+00
      endloop
   endfacet
   facet normal 0.000000e+00 0.000000e+00 1.000000e+00
      outer loop
         vertex 7.163654e-16 8.900837e-01 3.899712e+00
         vertex 7.163654e-16 -8.900837e-01 3.899712e+00
         vertex 4.500000e+00 -8.900837e-01 3.899712e+00
      endloop
   endfacet
   facet normal 0.000000e+00 -0.000000e+00 1.000000e+00
      outer loop
         vertex 7.163654e-16 8.900837e-01 3.899712e+00
         vertex 4.500000e+00 -8.900837e-01 3.899712e+00
         vertex 4.500000e+00 8.900837e-01 3.899712e+00
      endloop
   endfacet
   facet normal 0.000000e+00 -4.338837e-01 9.009689e-01
      outer loop
         vertex 7.163654e-16 -8.900837e-01 3.899712e+00
         vertex 5.744805e-16 -2.493959e+00 3.127326e+00
         vertex 4.500000e+00 -2.493959e+00 3.127326e+00
      endloop
   endfacet
   facet normal 0.000000e+00 -4.338837e-01 9.009689e-01
      outer loop
         vertex 7.163654e-16 -8.900837e-01 3.899712e+00
         vertex 4.500000e+00 -2.493959e+00 3.127326e+00
         vertex 4.500000e+00 -8.900837e-01 3.899712e+00
      endloop
   endfacet
   facet normal 0.000000e+00 -7.818315e-01 6.234897e-01
      outer loop
         vertex 5.744805e-16 -2.493959e+00 3.127326e+00
         vertex 3.188126e-16 -3.603875e+00 1.735535e+00
         vertex 4.500000e+00 -3.603875e+00 1.735535e+00
      endloop
   endfacet
   facet normal 0.000000e+00 -7.818315e-01 6.234897e-01
      outer loop
         vertex 5.744805e-16 -2.493959e+00 3.127326e+00
         vertex 4.500000e+00 -3.603875e+00 1.735535e+00
         vertex 4.500000e+00 -2.493959e+00 3.127326e+00
      endloop
   endfacet
   facet normal 4.087644e-17 -9.749279e-01 2.225210e-01
      outer loop
         vertex 3.188126e-16 -3.603875e+00 1.735535e+00
         vertex 4.499279e-32 -4.000000e+00 2.449294e-16
         vertex 4.500000e+00 -4.000000e+00 -5.817072e-16
      endloop
   endfacet
   facet normal 0.000000e+00 -9.749279e-01 2.225210e-01
      outer loop
         vertex 3.188126e-16 -3.603875e+00 1.735535e+00
         vertex 4.500000e+00 -4.000000e+00 -5.817072e-16
         vertex 4.500000e+00 -3.603875e+00 1.735535e+00
      endloop
   endfacet
   facet normal 0.000000e+00 -9.749279e-01 -2.225210e-01
      outer loop
         vertex 4.499279e-32 -4.000000e+00 2.449294e-16
         vertex -3.188126e-16 -3.603875e+00 -1.735535e+00
         vertex 4.500000e+00 -3.603875e+00 -1.735535e+00
      endloop
   endfacet
   facet normal -4.157748e-17 -9.749279e-01 -2.225210e-01
      outer loop
         vertex 4.499279e-32 -4.000000e+00 2.449294e-16
         vertex 4.500000e+00 -3.603875e+00 -1.735535e+00
         vertex 4.500000e+00 -4.000000e+00 -5.817072e-16
      endloop
   endfacet
   facet normal 0.000000e+00 -7.818315e-01 -6.234897e-01
      outer loop
         vertex -3.188126e-16 -3.603875e+00 -1.735535e+00
         vertex -5.744805e-16 -2.493959e+00 -3.127326e+00
         vertex 4.500000e+00 -2.493959e+00 -3.127326e+00
      endloop
   endfacet
   facet normal 0.000000e+00 -7.818315e-01 -6.234897e-01
      outer loop
         vertex -3.188126e-16 -3.603875e+00 -1.735535e+00
         vertex 4.500000e+00 -2.493959e+00 -3.127326e+00
         vertex 4.500000e+00 -3.603875e+00 -1.735535e+00
      endloop
   endfacet
   facet normal 0.000000e+00 -4.338837e-01 -9.009689e-01
      outer loop
         vertex -5.744805e-16 -2.493959e+00 -3.127326e+00
         vertex -7.163654e-16 -8.900837e-01 -3.899712e+00
         vertex 4.500000e+00 -8.900837e-01 -3.899712e+00
      endloop
   endfacet
   facet normal 0.000000e+00 -4.338837e-01 -9.009689e-01
      outer loop
         vertex -5.744805e-16 -2.493959e+00 -3.127326e+00
         vertex 4.500000e+00 -8.900837e-01 -3.899712e+00
         vertex 4.500000e+00 -2.493959e+00 -3.127326e+00
      endloop
   endfacet
   facet normal 0.000000e+00 0.000000e+00 -1.000000e+00
      outer loop
         vertex -7.163654e-16 -8.900837e-01 -3.899712e+00
         vertex -7.163654e-16 8.900837e-01 -3.899712e+00
         vertex 4.500000e+00 8.900837e-01 -3.899712e+00
      endloop
   endfacet
   facet normal 0.000000e+00 -0.000000e+00 -1.000000e+00
      outer loop
         vertex -7.163654e-16 -8.900837e-01 -3.899712e+00
         vertex 4.500000e+00 8.900837e-01 -3.899712e+00
         vertex 4.500000e+00 -8.900837e-01 -3.899712e+00
      endloop
   endfacet
   facet normal 0.000000e+00 4.338837e-01 -9.009689e-01
      outer loop
         vertex -7.163654e-16 8.900837e-01 -3.899712e+00
         vertex -5.744805e-16 2.493959e+00 -3.127326e+00
         vertex 4.500000e+00 2.493959e+00 -3.127326e+00
      endloop
   endfacet
   facet normal 0.000000e+00 4.338837e-01 -9.009689e-01
      outer loop
         vertex -7.163654e-16 8.900837e-01 -3.899712e+00
         vertex 4.500000e+00 2.493959e+00 -3.127326e+00
         vertex 4.500000e+00 8.900837e-01 -3.899712e+00
      endloop
   endfacet
   facet normal 0.000000e+00 7.818315e-01 -6.234897e-01
      outer loop
         vertex -5.744805e-16 2.493959e+00 -3.127326e+00
         vertex -3.188126e-16 3.603875e+00 -1.735535e+00
         vertex 4.500000e+00 3.603875e+00 -1.735535e+00
      endloop
   endfacet
   facet normal 0.000000e+00 7.818315e-01 -6.234897e-01
      outer loop
         vertex -5.744805e-16 2.493959e+00 -3.127326e+00
         vertex 4.500000e+00 3.603875e+00 -1.735535e+00
         vertex 4.500000e+00 2.493959e+00 -3.127326e+00
      endloop
   endfacet
   facet normal -4.087644e-17 9.749279e-01 -2.225210e-01
      outer loop
         vertex -3.188126e-16 3.603875e+00 -1.735535e+00
         vertex -1.349784e-31 4.000000e+00 -7.347881e-16
         vertex 4.500000e+00 4.000000e+00 -1.561425e-15
      endloop
   endfacet
   facet normal 0.000000e+00 9.749279e-01 -2.225210e-01
      outer loop
         vertex -3.188126e-16 3.603875e+00 -1.735535e+00
         vertex 4.500000e+00 4.000000e+00 -1.561425e-15
         vertex 4.500000e+00 3.603875e+00 -1.735535e+00
      endloop
   endfacet
endsolid
