solid 
   facet normal 0.000000e+00 -1.000000e+00 0.000000e+00
      outer loop
         vertex -6.513998e+00 1.000000e+01 2.562779e+00
         vertex -7.000000e+00 1.000000e+01 -2.449294e-16
         vertex -5.123476e+00 1.000000e+01 4.769696e+00
      endloop
   endfacet
   facet normal 0.000000e+00 -1.000000e+00 0.000000e+00
      outer loop
         vertex -7.000000e+00 1.000000e+01 -2.449294e-16
         vertex -6.513998e+00 1.000000e+01 -2.562779e+00
         vertex -5.123476e+00 1.000000e+01 4.769696e+00
      endloop
   endfacet
   facet normal 0.000000e+00 -1.000000e+00 0.000000e+00
      outer loop
         vertex -5.123476e+00 1.000000e+01 4.769696e+00
         vertex -6.513998e+00 1.000000e+01 -2.562779e+00
         vertex -3.021518e+00 1.000000e+01 6.314303e+00
      endloop
   endfacet
   facet normal 0.000000e+00 -1.000000e+00 0.000000e+00
      outer loop
         vertex -6.513998e+00 1.000000e+01 -2.562779e+00
         vertex -5.123476e+00 1.000000e+01 -4.769696e+00
         vertex -3.021518e+00 1.000000e+01 6.314303e+00
      endloop
   endfacet
   facet normal 0.000000e+00 -1.000000e+00 0.000000e+00
      outer loop
         vertex -3.021518e+00 1.000000e+01 6.314303e+00
         vertex -3.603875e+00 1.000000e+01 1.735535e+00
         vertex -5.000000e-01 1.000000e+01 6.982120e+00
      endloop
   endfacet
   facet normal -0.000000e+00 -1.000000e+00 0.000000e+00
      outer loop
         vertex -3.603875e+00 1.000000e+01 1.735535e+00
         vertex -2.493959e+00 1.000000e+01 3.127326e+00
         vertex -5.000000e-01 1.000000e+01 6.982120e+00
      endloop
   endfacet
   facet normal -0.000000e+00 -1.000000e+00 0.000000e+00
      outer loop
         vertex -2.493959e+00 1.000000e+01 3.127326e+00
         vertex -8.900837e-01 1.000000e+01 3.899712e+00
         vertex -5.000000e-01 1.000000e+01 6.982120e+00
      endloop
   endfacet
   facet normal 0.000000e+00 -1.000000e+00 0.000000e+00
      outer loop
         vertex -8.900837e-01 1.000000e+01 3.899712e+00
         vertex 8.900837e-01 1.000000e+01 3.899712e+00
         vertex -5.000000e-01 1.000000e+01 6.982120e+00
      endloop
   endfacet
   facet normal 0.000000e+00 -1.000000e+00 0.000000e+00
      outer loop
         vertex -5.000000e-01 1.000000e+01 6.982120e+00
         vertex 8.900837e-01 1.000000e+01 3.899712e+00
         vertex -5.000000e-01 1.000000e+01 1.400000e+01
      endloop
   endfacet
   facet normal -0.000000e+00 -1.000000e+00 -0.000000e+00
      outer loop
         vertex 8.900837e-01 1.000000e+01 3.899712e+00
         vertex 5.000000e-01 1.000000e+01 6.982120e+00
         vertex -5.000000e-01 1.000000e+01 1.400000e+01
      endloop
   endfacet
   facet normal 0.000000e+00 -1.000000e+00 0.000000e+00
      outer loop
         vertex -5.000000e-01 1.000000e+01 1.400000e+01
         vertex 5.000000e-01 1.000000e+01 6.982120e+00
         vertex 5.000000e-01 1.000000e+01 1.400000e+01
      endloop
   endfacet
   facet normal 0.000000e+00 -1.000000e+00 0.000000e+00
      outer loop
         vertex 5.000000e-01 1.000000e+01 6.982120e+00
         vertex 8.900837e-01 1.000000e+01 3.899712e+00
         vertex 2.756000e+00 1.000000e+01 6.434630e+00
      endloop
   endfacet
   facet normal 0.000000e+00 -1.000000e+00 0.000000e+00
      outer loop
         vertex 8.900837e-01 1.000000e+01 3.899712e+00
         vertex 2.493959e+00 1.000000e+01 3.127326e+00
         vertex 2.756000e+00 1.000000e+01 6.434630e+00
      endloop
   endfacet
   facet normal 0.000000e+00 -1.000000e+00 0.000000e+00
      outer loop
         vertex 2.756000e+00 1.000000e+01 6.434630e+00
         vertex 2.493959e+00 1.000000e+01 3.127326e+00
         vertex 4.708880e+00 1.000000e+01 5.179425e+00
      endloop
   endfacet
   facet normal 0.000000e+00 -1.000000e+00 0.000000e+00
      outer loop
         vertex 2.493959e+00 1.000000e+01 3.127326e+00
         vertex 3.603875e+00 1.000000e+01 1.735535e+00
         vertex 4.708880e+00 1.000000e+01 5.179425e+00
      endloop
   endfacet
   facet normal 0.000000e+00 -1.000000e+00 0.000000e+00
      outer loop
         vertex 4.708880e+00 1.000000e+01 5.179425e+00
         vertex 3.603875e+00 1.000000e+01 1.735535e+00
         vertex 6.143853e+00 1.000000e+01 3.354559e+00
      endloop
   endfacet
   facet normal 0.000000e+00 -1.000000e+00 0.000000e+00
      outer loop
         vertex 3.603875e+00 1.000000e+01 1.735535e+00
         vertex 4.000000e+00 1.000000e+01 1.592041e-15
         vertex 6.143853e+00 1.000000e+01 3.354559e+00
      endloop
   endfacet
   facet normal 0.000000e+00 -1.000000e+00 0.000000e+00
      outer loop
         vertex 6.143853e+00 1.000000e+01 3.354559e+00
         vertex 4.000000e+00 1.000000e+01 1.592041e-15
         vertex 6.903092e+00 1.000000e+01 1.160741e+00
      endloop
   endfacet
   facet normal 0.000000e+00 -1.000000e+00 0.000000e+00
      outer loop
         vertex 4.000000e+00 1.000000e+01 1.592041e-15
         vertex 3.603875e+00 1.000000e+01 -1.735535e+00
         vertex 6.903092e+00 1.000000e+01 1.160741e+00
      endloop
   endfacet
   facet normal 0.000000e+00 -1.000000e+00 0.000000e+00
      outer loop
         vertex 6.903092e+00 1.000000e+01 1.160741e+00
         vertex 3.603875e+00 1.000000e+01 -1.735535e+00
         vertex 6.903092e+00 1.000000e+01 -1.160741e+00
      endloop
   endfacet
   facet normal 0.000000e+00 -1.000000e+00 0.000000e+00
      outer loop
         vertex 3.603875e+00 1.000000e+01 -1.735535e+00
         vertex 2.493959e+00 1.000000e+01 -3.127326e+00
         vertex 6.903092e+00 1.000000e+01 -1.160741e+00
      endloop
   endfacet
   facet normal 0.000000e+00 -1.000000e+00 0.000000e+00
      outer loop
         vertex 6.903092e+00 1.000000e+01 -1.160741e+00
         vertex 2.493959e+00 1.000000e+01 -3.127326e+00
         vertex 6.143853e+00 1.000000e+01 -3.354559e+00
      endloop
   endfacet
   facet normal 0.000000e+00 -1.000000e+00 0.000000e+00
      outer loop
         vertex 2.493959e+00 1.000000e+01 -3.127326e+00
         vertex 8.900837e-01 1.000000e+01 -3.899712e+00
         vertex 6.143853e+00 1.000000e+01 -3.354559e+00
      endloop
   endfacet
   facet normal 0.000000e+00 -1.000000e+00 0.000000e+00
      outer loop
         vertex 6.143853e+00 1.000000e+01 -3.354559e+00
         vertex 8.900837e-01 1.000000e+01 -3.899712e+00
         vertex 4.708880e+00 1.000000e+01 -5.179425e+00
      endloop
   endfacet
   facet normal 0.000000e+00 -1.000000e+00 0.000000e+00
      outer loop
         vertex 8.900837e-01 1.000000e+01 -3.899712e+00
         vertex -8.900837e-01 1.000000e+01 -3.899712e+00
         vertex 4.708880e+00 1.000000e+01 -5.179425e+00
      endloop
   endfacet
   facet normal 0.000000e+00 -1.000000e+00 0.000000e+00
      outer loop
         vertex 4.708880e+00 1.000000e+01 -5.179425e+00
         vertex -8.900837e-01 1.000000e+01 -3.899712e+00
         vertex 2.756000e+00 1.000000e+01 -6.434630e+00
      endloop
   endfacet
   facet normal 0.000000e+00 -1.000000e+00 0.000000e+00
      outer loop
         vertex -8.900837e-01 1.000000e+01 -3.899712e+00
         vertex -2.493959e+00 1.000000e+01 -3.127326e+00
         vertex 2.756000e+00 1.000000e+01 -6.434630e+00
      endloop
   endfacet
   facet normal 0.000000e+00 -1.000000e+00 0.000000e+00
      outer loop
         vertex 2.756000e+00 1.000000e+01 -6.434630e+00
         vertex -2.493959e+00 1.000000e+01 -3.127326e+00
         vertex 5.000000e-01 1.000000e+01 -6.982120e+00
      endloop
   endfacet
   facet normal 0.000000e+00 -1.000000e+00 0.000000e+00
      outer loop
         vertex -2.493959e+00 1.000000e+01 -3.127326e+00
         vertex -3.603875e+00 1.000000e+01 -1.735535e+00
         vertex 5.000000e-01 1.000000e+01 -6.982120e+00
      endloop
   endfacet
   facet normal 0.000000e+00 -1.000000e+00 0.000000e+00
      outer loop
         vertex 5.000000e-01 1.000000e+01 -6.982120e+00
         vertex -5.000000e-01 1.000000e+01 -6.982120e+00
         vertex 5.000000e-01 1.000000e+01 -1.400000e+01
      endloop
   endfacet
   facet normal 0.000000e+00 -1.000000e+00 0.000000e+00
      outer loop
         vertex -5.000000e-01 1.000000e+01 -6.982120e+00
         vertex -5.000000e-01 1.000000e+01 -1.400000e+01
         vertex 5.000000e-01 1.000000e+01 -1.400000e+01
      endloop
   endfacet
   facet normal 0.000000e+00 -1.000000e+00 0.000000e+00
      outer loop
         vertex -5.000000e-01 1.000000e+01 -6.982120e+00
         vertex 5.000000e-01 1.000000e+01 -6.982120e+00
         vertex -3.021518e+00 1.000000e+01 -6.314303e+00
      endloop
   endfacet
   facet normal 0.000000e+00 -1.000000e+00 0.000000e+00
      outer loop
         vertex 5.000000e-01 1.000000e+01 -6.982120e+00
         vertex -3.603875e+00 1.000000e+01 -1.735535e+00
         vertex -3.021518e+00 1.000000e+01 -6.314303e+00
      endloop
   endfacet
   facet normal 0.000000e+00 -1.000000e+00 -0.000000e+00
      outer loop
         vertex -3.021518e+00 1.000000e+01 -6.314303e+00
         vertex -3.603875e+00 1.000000e+01 -1.735535e+00
         vertex -5.123476e+00 1.000000e+01 -4.769696e+00
      endloop
   endfacet
   facet normal 0.000000e+00 -1.000000e+00 -0.000000e+00
      outer loop
         vertex -3.603875e+00 1.000000e+01 -1.735535e+00
         vertex -4.000000e+00 1.000000e+01 1.224647e-16
         vertex -5.123476e+00 1.000000e+01 -4.769696e+00
      endloop
   endfacet
   facet normal -0.000000e+00 -1.000000e+00 0.000000e+00
      outer loop
         vertex -5.123476e+00 1.000000e+01 -4.769696e+00
         vertex -4.000000e+00 1.000000e+01 1.224647e-16
         vertex -3.021518e+00 1.000000e+01 6.314303e+00
      endloop
   endfacet
   facet normal -0.000000e+00 -1.000000e+00 0.000000e+00
      outer loop
         vertex -4.000000e+00 1.000000e+01 1.224647e-16
         vertex -3.603875e+00 1.000000e+01 1.735535e+00
         vertex -3.021518e+00 1.000000e+01 6.314303e+00
      endloop
   endfacet
   facet normal 0.000000e+00 1.000000e+00 -0.000000e+00
      outer loop
         vertex 5.000000e-01 2.800000e+01 -6.982120e+00
         vertex 5.000000e-01 2.800000e+01 -1.050000e+01
         vertex 2.126278e-15 2.800000e+01 -7.000000e+00
      endloop
   endfacet
   facet normal 0.000000e+00 1.000000e+00 0.000000e+00
      outer loop
         vertex 5.000000e-01 2.800000e+01 -1.050000e+01
         vertex -5.000000e-01 2.800000e+01 -1.050000e+01
         vertex 2.126278e-15 2.800000e+01 -7.000000e+00
      endloop
   endfacet
   facet normal 0.000000e+00 1.000000e+00 0.000000e+00
      outer loop
         vertex 2.126278e-15 2.800000e+01 -7.000000e+00
         vertex -5.000000e-01 2.800000e+01 -1.050000e+01
         vertex -5.000000e-01 2.800000e+01 -6.982120e+00
      endloop
   endfacet
   facet normal -1.000000e+00 -0.000000e+00 0.000000e+00
      outer loop
         vertex -5.000000e-01 1.000000e+01 -6.982120e+00
         vertex -5.000000e-01 2.800000e+01 -6.982120e+00
         vertex -5.000000e-01 1.000000e+01 -1.400000e+01
      endloop
   endfacet
   facet normal -1.000000e+00 -0.000000e+00 0.000000e+00
      outer loop
         vertex -5.000000e-01 2.800000e+01 -6.982120e+00
         vertex -5.000000e-01 2.800000e+01 -1.050000e+01
         vertex -5.000000e-01 1.000000e+01 -1.400000e+01
      endloop
   endfacet
   facet normal -1.000000e+00 0.000000e+00 -0.000000e+00
      outer loop
         vertex -5.000000e-01 1.000000e+01 -1.400000e+01
         vertex -5.000000e-01 2.800000e+01 -1.050000e+01
         vertex -5.000000e-01 2.800000e+01 -1.400000e+01
      endloop
   endfacet
   facet normal -1.000000e+00 -0.000000e+00 0.000000e+00
      outer loop
         vertex -5.000000e-01 2.800000e+01 -1.050000e+01
         vertex -5.000000e-01 3.500000e+01 -1.050000e+01
         vertex -5.000000e-01 2.800000e+01 -1.400000e+01
      endloop
   endfacet
   facet normal -1.000000e+00 0.000000e+00 -0.000000e+00
      outer loop
         vertex -5.000000e-01 2.800000e+01 -1.400000e+01
         vertex -5.000000e-01 3.500000e+01 -1.050000e+01
         vertex -5.000000e-01 3.500000e+01 -1.250000e+01
      endloop
   endfacet
   facet normal 1.000000e+00 -0.000000e+00 0.000000e+00
      outer loop
         vertex 5.000000e-01 2.800000e+01 -6.982120e+00
         vertex 5.000000e-01 1.000000e+01 -6.982120e+00
         vertex 5.000000e-01 2.800000e+01 -1.050000e+01
      endloop
   endfacet
   facet normal 1.000000e+00 0.000000e+00 0.000000e+00
      outer loop
         vertex 5.000000e-01 1.000000e+01 -6.982120e+00
         vertex 5.000000e-01 1.000000e+01 -1.400000e+01
         vertex 5.000000e-01 2.800000e+01 -1.050000e+01
      endloop
   endfacet
   facet normal 1.000000e+00 0.000000e+00 0.000000e+00
      outer loop
         vertex 5.000000e-01 2.800000e+01 -1.050000e+01
         vertex 5.000000e-01 1.000000e+01 -1.400000e+01
         vertex 5.000000e-01 3.500000e+01 -1.050000e+01
      endloop
   endfacet
   facet normal 1.000000e+00 0.000000e+00 -0.000000e+00
      outer loop
         vertex 5.000000e-01 1.000000e+01 -1.400000e+01
         vertex 5.000000e-01 2.800000e+01 -1.400000e+01
         vertex 5.000000e-01 3.500000e+01 -1.050000e+01
      endloop
   endfacet
   facet normal 1.000000e+00 0.000000e+00 0.000000e+00
      outer loop
         vertex 5.000000e-01 3.500000e+01 -1.050000e+01
         vertex 5.000000e-01 2.800000e+01 -1.400000e+01
         vertex 5.000000e-01 3.500000e+01 -1.250000e+01
      endloop
   endfacet
   facet normal 0.000000e+00 1.000000e+00 0.000000e+00
      outer loop
         vertex -5.000000e-01 2.800000e+01 1.050000e+01
         vertex 5.000000e-01 2.800000e+01 1.050000e+01
         vertex -5.000000e-01 2.800000e+01 6.982120e+00
      endloop
   endfacet
   facet normal 0.000000e+00 1.000000e+00 -0.000000e+00
      outer loop
         vertex 5.000000e-01 2.800000e+01 1.050000e+01
         vertex -1.309073e-15 2.800000e+01 7.000000e+00
         vertex -5.000000e-01 2.800000e+01 6.982120e+00
      endloop
   endfacet
   facet normal 0.000000e+00 1.000000e+00 0.000000e+00
      outer loop
         vertex -1.309073e-15 2.800000e+01 7.000000e+00
         vertex 5.000000e-01 2.800000e+01 1.050000e+01
         vertex 5.000000e-01 2.800000e+01 6.982120e+00
      endloop
   endfacet
   facet normal -1.000000e+00 0.000000e+00 0.000000e+00
      outer loop
         vertex -5.000000e-01 2.800000e+01 6.982120e+00
         vertex -5.000000e-01 1.000000e+01 6.982120e+00
         vertex -5.000000e-01 2.800000e+01 1.050000e+01
      endloop
   endfacet
   facet normal -1.000000e+00 0.000000e+00 0.000000e+00
      outer loop
         vertex -5.000000e-01 1.000000e+01 6.982120e+00
         vertex -5.000000e-01 1.000000e+01 1.400000e+01
         vertex -5.000000e-01 2.800000e+01 1.050000e+01
      endloop
   endfacet
   facet normal -1.000000e+00 0.000000e+00 0.000000e+00
      outer loop
         vertex -5.000000e-01 2.800000e+01 1.050000e+01
         vertex -5.000000e-01 1.000000e+01 1.400000e+01
         vertex -5.000000e-01 3.500000e+01 1.050000e+01
      endloop
   endfacet
   facet normal -1.000000e+00 -0.000000e+00 -0.000000e+00
      outer loop
         vertex -5.000000e-01 1.000000e+01 1.400000e+01
         vertex -5.000000e-01 2.800000e+01 1.400000e+01
         vertex -5.000000e-01 3.500000e+01 1.050000e+01
      endloop
   endfacet
   facet normal -1.000000e+00 0.000000e+00 0.000000e+00
      outer loop
         vertex -5.000000e-01 3.500000e+01 1.050000e+01
         vertex -5.000000e-01 2.800000e+01 1.400000e+01
         vertex -5.000000e-01 3.500000e+01 1.250000e+01
      endloop
   endfacet
   facet normal 1.000000e+00 0.000000e+00 0.000000e+00
      outer loop
         vertex 5.000000e-01 1.000000e+01 6.982120e+00
         vertex 5.000000e-01 2.800000e+01 6.982120e+00
         vertex 5.000000e-01 1.000000e+01 1.400000e+01
      endloop
   endfacet
   facet normal 1.000000e+00 0.000000e+00 0.000000e+00
      outer loop
         vertex 5.000000e-01 2.800000e+01 6.982120e+00
         vertex 5.000000e-01 2.800000e+01 1.050000e+01
         vertex 5.000000e-01 1.000000e+01 1.400000e+01
      endloop
   endfacet
   facet normal 1.000000e+00 0.000000e+00 -0.000000e+00
      outer loop
         vertex 5.000000e-01 1.000000e+01 1.400000e+01
         vertex 5.000000e-01 2.800000e+01 1.050000e+01
         vertex 5.000000e-01 2.800000e+01 1.400000e+01
      endloop
   endfacet
   facet normal 1.000000e+00 0.000000e+00 0.000000e+00
      outer loop
         vertex 5.000000e-01 2.800000e+01 1.050000e+01
         vertex 5.000000e-01 3.500000e+01 1.050000e+01
         vertex 5.000000e-01 2.800000e+01 1.400000e+01
      endloop
   endfacet
   facet normal 1.000000e+00 0.000000e+00 -0.000000e+00
      outer loop
         vertex 5.000000e-01 2.800000e+01 1.400000e+01
         vertex 5.000000e-01 3.500000e+01 1.050000e+01
         vertex 5.000000e-01 3.500000e+01 1.250000e+01
      endloop
   endfacet
   facet normal 3.573708e-02 4.621896e-04 9.993611e-01
      outer loop
         vertex -1.309073e-15 2.800000e+01 7.000000e+00
         vertex 5.000000e-01 2.800000e+01 6.982120e+00
         vertex 5.780554e-01 3.500000e+01 6.976091e+00
      endloop
   endfacet
   facet normal 7.700617e-02 -0.000000e+00 9.970306e-01
      outer loop
         vertex 5.000000e-01 2.800000e+01 6.982120e+00
         vertex 5.000000e-01 1.000000e+01 6.982120e+00
         vertex 5.780554e-01 3.500000e+01 6.976091e+00
      endloop
   endfacet
   facet normal 2.358364e-01 -5.019885e-04 9.717926e-01
      outer loop
         vertex 5.000000e-01 1.000000e+01 6.982120e+00
         vertex 2.756000e+00 1.000000e+01 6.434630e+00
         vertex 5.780554e-01 3.500000e+01 6.976091e+00
      endloop
   endfacet
   facet normal 5.406910e-01 -3.934285e-04 8.412212e-01
      outer loop
         vertex 2.756000e+00 1.000000e+01 6.434630e+00
         vertex 4.708880e+00 1.000000e+01 5.179425e+00
         vertex 2.811868e+00 3.500000e+01 6.410413e+00
      endloop
   endfacet
   facet normal 7.860777e-01 -2.831527e-04 6.181277e-01
      outer loop
         vertex 4.708880e+00 1.000000e+01 5.179425e+00
         vertex 6.143853e+00 1.000000e+01 3.354559e+00
         vertex 4.740971e+00 3.500000e+01 5.150067e+00
      endloop
   endfacet
   facet normal 9.450073e-01 -1.711685e-04 3.270491e-01
      outer loop
         vertex 6.143853e+00 1.000000e+01 3.354559e+00
         vertex 6.903092e+00 1.000000e+01 1.160741e+00
         vertex 6.156316e+00 3.500000e+01 3.331632e+00
      endloop
   endfacet
   facet normal 1.000000e+00 -5.748749e-05 0.000000e+00
      outer loop
         vertex 6.903092e+00 1.000000e+01 1.160741e+00
         vertex 6.903092e+00 1.000000e+01 -1.160741e+00
         vertex 6.904529e+00 3.500000e+01 -1.152162e+00
      endloop
   endfacet
   facet normal 9.450073e-01 -1.711685e-04 -3.270491e-01
      outer loop
         vertex 6.903092e+00 1.000000e+01 -1.160741e+00
         vertex 6.143853e+00 1.000000e+01 -3.354559e+00
         vertex 6.156316e+00 3.500000e+01 -3.331632e+00
      endloop
   endfacet
   facet normal 7.860777e-01 -2.831527e-04 -6.181277e-01
      outer loop
         vertex 6.143853e+00 1.000000e+01 -3.354559e+00
         vertex 4.708880e+00 1.000000e+01 -5.179425e+00
         vertex 4.740971e+00 3.500000e+01 -5.150067e+00
      endloop
   endfacet
   facet normal 5.406910e-01 -3.934285e-04 -8.412212e-01
      outer loop
         vertex 4.708880e+00 1.000000e+01 -5.179425e+00
         vertex 2.756000e+00 1.000000e+01 -6.434630e+00
         vertex 2.811868e+00 3.500000e+01 -6.410413e+00
      endloop
   endfacet
   facet normal 2.358364e-01 -5.019885e-04 -9.717926e-01
      outer loop
         vertex 2.756000e+00 1.000000e+01 -6.434630e+00
         vertex 5.000000e-01 1.000000e+01 -6.982120e+00
         vertex 5.780554e-01 3.500000e+01 -6.976091e+00
      endloop
   endfacet
   facet normal 7.700617e-02 0.000000e+00 -9.970306e-01
      outer loop
         vertex 5.000000e-01 1.000000e+01 -6.982120e+00
         vertex 5.000000e-01 2.800000e+01 -6.982120e+00
         vertex 5.780554e-01 3.500000e+01 -6.976091e+00
      endloop
   endfacet
   facet normal 3.573708e-02 4.621896e-04 -9.993611e-01
      outer loop
         vertex 5.000000e-01 2.800000e+01 -6.982120e+00
         vertex 2.126278e-15 2.800000e+01 -7.000000e+00
         vertex 5.780554e-01 3.500000e+01 -6.976091e+00
      endloop
   endfacet
   facet normal -3.573636e-02 6.364351e-03 -9.993410e-01
      outer loop
         vertex 2.126278e-15 2.800000e+01 -7.000000e+00
         vertex -5.000000e-01 2.800000e+01 -6.982120e+00
         vertex 5.780554e-01 3.500000e+01 -6.976091e+00
      endloop
   endfacet
   facet normal -1.590763e-01 0.000000e+00 -9.872663e-01
      outer loop
         vertex -5.000000e-01 2.800000e+01 -6.982120e+00
         vertex -5.000000e-01 1.000000e+01 -6.982120e+00
         vertex -1.718398e+00 3.500000e+01 -6.785802e+00
      endloop
   endfacet
   facet normal -2.560170e-01 -4.886313e-03 -9.666599e-01
      outer loop
         vertex -5.000000e-01 1.000000e+01 -6.982120e+00
         vertex -3.021518e+00 1.000000e+01 -6.314303e+00
         vertex -1.718398e+00 3.500000e+01 -6.785802e+00
      endloop
   endfacet
   facet normal -5.921482e-01 -4.479268e-03 -8.058166e-01
      outer loop
         vertex -3.021518e+00 1.000000e+01 -6.314303e+00
         vertex -5.123476e+00 1.000000e+01 -4.769696e+00
         vertex -3.828637e+00 3.500000e+01 -5.860165e+00
      endloop
   endfacet
   facet normal -8.460579e-01 -3.527805e-03 -5.330794e-01
      outer loop
         vertex -5.123476e+00 1.000000e+01 -4.769696e+00
         vertex -6.513998e+00 1.000000e+01 -2.562779e+00
         vertex -5.523983e+00 3.500000e+01 -4.299489e+00
      endloop
   endfacet
   facet normal -9.824874e-01 -2.033761e-03 -1.863178e-01
      outer loop
         vertex -6.513998e+00 1.000000e+01 -2.562779e+00
         vertex -7.000000e+00 1.000000e+01 -2.449294e-16
         vertex -6.620721e+00 3.500000e+01 -2.272896e+00
      endloop
   endfacet
   facet normal -9.863613e-01 1.007851e-17 -1.645945e-01
      outer loop
         vertex -7.000000e+00 1.000000e+01 -2.449294e-16
         vertex -7.000000e+00 3.500000e+01 1.285879e-15
         vertex -6.620721e+00 3.500000e+01 -2.272896e+00
      endloop
   endfacet
   facet normal -8.794723e-01 1.764340e-03 -4.759467e-01
      outer loop
         vertex -6.620721e+00 3.500000e+01 -2.272896e+00
         vertex -5.523983e+00 3.500000e+01 -4.299489e+00
         vertex -6.513998e+00 1.000000e+01 -2.562779e+00
      endloop
   endfacet
   facet normal -6.772785e-01 2.987430e-03 -7.357207e-01
      outer loop
         vertex -5.523983e+00 3.500000e+01 -4.299489e+00
         vertex -3.828637e+00 3.500000e+01 -5.860165e+00
         vertex -5.123476e+00 1.000000e+01 -4.769696e+00
      endloop
   endfacet
   facet normal -4.016928e-01 3.666846e-03 -9.157671e-01
      outer loop
         vertex -3.828637e+00 3.500000e+01 -5.860165e+00
         vertex -1.718398e+00 3.500000e+01 -6.785802e+00
         vertex -3.021518e+00 1.000000e+01 -6.314303e+00
      endloop
   endfacet
   facet normal -8.257169e-02 1.357491e-02 -9.964927e-01
      outer loop
         vertex -1.718398e+00 3.500000e+01 -6.785802e+00
         vertex 5.780554e-01 3.500000e+01 -6.976091e+00
         vertex -5.000000e-01 2.800000e+01 -6.982120e+00
      endloop
   endfacet
   facet normal 2.454855e-01 3.904347e-04 -9.694002e-01
      outer loop
         vertex 5.780554e-01 3.500000e+01 -6.976091e+00
         vertex 2.811868e+00 3.500000e+01 -6.410413e+00
         vertex 2.756000e+00 1.000000e+01 -6.434630e+00
      endloop
   endfacet
   facet normal 5.469481e-01 2.810212e-04 -8.371665e-01
      outer loop
         vertex 2.811868e+00 3.500000e+01 -6.410413e+00
         vertex 4.740971e+00 3.500000e+01 -5.150067e+00
         vertex 4.708880e+00 1.000000e+01 -5.179425e+00
      endloop
   endfacet
   facet normal 7.891405e-01 1.698956e-04 -6.142127e-01
      outer loop
         vertex 4.740971e+00 3.500000e+01 -5.150067e+00
         vertex 6.156316e+00 3.500000e+01 -3.331632e+00
         vertex 6.143853e+00 1.000000e+01 -3.354559e+00
      endloop
   endfacet
   facet normal 9.458172e-01 5.705451e-05 -3.246995e-01
      outer loop
         vertex 6.156316e+00 3.500000e+01 -3.331632e+00
         vertex 6.904529e+00 3.500000e+01 -1.152162e+00
         vertex 6.903092e+00 1.000000e+01 -1.160741e+00
      endloop
   endfacet
   facet normal 1.000000e+00 -5.748749e-05 0.000000e+00
      outer loop
         vertex 6.904529e+00 3.500000e+01 -1.152162e+00
         vertex 6.904529e+00 3.500000e+01 1.152162e+00
         vertex 6.903092e+00 1.000000e+01 1.160741e+00
      endloop
   endfacet
   facet normal 9.458172e-01 5.705451e-05 3.246995e-01
      outer loop
         vertex 6.904529e+00 3.500000e+01 1.152162e+00
         vertex 6.156316e+00 3.500000e+01 3.331632e+00
         vertex 6.903092e+00 1.000000e+01 1.160741e+00
      endloop
   endfacet
   facet normal 7.891405e-01 1.698956e-04 6.142127e-01
      outer loop
         vertex 6.156316e+00 3.500000e+01 3.331632e+00
         vertex 4.740971e+00 3.500000e+01 5.150067e+00
         vertex 6.143853e+00 1.000000e+01 3.354559e+00
      endloop
   endfacet
   facet normal 5.469481e-01 2.810212e-04 8.371665e-01
      outer loop
         vertex 4.740971e+00 3.500000e+01 5.150067e+00
         vertex 2.811868e+00 3.500000e+01 6.410413e+00
         vertex 4.708880e+00 1.000000e+01 5.179425e+00
      endloop
   endfacet
   facet normal 2.454855e-01 3.904347e-04 9.694002e-01
      outer loop
         vertex 2.811868e+00 3.500000e+01 6.410413e+00
         vertex 5.780554e-01 3.500000e+01 6.976091e+00
         vertex 2.756000e+00 1.000000e+01 6.434630e+00
      endloop
   endfacet
   facet normal -8.257169e-02 1.357491e-02 9.964927e-01
      outer loop
         vertex 5.780554e-01 3.500000e+01 6.976091e+00
         vertex -1.718398e+00 3.500000e+01 6.785802e+00
         vertex -5.000000e-01 2.800000e+01 6.982120e+00
      endloop
   endfacet
   facet normal -4.016928e-01 3.666846e-03 9.157671e-01
      outer loop
         vertex -1.718398e+00 3.500000e+01 6.785802e+00
         vertex -3.828637e+00 3.500000e+01 5.860165e+00
         vertex -3.021518e+00 1.000000e+01 6.314303e+00
      endloop
   endfacet
   facet normal -6.772785e-01 2.987430e-03 7.357207e-01
      outer loop
         vertex -3.828637e+00 3.500000e+01 5.860165e+00
         vertex -5.523983e+00 3.500000e+01 4.299489e+00
         vertex -5.123476e+00 1.000000e+01 4.769696e+00
      endloop
   endfacet
   facet normal -8.794723e-01 1.764340e-03 4.759467e-01
      outer loop
         vertex -5.523983e+00 3.500000e+01 4.299489e+00
         vertex -6.620721e+00 3.500000e+01 2.272896e+00
         vertex -6.513998e+00 1.000000e+01 2.562779e+00
      endloop
   endfacet
   facet normal -9.863613e-01 -1.007851e-17 1.645945e-01
      outer loop
         vertex -6.620721e+00 3.500000e+01 2.272896e+00
         vertex -7.000000e+00 3.500000e+01 1.285879e-15
         vertex -7.000000e+00 1.000000e+01 -2.449294e-16
      endloop
   endfacet
   facet normal -9.824874e-01 -2.033761e-03 1.863178e-01
      outer loop
         vertex -7.000000e+00 1.000000e+01 -2.449294e-16
         vertex -6.513998e+00 1.000000e+01 2.562779e+00
         vertex -6.620721e+00 3.500000e+01 2.272896e+00
      endloop
   endfacet
   facet normal -8.460579e-01 -3.527805e-03 5.330794e-01
      outer loop
         vertex -6.513998e+00 1.000000e+01 2.562779e+00
         vertex -5.123476e+00 1.000000e+01 4.769696e+00
         vertex -5.523983e+00 3.500000e+01 4.299489e+00
      endloop
   endfacet
   facet normal -5.921482e-01 -4.479268e-03 8.058166e-01
      outer loop
         vertex -5.123476e+00 1.000000e+01 4.769696e+00
         vertex -3.021518e+00 1.000000e+01 6.314303e+00
         vertex -3.828637e+00 3.500000e+01 5.860165e+00
      endloop
   endfacet
   facet normal -2.560170e-01 -4.886313e-03 9.666599e-01
      outer loop
         vertex -3.021518e+00 1.000000e+01 6.314303e+00
         vertex -5.000000e-01 1.000000e+01 6.982120e+00
         vertex -1.718398e+00 3.500000e+01 6.785802e+00
      endloop
   endfacet
   facet normal -1.590763e-01 0.000000e+00 9.872663e-01
      outer loop
         vertex -5.000000e-01 1.000000e+01 6.982120e+00
         vertex -5.000000e-01 2.800000e+01 6.982120e+00
         vertex -1.718398e+00 3.500000e+01 6.785802e+00
      endloop
   endfacet
   facet normal -3.573636e-02 6.364351e-03 9.993410e-01
      outer loop
         vertex -5.000000e-01 2.800000e+01 6.982120e+00
         vertex -1.309073e-15 2.800000e+01 7.000000e+00
         vertex 5.780554e-01 3.500000e+01 6.976091e+00
      endloop
   endfacet
   facet normal -0.000000e+00 -0.000000e+00 -1.000000e+00
      outer loop
         vertex -5.000000e-01 2.800000e+01 -1.400000e+01
         vertex 5.000000e-01 2.800000e+01 -1.400000e+01
         vertex 5.000000e-01 1.000000e+01 -1.400000e+01
      endloop
   endfacet
   facet normal 0.000000e+00 0.000000e+00 -1.000000e+00
      outer loop
         vertex -5.000000e-01 2.800000e+01 -1.400000e+01
         vertex 5.000000e-01 1.000000e+01 -1.400000e+01
         vertex -5.000000e-01 1.000000e+01 -1.400000e+01
      endloop
   endfacet
   facet normal 0.000000e+00 -0.000000e+00 1.000000e+00
      outer loop
         vertex -5.000000e-01 1.000000e+01 1.400000e+01
         vertex 5.000000e-01 1.000000e+01 1.400000e+01
         vertex 5.000000e-01 2.800000e+01 1.400000e+01
      endloop
   endfacet
   facet normal 0.000000e+00 0.000000e+00 1.000000e+00
      outer loop
         vertex -5.000000e-01 1.000000e+01 1.400000e+01
         vertex 5.000000e-01 2.800000e+01 1.400000e+01
         vertex -5.000000e-01 2.800000e+01 1.400000e+01
      endloop
   endfacet
   facet normal -9.749279e-01 0.000000e+00 2.225210e-01
      outer loop
         vertex -4.000000e+00 2.999520e-32 -4.898587e-16
         vertex -3.603875e+00 -1.062709e-16 1.735535e+00
         vertex -3.603875e+00 1.000000e+01 1.735535e+00
      endloop
   endfacet
   facet normal -9.749279e-01 -1.870986e-17 2.225210e-01
      outer loop
         vertex -4.000000e+00 2.999520e-32 -4.898587e-16
         vertex -3.603875e+00 1.000000e+01 1.735535e+00
         vertex -4.000000e+00 1.000000e+01 1.224647e-16
      endloop
   endfacet
   facet normal -7.818315e-01 0.000000e+00 6.234897e-01
      outer loop
         vertex -3.603875e+00 -1.062709e-16 1.735535e+00
         vertex -2.493959e+00 -1.914935e-16 3.127326e+00
         vertex -2.493959e+00 1.000000e+01 3.127326e+00
      endloop
   endfacet
   facet normal -7.818315e-01 0.000000e+00 6.234897e-01
      outer loop
         vertex -3.603875e+00 -1.062709e-16 1.735535e+00
         vertex -2.493959e+00 1.000000e+01 3.127326e+00
         vertex -3.603875e+00 1.000000e+01 1.735535e+00
      endloop
   endfacet
   facet normal -4.338837e-01 0.000000e+00 9.009689e-01
      outer loop
         vertex -2.493959e+00 -1.914935e-16 3.127326e+00
         vertex -8.900837e-01 -2.387885e-16 3.899712e+00
         vertex -8.900837e-01 1.000000e+01 3.899712e+00
      endloop
   endfacet
   facet normal -4.338837e-01 0.000000e+00 9.009689e-01
      outer loop
         vertex -2.493959e+00 -1.914935e-16 3.127326e+00
         vertex -8.900837e-01 1.000000e+01 3.899712e+00
         vertex -2.493959e+00 1.000000e+01 3.127326e+00
      endloop
   endfacet
   facet normal 0.000000e+00 -0.000000e+00 1.000000e+00
      outer loop
         vertex -8.900837e-01 -2.387885e-16 3.899712e+00
         vertex 8.900837e-01 -2.387885e-16 3.899712e+00
         vertex 8.900837e-01 1.000000e+01 3.899712e+00
      endloop
   endfacet
   facet normal 0.000000e+00 0.000000e+00 1.000000e+00
      outer loop
         vertex -8.900837e-01 -2.387885e-16 3.899712e+00
         vertex 8.900837e-01 1.000000e+01 3.899712e+00
         vertex -8.900837e-01 1.000000e+01 3.899712e+00
      endloop
   endfacet
   facet normal 4.338837e-01 -0.000000e+00 9.009689e-01
      outer loop
         vertex 8.900837e-01 -2.387885e-16 3.899712e+00
         vertex 2.493959e+00 -1.914935e-16 3.127326e+00
         vertex 2.493959e+00 1.000000e+01 3.127326e+00
      endloop
   endfacet
   facet normal 4.338837e-01 0.000000e+00 9.009689e-01
      outer loop
         vertex 8.900837e-01 -2.387885e-16 3.899712e+00
         vertex 2.493959e+00 1.000000e+01 3.127326e+00
         vertex 8.900837e-01 1.000000e+01 3.899712e+00
      endloop
   endfacet
   facet normal 7.818315e-01 -0.000000e+00 6.234897e-01
      outer loop
         vertex 2.493959e+00 -1.914935e-16 3.127326e+00
         vertex 3.603875e+00 -1.062709e-16 1.735535e+00
         vertex 3.603875e+00 1.000000e+01 1.735535e+00
      endloop
   endfacet
   facet normal 7.818315e-01 0.000000e+00 6.234897e-01
      outer loop
         vertex 2.493959e+00 -1.914935e-16 3.127326e+00
         vertex 3.603875e+00 1.000000e+01 1.735535e+00
         vertex 2.493959e+00 1.000000e+01 3.127326e+00
      endloop
   endfacet
   facet normal 9.749279e-01 -1.362548e-17 2.225210e-01
      outer loop
         vertex 3.603875e+00 -1.062709e-16 1.735535e+00
         vertex 4.000000e+00 -5.999039e-32 9.797175e-16
         vertex 4.000000e+00 1.000000e+01 1.592041e-15
      endloop
   endfacet
   facet normal 9.749279e-01 0.000000e+00 2.225210e-01
      outer loop
         vertex 3.603875e+00 -1.062709e-16 1.735535e+00
         vertex 4.000000e+00 1.000000e+01 1.592041e-15
         vertex 3.603875e+00 1.000000e+01 1.735535e+00
      endloop
   endfacet
   facet normal 9.749279e-01 0.000000e+00 -2.225210e-01
      outer loop
         vertex 4.000000e+00 -5.999039e-32 9.797175e-16
         vertex 3.603875e+00 1.062709e-16 -1.735535e+00
         vertex 3.603875e+00 1.000000e+01 -1.735535e+00
      endloop
   endfacet
   facet normal 9.749279e-01 1.870986e-17 -2.225210e-01
      outer loop
         vertex 4.000000e+00 -5.999039e-32 9.797175e-16
         vertex 3.603875e+00 1.000000e+01 -1.735535e+00
         vertex 4.000000e+00 1.000000e+01 1.592041e-15
      endloop
   endfacet
   facet normal 7.818315e-01 0.000000e+00 -6.234897e-01
      outer loop
         vertex 3.603875e+00 1.062709e-16 -1.735535e+00
         vertex 2.493959e+00 1.914935e-16 -3.127326e+00
         vertex 2.493959e+00 1.000000e+01 -3.127326e+00
      endloop
   endfacet
   facet normal 7.818315e-01 0.000000e+00 -6.234897e-01
      outer loop
         vertex 3.603875e+00 1.062709e-16 -1.735535e+00
         vertex 2.493959e+00 1.000000e+01 -3.127326e+00
         vertex 3.603875e+00 1.000000e+01 -1.735535e+00
      endloop
   endfacet
   facet normal 4.338837e-01 0.000000e+00 -9.009689e-01
      outer loop
         vertex 2.493959e+00 1.914935e-16 -3.127326e+00
         vertex 8.900837e-01 2.387885e-16 -3.899712e+00
         vertex 8.900837e-01 1.000000e+01 -3.899712e+00
      endloop
   endfacet
   facet normal 4.338837e-01 0.000000e+00 -9.009689e-01
      outer loop
         vertex 2.493959e+00 1.914935e-16 -3.127326e+00
         vertex 8.900837e-01 1.000000e+01 -3.899712e+00
         vertex 2.493959e+00 1.000000e+01 -3.127326e+00
      endloop
   endfacet
   facet normal 0.000000e+00 0.000000e+00 -1.000000e+00
      outer loop
         vertex 8.900837e-01 2.387885e-16 -3.899712e+00
         vertex -8.900837e-01 2.387885e-16 -3.899712e+00
         vertex -8.900837e-01 1.000000e+01 -3.899712e+00
      endloop
   endfacet
   facet normal 0.000000e+00 0.000000e+00 -1.000000e+00
      outer loop
         vertex 8.900837e-01 2.387885e-16 -3.899712e+00
         vertex -8.900837e-01 1.000000e+01 -3.899712e+00
         vertex 8.900837e-01 1.000000e+01 -3.899712e+00
      endloop
   endfacet
   facet normal -4.338837e-01 0.000000e+00 -9.009689e-01
      outer loop
         vertex -8.900837e-01 2.387885e-16 -3.899712e+00
         vertex -2.493959e+00 1.914935e-16 -3.127326e+00
         vertex -2.493959e+00 1.000000e+01 -3.127326e+00
      endloop
   endfacet
   facet normal -4.338837e-01 0.000000e+00 -9.009689e-01
      outer loop
         vertex -8.900837e-01 2.387885e-16 -3.899712e+00
         vertex -2.493959e+00 1.000000e+01 -3.127326e+00
         vertex -8.900837e-01 1.000000e+01 -3.899712e+00
      endloop
   endfacet
   facet normal -7.818315e-01 0.000000e+00 -6.234897e-01
      outer loop
         vertex -2.493959e+00 1.914935e-16 -3.127326e+00
         vertex -3.603875e+00 1.062709e-16 -1.735535e+00
         vertex -3.603875e+00 1.000000e+01 -1.735535e+00
      endloop
   endfacet
   facet normal -7.818315e-01 0.000000e+00 -6.234897e-01
      outer loop
         vertex -2.493959e+00 1.914935e-16 -3.127326e+00
         vertex -3.603875e+00 1.000000e+01 -1.735535e+00
         vertex -2.493959e+00 1.000000e+01 -3.127326e+00
      endloop
   endfacet
   facet normal -9.749279e-01 1.362548e-17 -2.225210e-01
      outer loop
         vertex -3.603875e+00 1.062709e-16 -1.735535e+00
         vertex -4.000000e+00 8.998559e-32 -1.469576e-15
         vertex -4.000000e+00 1.000000e+01 -8.572528e-16
      endloop
   endfacet
   facet normal -9.749279e-01 0.000000e+00 -2.225210e-01
      outer loop
         vertex -3.603875e+00 1.062709e-16 -1.735535e+00
         vertex -4.000000e+00 1.000000e+01 -8.572528e-16
         vertex -3.603875e+00 1.000000e+01 -1.735535e+00
      endloop
   endfacet
   facet normal 0.000000e+00 -0.000000e+00 1.000000e+00
      outer loop
         vertex -5.000000e-01 2.800000e+01 -1.050000e+01
         vertex 5.000000e-01 2.800000e+01 -1.050000e+01
         vertex 5.000000e-01 3.500000e+01 -1.050000e+01
      endloop
   endfacet
   facet normal 0.000000e+00 0.000000e+00 1.000000e+00
      outer loop
         vertex -5.000000e-01 2.800000e+01 -1.050000e+01
         vertex 5.000000e-01 3.500000e+01 -1.050000e+01
         vertex -5.000000e-01 3.500000e+01 -1.050000e+01
      endloop
   endfacet
   facet normal 0.000000e+00 1.000000e+00 0.000000e+00
      outer loop
         vertex -5.000000e-01 3.500000e+01 -1.050000e+01
         vertex 5.000000e-01 3.500000e+01 -1.050000e+01
         vertex 5.000000e-01 3.500000e+01 -1.250000e+01
      endloop
   endfacet
   facet normal 0.000000e+00 1.000000e+00 0.000000e+00
      outer loop
         vertex -5.000000e-01 3.500000e+01 -1.050000e+01
         vertex 5.000000e-01 3.500000e+01 -1.250000e+01
         vertex -5.000000e-01 3.500000e+01 -1.250000e+01
      endloop
   endfacet
   facet normal 0.000000e+00 2.095291e-01 -9.778024e-01
      outer loop
         vertex -5.000000e-01 3.500000e+01 -1.250000e+01
         vertex 5.000000e-01 3.500000e+01 -1.250000e+01
         vertex 5.000000e-01 2.800000e+01 -1.400000e+01
      endloop
   endfacet
   facet normal 0.000000e+00 2.095291e-01 -9.778024e-01
      outer loop
         vertex -5.000000e-01 3.500000e+01 -1.250000e+01
         vertex 5.000000e-01 2.800000e+01 -1.400000e+01
         vertex -5.000000e-01 2.800000e+01 -1.400000e+01
      endloop
   endfacet
   facet normal -0.000000e+00 -0.000000e+00 -1.000000e+00
      outer loop
         vertex -5.000000e-01 3.500000e+01 1.050000e+01
         vertex 5.000000e-01 3.500000e+01 1.050000e+01
         vertex 5.000000e-01 2.800000e+01 1.050000e+01
      endloop
   endfacet
   facet normal 0.000000e+00 0.000000e+00 -1.000000e+00
      outer loop
         vertex -5.000000e-01 3.500000e+01 1.050000e+01
         vertex 5.000000e-01 2.800000e+01 1.050000e+01
         vertex -5.000000e-01 2.800000e+01 1.050000e+01
      endloop
   endfacet
   facet normal 0.000000e+00 2.095291e-01 9.778024e-01
      outer loop
         vertex -5.000000e-01 2.800000e+01 1.400000e+01
         vertex 5.000000e-01 2.800000e+01 1.400000e+01
         vertex 5.000000e-01 3.500000e+01 1.250000e+01
      endloop
   endfacet
   facet normal 0.000000e+00 2.095291e-01 9.778024e-01
      outer loop
         vertex -5.000000e-01 2.800000e+01 1.400000e+01
         vertex 5.000000e-01 3.500000e+01 1.250000e+01
         vertex -5.000000e-01 3.500000e+01 1.250000e+01
      endloop
   endfacet
   facet normal 0.000000e+00 1.000000e+00 0.000000e+00
      outer loop
         vertex -5.000000e-01 3.500000e+01 1.250000e+01
         vertex 5.000000e-01 3.500000e+01 1.250000e+01
         vertex 5.000000e-01 3.500000e+01 1.050000e+01
      endloop
   endfacet
   facet normal 0.000000e+00 1.000000e+00 0.000000e+00
      outer loop
         vertex -5.000000e-01 3.500000e+01 1.250000e+01
         vertex 5.000000e-01 3.500000e+01 1.050000e+01
         vertex -5.000000e-01 3.500000e+01 1.050000e+01
      endloop
   endfacet
   facet normal 0.000000e+00 1.000000e+00 0.000000e+00
      outer loop
         vertex -6.620721e+00 3.500000e+01 -2.272896e+00
         vertex -7.000000e+00 3.500000e+01 1.285879e-15
         vertex -5.523983e+00 3.500000e+01 -4.299489e+00
      endloop
   endfacet
   facet normal 0.000000e+00 1.000000e+00 0.000000e+00
      outer loop
         vertex -7.000000e+00 3.500000e+01 1.285879e-15
         vertex -6.108002e+00 3.500000e+01 -2.223131e+00
         vertex -5.523983e+00 3.500000e+01 -4.299489e+00
      endloop
   endfacet
   facet normal 0.000000e+00 1.000000e+00 0.000000e+00
      outer loop
         vertex -5.523983e+00 3.500000e+01 -4.299489e+00
         vertex -4.979289e+00 3.500000e+01 -4.178120e+00
         vertex -3.828637e+00 3.500000e+01 -5.860165e+00
      endloop
   endfacet
   facet normal 0.000000e+00 1.000000e+00 0.000000e+00
      outer loop
         vertex -4.979289e+00 3.500000e+01 -4.178120e+00
         vertex -3.250000e+00 3.500000e+01 -5.629165e+00
         vertex -3.828637e+00 3.500000e+01 -5.860165e+00
      endloop
   endfacet
   facet normal 0.000000e+00 1.000000e+00 0.000000e+00
      outer loop
         vertex -3.828637e+00 3.500000e+01 -5.860165e+00
         vertex -3.250000e+00 3.500000e+01 -5.629165e+00
         vertex -1.718398e+00 3.500000e+01 -6.785802e+00
      endloop
   endfacet
   facet normal 0.000000e+00 1.000000e+00 0.000000e+00
      outer loop
         vertex -3.250000e+00 3.500000e+01 -5.629165e+00
         vertex -1.128713e+00 3.500000e+01 -6.401250e+00
         vertex -1.718398e+00 3.500000e+01 -6.785802e+00
      endloop
   endfacet
   facet normal 0.000000e+00 1.000000e+00 0.000000e+00
      outer loop
         vertex -1.718398e+00 3.500000e+01 -6.785802e+00
         vertex -1.128713e+00 3.500000e+01 -6.401250e+00
         vertex 5.780554e-01 3.500000e+01 -6.976091e+00
      endloop
   endfacet
   facet normal 0.000000e+00 1.000000e+00 0.000000e+00
      outer loop
         vertex -1.128713e+00 3.500000e+01 -6.401250e+00
         vertex 1.128713e+00 3.500000e+01 -6.401250e+00
         vertex 5.780554e-01 3.500000e+01 -6.976091e+00
      endloop
   endfacet
   facet normal 0.000000e+00 1.000000e+00 0.000000e+00
      outer loop
         vertex 5.780554e-01 3.500000e+01 -6.976091e+00
         vertex 1.128713e+00 3.500000e+01 -6.401250e+00
         vertex 2.811868e+00 3.500000e+01 -6.410413e+00
      endloop
   endfacet
   facet normal 0.000000e+00 1.000000e+00 0.000000e+00
      outer loop
         vertex 1.128713e+00 3.500000e+01 -6.401250e+00
         vertex 3.250000e+00 3.500000e+01 -5.629165e+00
         vertex 2.811868e+00 3.500000e+01 -6.410413e+00
      endloop
   endfacet
   facet normal -0.000000e+00 1.000000e+00 0.000000e+00
      outer loop
         vertex 2.811868e+00 3.500000e+01 -6.410413e+00
         vertex 3.250000e+00 3.500000e+01 -5.629165e+00
         vertex 4.740971e+00 3.500000e+01 -5.150067e+00
      endloop
   endfacet
   facet normal 0.000000e+00 1.000000e+00 0.000000e+00
      outer loop
         vertex 3.250000e+00 3.500000e+01 -5.629165e+00
         vertex 4.979289e+00 3.500000e+01 -4.178120e+00
         vertex 4.740971e+00 3.500000e+01 -5.150067e+00
      endloop
   endfacet
   facet normal -0.000000e+00 1.000000e+00 0.000000e+00
      outer loop
         vertex 4.740971e+00 3.500000e+01 -5.150067e+00
         vertex 4.979289e+00 3.500000e+01 -4.178120e+00
         vertex 6.156316e+00 3.500000e+01 -3.331632e+00
      endloop
   endfacet
   facet normal 0.000000e+00 1.000000e+00 0.000000e+00
      outer loop
         vertex 4.979289e+00 3.500000e+01 -4.178120e+00
         vertex 6.108002e+00 3.500000e+01 -2.223131e+00
         vertex 6.156316e+00 3.500000e+01 -3.331632e+00
      endloop
   endfacet
   facet normal -0.000000e+00 1.000000e+00 0.000000e+00
      outer loop
         vertex 6.156316e+00 3.500000e+01 -3.331632e+00
         vertex 6.108002e+00 3.500000e+01 -2.223131e+00
         vertex 6.904529e+00 3.500000e+01 -1.152162e+00
      endloop
   endfacet
   facet normal 0.000000e+00 1.000000e+00 0.000000e+00
      outer loop
         vertex 6.108002e+00 3.500000e+01 -2.223131e+00
         vertex 6.500000e+00 3.500000e+01 3.735173e-15
         vertex 6.904529e+00 3.500000e+01 -1.152162e+00
      endloop
   endfacet
   facet normal -0.000000e+00 1.000000e+00 0.000000e+00
      outer loop
         vertex 6.904529e+00 3.500000e+01 -1.152162e+00
         vertex 6.500000e+00 3.500000e+01 3.735173e-15
         vertex 6.904529e+00 3.500000e+01 1.152162e+00
      endloop
   endfacet
   facet normal 0.000000e+00 1.000000e+00 0.000000e+00
      outer loop
         vertex 6.500000e+00 3.500000e+01 3.735173e-15
         vertex 6.108002e+00 3.500000e+01 2.223131e+00
         vertex 6.904529e+00 3.500000e+01 1.152162e+00
      endloop
   endfacet
   facet normal -0.000000e+00 1.000000e+00 0.000000e+00
      outer loop
         vertex 6.904529e+00 3.500000e+01 1.152162e+00
         vertex 6.108002e+00 3.500000e+01 2.223131e+00
         vertex 6.156316e+00 3.500000e+01 3.331632e+00
      endloop
   endfacet
   facet normal 0.000000e+00 1.000000e+00 0.000000e+00
      outer loop
         vertex 6.108002e+00 3.500000e+01 2.223131e+00
         vertex 4.979289e+00 3.500000e+01 4.178120e+00
         vertex 6.156316e+00 3.500000e+01 3.331632e+00
      endloop
   endfacet
   facet normal -0.000000e+00 1.000000e+00 -0.000000e+00
      outer loop
         vertex 6.156316e+00 3.500000e+01 3.331632e+00
         vertex 4.979289e+00 3.500000e+01 4.178120e+00
         vertex 4.740971e+00 3.500000e+01 5.150067e+00
      endloop
   endfacet
   facet normal 0.000000e+00 1.000000e+00 0.000000e+00
      outer loop
         vertex 4.979289e+00 3.500000e+01 4.178120e+00
         vertex 3.250000e+00 3.500000e+01 5.629165e+00
         vertex 4.740971e+00 3.500000e+01 5.150067e+00
      endloop
   endfacet
   facet normal -0.000000e+00 1.000000e+00 -0.000000e+00
      outer loop
         vertex 4.740971e+00 3.500000e+01 5.150067e+00
         vertex 3.250000e+00 3.500000e+01 5.629165e+00
         vertex 2.811868e+00 3.500000e+01 6.410413e+00
      endloop
   endfacet
   facet normal -0.000000e+00 1.000000e+00 0.000000e+00
      outer loop
         vertex 3.250000e+00 3.500000e+01 5.629165e+00
         vertex 1.128713e+00 3.500000e+01 6.401250e+00
         vertex 2.811868e+00 3.500000e+01 6.410413e+00
      endloop
   endfacet
   facet normal 0.000000e+00 1.000000e+00 -0.000000e+00
      outer loop
         vertex 2.811868e+00 3.500000e+01 6.410413e+00
         vertex 1.128713e+00 3.500000e+01 6.401250e+00
         vertex 5.780554e-01 3.500000e+01 6.976091e+00
      endloop
   endfacet
   facet normal 0.000000e+00 1.000000e+00 0.000000e+00
      outer loop
         vertex 1.128713e+00 3.500000e+01 6.401250e+00
         vertex -1.128713e+00 3.500000e+01 6.401250e+00
         vertex 5.780554e-01 3.500000e+01 6.976091e+00
      endloop
   endfacet
   facet normal 0.000000e+00 1.000000e+00 -0.000000e+00
      outer loop
         vertex 5.780554e-01 3.500000e+01 6.976091e+00
         vertex -1.128713e+00 3.500000e+01 6.401250e+00
         vertex -1.718398e+00 3.500000e+01 6.785802e+00
      endloop
   endfacet
   facet normal 0.000000e+00 1.000000e+00 0.000000e+00
      outer loop
         vertex -1.128713e+00 3.500000e+01 6.401250e+00
         vertex -3.250000e+00 3.500000e+01 5.629165e+00
         vertex -1.718398e+00 3.500000e+01 6.785802e+00
      endloop
   endfacet
   facet normal 0.000000e+00 1.000000e+00 -0.000000e+00
      outer loop
         vertex -1.718398e+00 3.500000e+01 6.785802e+00
         vertex -3.250000e+00 3.500000e+01 5.629165e+00
         vertex -3.828637e+00 3.500000e+01 5.860165e+00
      endloop
   endfacet
   facet normal 0.000000e+00 1.000000e+00 0.000000e+00
      outer loop
         vertex -3.250000e+00 3.500000e+01 5.629165e+00
         vertex -4.979289e+00 3.500000e+01 4.178120e+00
         vertex -3.828637e+00 3.500000e+01 5.860165e+00
      endloop
   endfacet
   facet normal 0.000000e+00 1.000000e+00 -0.000000e+00
      outer loop
         vertex -3.828637e+00 3.500000e+01 5.860165e+00
         vertex -4.979289e+00 3.500000e+01 4.178120e+00
         vertex -5.523983e+00 3.500000e+01 4.299489e+00
      endloop
   endfacet
   facet normal 0.000000e+00 1.000000e+00 0.000000e+00
      outer loop
         vertex -4.979289e+00 3.500000e+01 4.178120e+00
         vertex -6.108002e+00 3.500000e+01 2.223131e+00
         vertex -5.523983e+00 3.500000e+01 4.299489e+00
      endloop
   endfacet
   facet normal 0.000000e+00 1.000000e+00 -0.000000e+00
      outer loop
         vertex -5.523983e+00 3.500000e+01 4.299489e+00
         vertex -6.108002e+00 3.500000e+01 2.223131e+00
         vertex -6.620721e+00 3.500000e+01 2.272896e+00
      endloop
   endfacet
   facet normal 0.000000e+00 1.000000e+00 -0.000000e+00
      outer loop
         vertex -6.108002e+00 3.500000e+01 2.223131e+00
         vertex -6.500000e+00 3.500000e+01 1.347111e-15
         vertex -6.620721e+00 3.500000e+01 2.272896e+00
      endloop
   endfacet
   facet normal 0.000000e+00 1.000000e+00 0.000000e+00
      outer loop
         vertex -6.620721e+00 3.500000e+01 2.272896e+00
         vertex -6.500000e+00 3.500000e+01 1.347111e-15
         vertex -7.000000e+00 3.500000e+01 1.285879e-15
      endloop
   endfacet
   facet normal 0.000000e+00 1.000000e+00 -0.000000e+00
      outer loop
         vertex -4.979289e+00 3.500000e+01 -4.178120e+00
         vertex -5.523983e+00 3.500000e+01 -4.299489e+00
         vertex -6.108002e+00 3.500000e+01 -2.223131e+00
      endloop
   endfacet
   facet normal -0.000000e+00 1.000000e+00 0.000000e+00
      outer loop
         vertex -6.108002e+00 3.500000e+01 -2.223131e+00
         vertex -7.000000e+00 3.500000e+01 1.285879e-15
         vertex -6.500000e+00 3.500000e+01 1.347111e-15
      endloop
   endfacet
   facet normal 2.311531e-24 -1.000000e+00 -6.123234e-17
      outer loop
         vertex -3.603875e+00 -1.062709e-16 1.735535e+00
         vertex -4.000000e+00 2.999520e-32 -4.898587e-16
         vertex -2.493959e+00 -1.914935e-16 3.127326e+00
      endloop
   endfacet
   facet normal 8.249756e-25 -1.000000e+00 -6.123234e-17
      outer loop
         vertex -4.000000e+00 2.999520e-32 -4.898587e-16
         vertex -3.603875e+00 1.062709e-16 -1.735535e+00
         vertex -2.493959e+00 -1.914935e-16 3.127326e+00
      endloop
   endfacet
   facet normal 4.436100e-24 -1.000000e+00 -6.123234e-17
      outer loop
         vertex -2.493959e+00 -1.914935e-16 3.127326e+00
         vertex -3.603875e+00 1.062709e-16 -1.735535e+00
         vertex -8.900837e-01 -2.387885e-16 3.899712e+00
      endloop
   endfacet
   facet normal 1.443268e-25 -1.000000e+00 -6.123234e-17
      outer loop
         vertex -3.603875e+00 1.062709e-16 -1.735535e+00
         vertex -2.493959e+00 1.914935e-16 -3.127326e+00
         vertex -8.900837e-01 -2.387885e-16 3.899712e+00
      endloop
   endfacet
   facet normal 0.000000e+00 -1.000000e+00 9.831548e-16
      outer loop
         vertex -8.900837e-01 -2.387885e-16 3.899712e+00
         vertex -1.409539e+00 -3.568421e-15 5.130302e-01
         vertex 8.900837e-01 -2.387885e-16 3.899712e+00
      endloop
   endfacet
   facet normal -6.332892e-15 -1.000000e+00 5.283312e-15
      outer loop
         vertex -1.409539e+00 -3.568421e-15 5.130302e-01
         vertex -7.500000e-01 -3.592485e-15 1.299038e+00
         vertex 8.900837e-01 -2.387885e-16 3.899712e+00
      endloop
   endfacet
   facet normal 4.989664e-16 -1.000000e+00 9.748821e-16
      outer loop
         vertex 8.900837e-01 -2.387885e-16 3.899712e+00
         vertex -7.500000e-01 -3.592485e-15 1.299038e+00
         vertex 2.493959e+00 -1.914935e-16 3.127326e+00
      endloop
   endfacet
   facet normal 4.631501e-15 -1.000000e+00 -6.357538e-15
      outer loop
         vertex -7.500000e-01 -3.592485e-15 1.299038e+00
         vertex 2.604723e-01 -4.522656e-17 1.477212e+00
         vertex 2.493959e+00 -1.914935e-16 3.127326e+00
      endloop
   endfacet
   facet normal -1.274200e-17 -1.000000e+00 -7.139374e-17
      outer loop
         vertex 2.493959e+00 -1.914935e-16 3.127326e+00
         vertex 2.604723e-01 -4.522656e-17 1.477212e+00
         vertex 3.603875e+00 -1.062709e-16 1.735535e+00
      endloop
   endfacet
   facet normal -1.401682e-17 -1.000000e+00 -5.489403e-17
      outer loop
         vertex 2.604723e-01 -4.522656e-17 1.477212e+00
         vertex 1.149067e+00 -2.951954e-17 9.641814e-01
         vertex 3.603875e+00 -1.062709e-16 1.735535e+00
      endloop
   endfacet
   facet normal -1.122047e-17 -1.000000e+00 -6.379334e-17
      outer loop
         vertex 3.603875e+00 -1.062709e-16 1.735535e+00
         vertex 1.149067e+00 -2.951954e-17 9.641814e-01
         vertex 4.000000e+00 -5.999039e-32 9.797175e-16
      endloop
   endfacet
   facet normal -9.748438e-33 -1.000000e+00 -3.061617e-17
      outer loop
         vertex 1.149067e+00 -2.951954e-17 9.641814e-01
         vertex 1.500000e+00 0.000000e+00 -1.836970e-16
         vertex 4.000000e+00 -5.999039e-32 9.797175e-16
      endloop
   endfacet
   facet normal 4.499281e-33 -1.000000e+00 -6.123234e-17
      outer loop
         vertex 4.000000e+00 -5.999039e-32 9.797175e-16
         vertex 1.500000e+00 0.000000e+00 -1.836970e-16
         vertex 3.603875e+00 1.062709e-16 -1.735535e+00
      endloop
   endfacet
   facet normal 1.942398e-17 -1.000000e+00 -3.768592e-17
      outer loop
         vertex 1.500000e+00 0.000000e+00 -1.836970e-16
         vertex 1.149067e+00 2.951954e-17 -9.641814e-01
         vertex 3.603875e+00 1.062709e-16 -1.735535e+00
      endloop
   endfacet
   facet normal 9.615667e-18 -1.000000e+00 -6.890058e-17
      outer loop
         vertex 3.603875e+00 1.062709e-16 -1.735535e+00
         vertex 1.149067e+00 2.951954e-17 -9.641814e-01
         vertex 2.493959e+00 1.914935e-16 -3.127326e+00
      endloop
   endfacet
   facet normal 1.880496e-17 -1.000000e+00 -6.318732e-17
      outer loop
         vertex 1.149067e+00 2.951954e-17 -9.641814e-01
         vertex 2.604723e-01 4.522656e-17 -1.477212e+00
         vertex 2.493959e+00 1.914935e-16 -3.127326e+00
      endloop
   endfacet
   facet normal 7.990581e-18 -1.000000e+00 -7.782495e-17
      outer loop
         vertex 2.493959e+00 1.914935e-16 -3.127326e+00
         vertex 2.604723e-01 4.522656e-17 -1.477212e+00
         vertex 8.900837e-01 2.387885e-16 -3.899712e+00
      endloop
   endfacet
   facet normal 3.675650e-15 -1.000000e+00 8.754054e-16
      outer loop
         vertex 2.604723e-01 4.522656e-17 -1.477212e+00
         vertex -7.500000e-01 -3.512942e-15 -1.299038e+00
         vertex 8.900837e-01 2.387885e-16 -3.899712e+00
      endloop
   endfacet
   facet normal 0.000000e+00 -1.000000e+00 -1.442600e-15
      outer loop
         vertex 8.900837e-01 2.387885e-16 -3.899712e+00
         vertex -7.500000e-01 -3.512942e-15 -1.299038e+00
         vertex -8.900837e-01 2.387885e-16 -3.899712e+00
      endloop
   endfacet
   facet normal -1.581232e-15 -1.000000e+00 -1.357427e-15
      outer loop
         vertex -7.500000e-01 -3.512942e-15 -1.299038e+00
         vertex -1.409539e+00 -3.537007e-15 -5.130302e-01
         vertex -8.900837e-01 2.387885e-16 -3.899712e+00
      endloop
   endfacet
   facet normal -5.478868e-16 -1.000000e+00 -1.198931e-15
      outer loop
         vertex -8.900837e-01 2.387885e-16 -3.899712e+00
         vertex -1.409539e+00 -3.537007e-15 -5.130302e-01
         vertex -2.493959e+00 1.914935e-16 -3.127326e+00
      endloop
   endfacet
   facet normal -3.364435e-15 -1.000000e+00 -3.061604e-17
      outer loop
         vertex -1.409539e+00 -3.537007e-15 -5.130302e-01
         vertex -1.409539e+00 -3.568421e-15 5.130302e-01
         vertex -2.493959e+00 1.914935e-16 -3.127326e+00
      endloop
   endfacet
   facet normal -1.395089e-14 -1.000000e+00 3.122968e-15
      outer loop
         vertex -2.493959e+00 1.914935e-16 -3.127326e+00
         vertex -1.409539e+00 -3.568421e-15 5.130302e-01
         vertex -8.900837e-01 -2.387885e-16 3.899712e+00
      endloop
   endfacet
   facet normal 9.848078e-01 0.000000e+00 -1.736481e-01
      outer loop
         vertex -6.108002e+00 3.500000e+01 2.223131e+00
         vertex -6.108002e+00 1.200000e+01 2.223131e+00
         vertex -6.500000e+00 1.200000e+01 -6.123234e-17
      endloop
   endfacet
   facet normal 9.848078e-01 1.069150e-17 -1.736481e-01
      outer loop
         vertex -6.500000e+00 3.500000e+01 1.347111e-15
         vertex -6.108002e+00 3.500000e+01 2.223131e+00
         vertex -6.500000e+00 1.200000e+01 -6.123234e-17
      endloop
   endfacet
   facet normal 8.660254e-01 0.000000e+00 -5.000000e-01
      outer loop
         vertex -4.979289e+00 3.500000e+01 4.178120e+00
         vertex -4.979289e+00 1.200000e+01 4.178120e+00
         vertex -6.108002e+00 1.200000e+01 2.223131e+00
      endloop
   endfacet
   facet normal 8.660254e-01 0.000000e+00 -5.000000e-01
      outer loop
         vertex -6.108002e+00 3.500000e+01 2.223131e+00
         vertex -4.979289e+00 3.500000e+01 4.178120e+00
         vertex -6.108002e+00 1.200000e+01 2.223131e+00
      endloop
   endfacet
   facet normal 6.427875e-01 0.000000e+00 -7.660445e-01
      outer loop
         vertex -3.250000e+00 3.500000e+01 5.629165e+00
         vertex -3.250000e+00 1.200000e+01 5.629165e+00
         vertex -4.979289e+00 1.200000e+01 4.178120e+00
      endloop
   endfacet
   facet normal 6.427875e-01 0.000000e+00 -7.660445e-01
      outer loop
         vertex -4.979289e+00 3.500000e+01 4.178120e+00
         vertex -3.250000e+00 3.500000e+01 5.629165e+00
         vertex -4.979289e+00 1.200000e+01 4.178120e+00
      endloop
   endfacet
   facet normal 3.420201e-01 0.000000e+00 -9.396926e-01
      outer loop
         vertex -1.128713e+00 3.500000e+01 6.401250e+00
         vertex -1.128713e+00 1.200000e+01 6.401250e+00
         vertex -3.250000e+00 1.200000e+01 5.629165e+00
      endloop
   endfacet
   facet normal 3.420201e-01 0.000000e+00 -9.396926e-01
      outer loop
         vertex -3.250000e+00 3.500000e+01 5.629165e+00
         vertex -1.128713e+00 3.500000e+01 6.401250e+00
         vertex -3.250000e+00 1.200000e+01 5.629165e+00
      endloop
   endfacet
   facet normal 0.000000e+00 0.000000e+00 -1.000000e+00
      outer loop
         vertex 1.128713e+00 3.500000e+01 6.401250e+00
         vertex 1.128713e+00 1.200000e+01 6.401250e+00
         vertex -1.128713e+00 1.200000e+01 6.401250e+00
      endloop
   endfacet
   facet normal -0.000000e+00 0.000000e+00 -1.000000e+00
      outer loop
         vertex -1.128713e+00 3.500000e+01 6.401250e+00
         vertex 1.128713e+00 3.500000e+01 6.401250e+00
         vertex -1.128713e+00 1.200000e+01 6.401250e+00
      endloop
   endfacet
   facet normal -3.420201e-01 0.000000e+00 -9.396926e-01
      outer loop
         vertex 3.250000e+00 3.500000e+01 5.629165e+00
         vertex 3.250000e+00 1.200000e+01 5.629165e+00
         vertex 1.128713e+00 1.200000e+01 6.401250e+00
      endloop
   endfacet
   facet normal -3.420201e-01 0.000000e+00 -9.396926e-01
      outer loop
         vertex 1.128713e+00 3.500000e+01 6.401250e+00
         vertex 3.250000e+00 3.500000e+01 5.629165e+00
         vertex 1.128713e+00 1.200000e+01 6.401250e+00
      endloop
   endfacet
   facet normal -6.427875e-01 0.000000e+00 -7.660445e-01
      outer loop
         vertex 4.979289e+00 3.500000e+01 4.178120e+00
         vertex 4.979289e+00 1.200000e+01 4.178120e+00
         vertex 3.250000e+00 1.200000e+01 5.629165e+00
      endloop
   endfacet
   facet normal -6.427875e-01 0.000000e+00 -7.660445e-01
      outer loop
         vertex 3.250000e+00 3.500000e+01 5.629165e+00
         vertex 4.979289e+00 3.500000e+01 4.178120e+00
         vertex 3.250000e+00 1.200000e+01 5.629165e+00
      endloop
   endfacet
   facet normal -8.660254e-01 0.000000e+00 -5.000000e-01
      outer loop
         vertex 6.108002e+00 3.500000e+01 2.223131e+00
         vertex 6.108002e+00 1.200000e+01 2.223131e+00
         vertex 4.979289e+00 1.200000e+01 4.178120e+00
      endloop
   endfacet
   facet normal -8.660254e-01 0.000000e+00 -5.000000e-01
      outer loop
         vertex 4.979289e+00 3.500000e+01 4.178120e+00
         vertex 6.108002e+00 3.500000e+01 2.223131e+00
         vertex 4.979289e+00 1.200000e+01 4.178120e+00
      endloop
   endfacet
   facet normal -9.848078e-01 1.063288e-17 -1.736481e-01
      outer loop
         vertex 6.500000e+00 3.500000e+01 3.735173e-15
         vertex 6.500000e+00 1.200000e+01 2.326829e-15
         vertex 6.108002e+00 1.200000e+01 2.223131e+00
      endloop
   endfacet
   facet normal -9.848078e-01 0.000000e+00 -1.736481e-01
      outer loop
         vertex 6.108002e+00 3.500000e+01 2.223131e+00
         vertex 6.500000e+00 3.500000e+01 3.735173e-15
         vertex 6.108002e+00 1.200000e+01 2.223131e+00
      endloop
   endfacet
   facet normal -9.848078e-01 0.000000e+00 1.736481e-01
      outer loop
         vertex 6.108002e+00 3.500000e+01 -2.223131e+00
         vertex 6.108002e+00 1.200000e+01 -2.223131e+00
         vertex 6.500000e+00 1.200000e+01 2.326829e-15
      endloop
   endfacet
   facet normal -9.848078e-01 -1.069150e-17 1.736481e-01
      outer loop
         vertex 6.500000e+00 3.500000e+01 3.735173e-15
         vertex 6.108002e+00 3.500000e+01 -2.223131e+00
         vertex 6.500000e+00 1.200000e+01 2.326829e-15
      endloop
   endfacet
   facet normal -8.660254e-01 0.000000e+00 5.000000e-01
      outer loop
         vertex 4.979289e+00 3.500000e+01 -4.178120e+00
         vertex 4.979289e+00 1.200000e+01 -4.178120e+00
         vertex 6.108002e+00 1.200000e+01 -2.223131e+00
      endloop
   endfacet
   facet normal -8.660254e-01 0.000000e+00 5.000000e-01
      outer loop
         vertex 6.108002e+00 3.500000e+01 -2.223131e+00
         vertex 4.979289e+00 3.500000e+01 -4.178120e+00
         vertex 6.108002e+00 1.200000e+01 -2.223131e+00
      endloop
   endfacet
   facet normal -6.427875e-01 0.000000e+00 7.660445e-01
      outer loop
         vertex 3.250000e+00 3.500000e+01 -5.629165e+00
         vertex 3.250000e+00 1.200000e+01 -5.629165e+00
         vertex 4.979289e+00 1.200000e+01 -4.178120e+00
      endloop
   endfacet
   facet normal -6.427875e-01 0.000000e+00 7.660445e-01
      outer loop
         vertex 4.979289e+00 3.500000e+01 -4.178120e+00
         vertex 3.250000e+00 3.500000e+01 -5.629165e+00
         vertex 4.979289e+00 1.200000e+01 -4.178120e+00
      endloop
   endfacet
   facet normal -3.420201e-01 0.000000e+00 9.396926e-01
      outer loop
         vertex 1.128713e+00 3.500000e+01 -6.401250e+00
         vertex 1.128713e+00 1.200000e+01 -6.401250e+00
         vertex 3.250000e+00 1.200000e+01 -5.629165e+00
      endloop
   endfacet
   facet normal -3.420201e-01 0.000000e+00 9.396926e-01
      outer loop
         vertex 3.250000e+00 3.500000e+01 -5.629165e+00
         vertex 1.128713e+00 3.500000e+01 -6.401250e+00
         vertex 3.250000e+00 1.200000e+01 -5.629165e+00
      endloop
   endfacet
   facet normal 0.000000e+00 0.000000e+00 1.000000e+00
      outer loop
         vertex -1.128713e+00 3.500000e+01 -6.401250e+00
         vertex -1.128713e+00 1.200000e+01 -6.401250e+00
         vertex 1.128713e+00 1.200000e+01 -6.401250e+00
      endloop
   endfacet
   facet normal -0.000000e+00 0.000000e+00 1.000000e+00
      outer loop
         vertex 1.128713e+00 3.500000e+01 -6.401250e+00
         vertex -1.128713e+00 3.500000e+01 -6.401250e+00
         vertex 1.128713e+00 1.200000e+01 -6.401250e+00
      endloop
   endfacet
   facet normal 3.420201e-01 -0.000000e+00 9.396926e-01
      outer loop
         vertex -3.250000e+00 3.500000e+01 -5.629165e+00
         vertex -3.250000e+00 1.200000e+01 -5.629165e+00
         vertex -1.128713e+00 1.200000e+01 -6.401250e+00
      endloop
   endfacet
   facet normal 3.420201e-01 0.000000e+00 9.396926e-01
      outer loop
         vertex -1.128713e+00 3.500000e+01 -6.401250e+00
         vertex -3.250000e+00 3.500000e+01 -5.629165e+00
         vertex -1.128713e+00 1.200000e+01 -6.401250e+00
      endloop
   endfacet
   facet normal 6.427875e-01 -0.000000e+00 7.660445e-01
      outer loop
         vertex -4.979289e+00 3.500000e+01 -4.178120e+00
         vertex -4.979289e+00 1.200000e+01 -4.178120e+00
         vertex -3.250000e+00 1.200000e+01 -5.629165e+00
      endloop
   endfacet
   facet normal 6.427875e-01 0.000000e+00 7.660445e-01
      outer loop
         vertex -3.250000e+00 3.500000e+01 -5.629165e+00
         vertex -4.979289e+00 3.500000e+01 -4.178120e+00
         vertex -3.250000e+00 1.200000e+01 -5.629165e+00
      endloop
   endfacet
   facet normal 8.660254e-01 -0.000000e+00 5.000000e-01
      outer loop
         vertex -6.108002e+00 3.500000e+01 -2.223131e+00
         vertex -6.108002e+00 1.200000e+01 -2.223131e+00
         vertex -4.979289e+00 1.200000e+01 -4.178120e+00
      endloop
   endfacet
   facet normal 8.660254e-01 0.000000e+00 5.000000e-01
      outer loop
         vertex -4.979289e+00 3.500000e+01 -4.178120e+00
         vertex -6.108002e+00 3.500000e+01 -2.223131e+00
         vertex -4.979289e+00 1.200000e+01 -4.178120e+00
      endloop
   endfacet
   facet normal 9.848078e-01 -1.063288e-17 1.736481e-01
      outer loop
         vertex -6.500000e+00 3.500000e+01 -2.449294e-16
         vertex -6.500000e+00 1.200000e+01 -1.653273e-15
         vertex -6.108002e+00 1.200000e+01 -2.223131e+00
      endloop
   endfacet
   facet normal 9.848078e-01 0.000000e+00 1.736481e-01
      outer loop
         vertex -6.108002e+00 3.500000e+01 -2.223131e+00
         vertex -6.500000e+00 3.500000e+01 -2.449294e-16
         vertex -6.108002e+00 1.200000e+01 -2.223131e+00
      endloop
   endfacet
   facet normal -9.396926e-01 -0.000000e+00 -3.420201e-01
      outer loop
         vertex 1.149067e+00 0.000000e+00 9.641814e-01
         vertex 1.149067e+00 1.200000e+01 9.641814e-01
         vertex 1.500000e+00 1.200000e+01 7.347881e-16
      endloop
   endfacet
   facet normal -9.396926e-01 2.254219e-17 -3.420201e-01
      outer loop
         vertex 1.500000e+00 0.000000e+00 0.000000e+00
         vertex 1.149067e+00 0.000000e+00 9.641814e-01
         vertex 1.500000e+00 1.200000e+01 7.347881e-16
      endloop
   endfacet
   facet normal -5.000000e-01 -0.000000e+00 -8.660254e-01
      outer loop
         vertex 2.604723e-01 0.000000e+00 1.477212e+00
         vertex 2.604723e-01 1.200000e+01 1.477212e+00
         vertex 1.149067e+00 1.200000e+01 9.641814e-01
      endloop
   endfacet
   facet normal -5.000000e-01 0.000000e+00 -8.660254e-01
      outer loop
         vertex 1.149067e+00 0.000000e+00 9.641814e-01
         vertex 2.604723e-01 0.000000e+00 1.477212e+00
         vertex 1.149067e+00 1.200000e+01 9.641814e-01
      endloop
   endfacet
   facet normal 1.736482e-01 0.000000e+00 -9.848078e-01
      outer loop
         vertex -7.500000e-01 0.000000e+00 1.299038e+00
         vertex -7.500000e-01 1.200000e+01 1.299038e+00
         vertex 2.604723e-01 1.200000e+01 1.477212e+00
      endloop
   endfacet
   facet normal 1.736482e-01 0.000000e+00 -9.848078e-01
      outer loop
         vertex 2.604723e-01 0.000000e+00 1.477212e+00
         vertex -7.500000e-01 0.000000e+00 1.299038e+00
         vertex 2.604723e-01 1.200000e+01 1.477212e+00
      endloop
   endfacet
   facet normal 7.660444e-01 0.000000e+00 -6.427877e-01
      outer loop
         vertex -1.409539e+00 0.000000e+00 5.130302e-01
         vertex -1.409539e+00 1.200000e+01 5.130302e-01
         vertex -7.500000e-01 1.200000e+01 1.299038e+00
      endloop
   endfacet
   facet normal 7.660444e-01 0.000000e+00 -6.427877e-01
      outer loop
         vertex -7.500000e-01 0.000000e+00 1.299038e+00
         vertex -1.409539e+00 0.000000e+00 5.130302e-01
         vertex -7.500000e-01 1.200000e+01 1.299038e+00
      endloop
   endfacet
   facet normal 1.000000e+00 0.000000e+00 -0.000000e+00
      outer loop
         vertex -1.409539e+00 0.000000e+00 -5.130302e-01
         vertex -1.409539e+00 1.200000e+01 -5.130302e-01
         vertex -1.409539e+00 1.200000e+01 5.130302e-01
      endloop
   endfacet
   facet normal 1.000000e+00 0.000000e+00 0.000000e+00
      outer loop
         vertex -1.409539e+00 0.000000e+00 5.130302e-01
         vertex -1.409539e+00 0.000000e+00 -5.130302e-01
         vertex -1.409539e+00 1.200000e+01 5.130302e-01
      endloop
   endfacet
   facet normal 7.660444e-01 0.000000e+00 6.427877e-01
      outer loop
         vertex -7.500000e-01 0.000000e+00 -1.299038e+00
         vertex -7.500000e-01 1.200000e+01 -1.299038e+00
         vertex -1.409539e+00 1.200000e+01 -5.130302e-01
      endloop
   endfacet
   facet normal 7.660444e-01 0.000000e+00 6.427877e-01
      outer loop
         vertex -1.409539e+00 0.000000e+00 -5.130302e-01
         vertex -7.500000e-01 0.000000e+00 -1.299038e+00
         vertex -1.409539e+00 1.200000e+01 -5.130302e-01
      endloop
   endfacet
   facet normal 1.736482e-01 0.000000e+00 9.848078e-01
      outer loop
         vertex 2.604723e-01 0.000000e+00 -1.477212e+00
         vertex 2.604723e-01 1.200000e+01 -1.477212e+00
         vertex -7.500000e-01 1.200000e+01 -1.299038e+00
      endloop
   endfacet
   facet normal 1.736482e-01 0.000000e+00 9.848078e-01
      outer loop
         vertex -7.500000e-01 0.000000e+00 -1.299038e+00
         vertex 2.604723e-01 0.000000e+00 -1.477212e+00
         vertex -7.500000e-01 1.200000e+01 -1.299038e+00
      endloop
   endfacet
   facet normal -5.000000e-01 0.000000e+00 8.660254e-01
      outer loop
         vertex 1.149067e+00 0.000000e+00 -9.641814e-01
         vertex 1.149067e+00 1.200000e+01 -9.641814e-01
         vertex 2.604723e-01 1.200000e+01 -1.477212e+00
      endloop
   endfacet
   facet normal -5.000000e-01 0.000000e+00 8.660254e-01
      outer loop
         vertex 2.604723e-01 0.000000e+00 -1.477212e+00
         vertex 1.149067e+00 0.000000e+00 -9.641814e-01
         vertex 2.604723e-01 1.200000e+01 -1.477212e+00
      endloop
   endfacet
   facet normal -9.396926e-01 -2.094269e-17 3.420201e-01
      outer loop
         vertex 1.500000e+00 0.000000e+00 -3.673940e-16
         vertex 1.500000e+00 1.200000e+01 3.673940e-16
         vertex 1.149067e+00 1.200000e+01 -9.641814e-01
      endloop
   endfacet
   facet normal -9.396926e-01 0.000000e+00 3.420201e-01
      outer loop
         vertex 1.149067e+00 0.000000e+00 -9.641814e-01
         vertex 1.500000e+00 0.000000e+00 -3.673940e-16
         vertex 1.149067e+00 1.200000e+01 -9.641814e-01
      endloop
   endfacet
   facet normal 0.000000e+00 1.000000e+00 0.000000e+00
      outer loop
         vertex -6.108002e+00 1.200000e+01 -2.223131e+00
         vertex -6.500000e+00 1.200000e+01 -6.123234e-17
         vertex -4.979289e+00 1.200000e+01 -4.178120e+00
      endloop
   endfacet
   facet normal 0.000000e+00 1.000000e+00 0.000000e+00
      outer loop
         vertex -6.500000e+00 1.200000e+01 -6.123234e-17
         vertex -6.108002e+00 1.200000e+01 2.223131e+00
         vertex -4.979289e+00 1.200000e+01 -4.178120e+00
      endloop
   endfacet
   facet normal 0.000000e+00 1.000000e+00 0.000000e+00
      outer loop
         vertex -4.979289e+00 1.200000e+01 -4.178120e+00
         vertex -6.108002e+00 1.200000e+01 2.223131e+00
         vertex -3.250000e+00 1.200000e+01 -5.629165e+00
      endloop
   endfacet
   facet normal 0.000000e+00 1.000000e+00 0.000000e+00
      outer loop
         vertex -6.108002e+00 1.200000e+01 2.223131e+00
         vertex -4.979289e+00 1.200000e+01 4.178120e+00
         vertex -3.250000e+00 1.200000e+01 -5.629165e+00
      endloop
   endfacet
   facet normal 0.000000e+00 1.000000e+00 0.000000e+00
      outer loop
         vertex -3.250000e+00 1.200000e+01 -5.629165e+00
         vertex -4.979289e+00 1.200000e+01 4.178120e+00
         vertex -1.128713e+00 1.200000e+01 -6.401250e+00
      endloop
   endfacet
   facet normal 0.000000e+00 1.000000e+00 0.000000e+00
      outer loop
         vertex -4.979289e+00 1.200000e+01 4.178120e+00
         vertex -3.250000e+00 1.200000e+01 5.629165e+00
         vertex -1.128713e+00 1.200000e+01 -6.401250e+00
      endloop
   endfacet
   facet normal 0.000000e+00 1.000000e+00 0.000000e+00
      outer loop
         vertex -1.128713e+00 1.200000e+01 -6.401250e+00
         vertex -1.409539e+00 1.200000e+01 -5.130302e-01
         vertex 1.128713e+00 1.200000e+01 -6.401250e+00
      endloop
   endfacet
   facet normal 0.000000e+00 1.000000e+00 0.000000e+00
      outer loop
         vertex -1.409539e+00 1.200000e+01 -5.130302e-01
         vertex -7.500000e-01 1.200000e+01 -1.299038e+00
         vertex 1.128713e+00 1.200000e+01 -6.401250e+00
      endloop
   endfacet
   facet normal 0.000000e+00 1.000000e+00 0.000000e+00
      outer loop
         vertex 1.128713e+00 1.200000e+01 -6.401250e+00
         vertex -7.500000e-01 1.200000e+01 -1.299038e+00
         vertex 3.250000e+00 1.200000e+01 -5.629165e+00
      endloop
   endfacet
   facet normal 0.000000e+00 1.000000e+00 0.000000e+00
      outer loop
         vertex -7.500000e-01 1.200000e+01 -1.299038e+00
         vertex 2.604723e-01 1.200000e+01 -1.477212e+00
         vertex 3.250000e+00 1.200000e+01 -5.629165e+00
      endloop
   endfacet
   facet normal 0.000000e+00 1.000000e+00 0.000000e+00
      outer loop
         vertex 3.250000e+00 1.200000e+01 -5.629165e+00
         vertex 2.604723e-01 1.200000e+01 -1.477212e+00
         vertex 4.979289e+00 1.200000e+01 -4.178120e+00
      endloop
   endfacet
   facet normal 0.000000e+00 1.000000e+00 0.000000e+00
      outer loop
         vertex 2.604723e-01 1.200000e+01 -1.477212e+00
         vertex 1.149067e+00 1.200000e+01 -9.641814e-01
         vertex 4.979289e+00 1.200000e+01 -4.178120e+00
      endloop
   endfacet
   facet normal 0.000000e+00 1.000000e+00 0.000000e+00
      outer loop
         vertex 4.979289e+00 1.200000e+01 -4.178120e+00
         vertex 1.149067e+00 1.200000e+01 -9.641814e-01
         vertex 6.108002e+00 1.200000e+01 -2.223131e+00
      endloop
   endfacet
   facet normal 0.000000e+00 1.000000e+00 0.000000e+00
      outer loop
         vertex 1.149067e+00 1.200000e+01 -9.641814e-01
         vertex 1.500000e+00 1.200000e+01 5.510911e-16
         vertex 6.108002e+00 1.200000e+01 -2.223131e+00
      endloop
   endfacet
   facet normal -0.000000e+00 1.000000e+00 0.000000e+00
      outer loop
         vertex 6.108002e+00 1.200000e+01 -2.223131e+00
         vertex 1.500000e+00 1.200000e+01 5.510911e-16
         vertex 6.500000e+00 1.200000e+01 2.326829e-15
      endloop
   endfacet
   facet normal 0.000000e+00 1.000000e+00 0.000000e+00
      outer loop
         vertex 1.500000e+00 1.200000e+01 5.510911e-16
         vertex 1.149067e+00 1.200000e+01 9.641814e-01
         vertex 6.500000e+00 1.200000e+01 2.326829e-15
      endloop
   endfacet
   facet normal -0.000000e+00 1.000000e+00 0.000000e+00
      outer loop
         vertex 6.500000e+00 1.200000e+01 2.326829e-15
         vertex 1.149067e+00 1.200000e+01 9.641814e-01
         vertex 6.108002e+00 1.200000e+01 2.223131e+00
      endloop
   endfacet
   facet normal -0.000000e+00 1.000000e+00 0.000000e+00
      outer loop
         vertex 1.149067e+00 1.200000e+01 9.641814e-01
         vertex 2.604723e-01 1.200000e+01 1.477212e+00
         vertex 6.108002e+00 1.200000e+01 2.223131e+00
      endloop
   endfacet
   facet normal 0.000000e+00 1.000000e+00 0.000000e+00
      outer loop
         vertex 6.108002e+00 1.200000e+01 2.223131e+00
         vertex 2.604723e-01 1.200000e+01 1.477212e+00
         vertex 4.979289e+00 1.200000e+01 4.178120e+00
      endloop
   endfacet
   facet normal 0.000000e+00 1.000000e+00 0.000000e+00
      outer loop
         vertex 2.604723e-01 1.200000e+01 1.477212e+00
         vertex -7.500000e-01 1.200000e+01 1.299038e+00
         vertex 4.979289e+00 1.200000e+01 4.178120e+00
      endloop
   endfacet
   facet normal 0.000000e+00 1.000000e+00 0.000000e+00
      outer loop
         vertex 4.979289e+00 1.200000e+01 4.178120e+00
         vertex -7.500000e-01 1.200000e+01 1.299038e+00
         vertex 3.250000e+00 1.200000e+01 5.629165e+00
      endloop
   endfacet
   facet normal 0.000000e+00 1.000000e+00 0.000000e+00
      outer loop
         vertex -1.128713e+00 1.200000e+01 -6.401250e+00
         vertex -3.250000e+00 1.200000e+01 5.629165e+00
         vertex -1.409539e+00 1.200000e+01 -5.130302e-01
      endloop
   endfacet
   facet normal 0.000000e+00 1.000000e+00 0.000000e+00
      outer loop
         vertex -1.409539e+00 1.200000e+01 -5.130302e-01
         vertex -3.250000e+00 1.200000e+01 5.629165e+00
         vertex -1.409539e+00 1.200000e+01 5.130302e-01
      endloop
   endfacet
   facet normal 0.000000e+00 1.000000e+00 0.000000e+00
      outer loop
         vertex -3.250000e+00 1.200000e+01 5.629165e+00
         vertex -1.128713e+00 1.200000e+01 6.401250e+00
         vertex -1.409539e+00 1.200000e+01 5.130302e-01
      endloop
   endfacet
   facet normal 0.000000e+00 1.000000e+00 0.000000e+00
      outer loop
         vertex -1.409539e+00 1.200000e+01 5.130302e-01
         vertex -1.128713e+00 1.200000e+01 6.401250e+00
         vertex -7.500000e-01 1.200000e+01 1.299038e+00
      endloop
   endfacet
   facet normal 0.000000e+00 1.000000e+00 0.000000e+00
      outer loop
         vertex -1.128713e+00 1.200000e+01 6.401250e+00
         vertex 1.128713e+00 1.200000e+01 6.401250e+00
         vertex -7.500000e-01 1.200000e+01 1.299038e+00
      endloop
   endfacet
   facet normal 0.000000e+00 1.000000e+00 0.000000e+00
      outer loop
         vertex -7.500000e-01 1.200000e+01 1.299038e+00
         vertex 1.128713e+00 1.200000e+01 6.401250e+00
         vertex 3.250000e+00 1.200000e+01 5.629165e+00
      endloop
   endfacet
endsolid
