solid 
   facet normal 8.000747e-01 0.000000e+00 5.999004e-01
      outer loop
         vertex -2.100007e+02 -4.082992e-15 6.668032e+01
         vertex -1.773797e+02 5.000000e+00 2.317431e+01
         vertex -2.100007e+02 8.400000e+01 6.668032e+01
      endloop
   endfacet
   facet normal 8.000747e-01 0.000000e+00 5.999004e-01
      outer loop
         vertex -1.773797e+02 5.000000e+00 2.317431e+01
         vertex -1.773797e+02 7.900000e+01 2.317431e+01
         vertex -2.100007e+02 8.400000e+01 6.668032e+01
      endloop
   endfacet
   facet normal 8.000746e-01 -7.004588e-07 5.999005e-01
      outer loop
         vertex -2.100007e+02 8.400000e+01 6.668032e+01
         vertex -1.773797e+02 7.900000e+01 2.317431e+01
         vertex -1.630034e+02 8.400000e+01 4.000996e+00
      endloop
   endfacet
   facet normal 8.000744e-01 8.279274e-07 5.999008e-01
      outer loop
         vertex -1.773797e+02 7.900000e+01 2.317431e+01
         vertex -1.734818e+02 7.900000e+01 1.797574e+01
         vertex -1.630034e+02 8.400000e+01 4.000996e+00
      endloop
   endfacet
   facet normal 8.000746e-01 0.000000e+00 5.999006e-01
      outer loop
         vertex -1.630034e+02 8.400000e+01 4.000996e+00
         vertex -1.734818e+02 7.900000e+01 1.797574e+01
         vertex -1.630034e+02 -1.633269e-16 4.000996e+00
      endloop
   endfacet
   facet normal 8.000746e-01 -0.000000e+00 5.999006e-01
      outer loop
         vertex -1.734818e+02 7.900000e+01 1.797574e+01
         vertex -1.734818e+02 5.000000e+00 1.797574e+01
         vertex -1.630034e+02 -1.633269e-16 4.000996e+00
      endloop
   endfacet
   facet normal 8.000746e-01 2.860589e-07 5.999005e-01
      outer loop
         vertex -1.630034e+02 -1.633269e-16 4.000996e+00
         vertex -1.734818e+02 5.000000e+00 1.797574e+01
         vertex -2.100007e+02 -4.082992e-15 6.668032e+01
      endloop
   endfacet
   facet normal 8.000744e-01 4.168506e-06 5.999008e-01
      outer loop
         vertex -1.734818e+02 5.000000e+00 1.797574e+01
         vertex -1.773797e+02 5.000000e+00 2.317431e+01
         vertex -2.100007e+02 -4.082992e-15 6.668032e+01
      endloop
   endfacet
   facet normal 1.737634e-18 -1.000000e+00 -6.123233e-17
      outer loop
         vertex -2.100007e+02 -4.082992e-15 6.668032e+01
         vertex -2.100007e+02 -3.776966e-15 6.168253e+01
         vertex -1.630034e+02 -1.633269e-16 4.000996e+00
      endloop
   endfacet
   facet normal 8.824981e-18 -1.000000e+00 -5.545776e-17
      outer loop
         vertex -2.100007e+02 -3.776966e-15 6.168253e+01
         vertex -1.655724e+02 -1.000953e-16 2.452020e+00
         vertex -1.630034e+02 -1.633269e-16 4.000996e+00
      endloop
   endfacet
   facet normal 3.274405e-18 -1.000000e+00 -4.625215e-17
      outer loop
         vertex -1.630034e+02 -1.633269e-16 4.000996e+00
         vertex -1.655724e+02 -1.000953e-16 2.452020e+00
         vertex -1.607990e+02 -5.667765e-17 1.851232e+00
      endloop
   endfacet
   facet normal -2.342896e-16 -1.000000e+00 -1.933739e-15
      outer loop
         vertex -1.655724e+02 -1.000953e-16 2.452020e+00
         vertex -1.633642e+02 3.543521e-15 3.002424e-01
         vertex -1.607990e+02 -5.667765e-17 1.851232e+00
      endloop
   endfacet
   facet normal 7.912132e-17 -1.000000e+00 -2.452084e-15
      outer loop
         vertex -1.607990e+02 -5.667765e-17 1.851232e+00
         vertex -1.633642e+02 3.543521e-15 3.002424e-01
         vertex -1.580451e+02 3.538200e-15 4.740440e-01
      endloop
   endfacet
   facet normal -7.913385e-17 -1.000000e+00 2.391234e-15
      outer loop
         vertex -1.633642e+02 3.543521e-15 3.002424e-01
         vertex -1.606054e+02 3.296007e-17 -1.076558e+00
         vertex -1.580451e+02 3.538200e-15 4.740440e-01
      endloop
   endfacet
   facet normal -6.448362e-16 -1.000000e+00 3.325320e-15
      outer loop
         vertex -1.580451e+02 3.538200e-15 4.740440e-01
         vertex -1.606054e+02 3.296007e-17 -1.076558e+00
         vertex -1.550027e+02 7.686394e-31 -1.976033e-14
      endloop
   endfacet
   facet normal 2.872484e-18 -1.000000e+00 -4.556550e-17
      outer loop
         vertex -1.606054e+02 3.296007e-17 -1.076558e+00
         vertex -1.575584e+02 6.317123e-17 -1.547497e+00
         vertex -1.550027e+02 7.686394e-31 -1.976033e-14
      endloop
   endfacet
   facet normal -1.120040e-33 -1.000000e+00 -4.082156e-17
      outer loop
         vertex -1.550027e+02 7.686394e-31 -1.976033e-14
         vertex -1.575584e+02 6.317123e-17 -1.547497e+00
         vertex -5.662527e+00 -2.189724e-31 4.258720e-16
      endloop
   endfacet
   facet normal 1.123311e-17 -1.000000e+00 -1.143417e-15
      outer loop
         vertex -1.575584e+02 6.317123e-17 -1.547497e+00
         vertex -1.542950e+02 9.446986e-17 -1.542810e+00
         vertex -5.662527e+00 -2.189724e-31 4.258720e-16
      endloop
   endfacet
   facet normal -2.083138e-19 -1.000000e+00 -4.116363e-17
      outer loop
         vertex -1.542950e+02 9.446986e-17 -1.542810e+00
         vertex -3.129072e+00 6.297990e-17 -1.542810e+00
         vertex -5.662527e+00 -2.189724e-31 4.258720e-16
      endloop
   endfacet
   facet normal -3.967839e-18 -1.000000e+00 -4.733717e-17
      outer loop
         vertex -3.129072e+00 6.297990e-17 -1.542810e+00
         vertex -5.672457e-01 3.701782e-17 -1.209094e+00
         vertex -5.662527e+00 -2.189724e-31 4.258720e-16
      endloop
   endfacet
   facet normal 4.577542e-26 -1.000000e+00 -3.061617e-17
      outer loop
         vertex -5.662527e+00 -2.189724e-31 4.258720e-16
         vertex -5.672457e-01 3.701782e-17 -1.209094e+00
         vertex -3.114750e+00 -1.010344e-17 3.300035e-01
      endloop
   endfacet
   facet normal -3.812265e-26 -1.000000e+00 -3.061617e-17
      outer loop
         vertex -5.672457e-01 3.701782e-17 -1.209094e+00
         vertex 1.823596e+00 7.048434e-18 -2.302193e-01
         vertex -3.114750e+00 -1.010344e-17 3.300035e-01
      endloop
   endfacet
   facet normal -1.586869e-25 -1.000000e+00 -3.061617e-17
      outer loop
         vertex -3.114750e+00 -1.010344e-17 3.300035e-01
         vertex 1.823596e+00 7.048434e-18 -2.302193e-01
         vertex -7.351282e-01 -3.974694e-17 1.298234e+00
      endloop
   endfacet
   facet normal -3.707698e-25 -1.000000e+00 -3.061617e-17
      outer loop
         vertex 1.823596e+00 7.048434e-18 -2.302193e-01
         vertex 3.883881e+00 -4.067299e-17 1.328481e+00
         vertex -7.351282e-01 -3.974694e-17 1.298234e+00
      endloop
   endfacet
   facet normal -3.916485e-25 -1.000000e+00 -3.061617e-17
      outer loop
         vertex -7.351282e-01 -3.974694e-17 1.298234e+00
         vertex 3.883881e+00 -4.067299e-17 1.328481e+00
         vertex 1.319282e+00 -8.697399e-17 2.840786e+00
      endloop
   endfacet
   facet normal -6.806438e-18 -1.000000e+00 -4.215866e-17
      outer loop
         vertex 3.883881e+00 -4.067299e-17 1.328481e+00
         vertex 5.476099e+00 -1.372818e-16 3.362973e+00
         vertex 1.319282e+00 -8.697399e-17 2.840786e+00
      endloop
   endfacet
   facet normal -5.737007e-18 -1.000000e+00 -5.067175e-17
      outer loop
         vertex 1.319282e+00 -8.697399e-17 2.840786e+00
         vertex 5.476099e+00 -1.372818e-16 3.362973e+00
         vertex 2.912888e+00 -1.982234e-16 4.855852e+00
      endloop
   endfacet
   facet normal -9.349602e-18 -1.000000e+00 -5.687443e-17
      outer loop
         vertex 5.476099e+00 -1.372818e-16 3.362973e+00
         vertex 4.000000e+01 -3.776864e-15 6.168088e+01
         vertex 2.912888e+00 -1.982234e-16 4.855852e+00
      endloop
   endfacet
   facet normal -2.672273e-18 -1.000000e+00 -6.123242e-17
      outer loop
         vertex 2.912888e+00 -1.982234e-16 4.855852e+00
         vertex 4.000000e+01 -3.776864e-15 6.168088e+01
         vertex 4.000000e+01 -4.083030e-15 6.668093e+01
      endloop
   endfacet
   facet normal -5.999003e-01 0.000000e+00 8.000747e-01
      outer loop
         vertex -1.773797e+02 7.900000e+01 2.317431e+01
         vertex -1.773797e+02 5.000000e+00 2.317431e+01
         vertex -1.749784e+02 5.000000e+00 2.497481e+01
      endloop
   endfacet
   facet normal -5.999003e-01 0.000000e+00 8.000747e-01
      outer loop
         vertex -1.773797e+02 7.900000e+01 2.317431e+01
         vertex -1.749784e+02 5.000000e+00 2.497481e+01
         vertex -1.749784e+02 7.900000e+01 2.497481e+01
      endloop
   endfacet
   facet normal 8.000744e-01 -0.000000e+00 5.999008e-01
      outer loop
         vertex -1.749784e+02 7.900000e+01 2.497481e+01
         vertex -1.749784e+02 5.000000e+00 2.497481e+01
         vertex -1.710805e+02 5.000000e+00 1.977625e+01
      endloop
   endfacet
   facet normal 8.000744e-01 -0.000000e+00 5.999008e-01
      outer loop
         vertex -1.749784e+02 7.900000e+01 2.497481e+01
         vertex -1.710805e+02 5.000000e+00 1.977625e+01
         vertex -1.710805e+02 7.900000e+01 1.977625e+01
      endloop
   endfacet
   facet normal 5.999003e-01 0.000000e+00 -8.000747e-01
      outer loop
         vertex -1.710805e+02 7.900000e+01 1.977625e+01
         vertex -1.710805e+02 5.000000e+00 1.977625e+01
         vertex -1.734818e+02 5.000000e+00 1.797574e+01
      endloop
   endfacet
   facet normal 5.999003e-01 0.000000e+00 -8.000747e-01
      outer loop
         vertex -1.710805e+02 7.900000e+01 1.977625e+01
         vertex -1.734818e+02 5.000000e+00 1.797574e+01
         vertex -1.734818e+02 7.900000e+01 1.797574e+01
      endloop
   endfacet
   facet normal -0.000000e+00 -1.000000e+00 0.000000e+00
      outer loop
         vertex -1.734818e+02 5.000000e+00 1.797574e+01
         vertex -1.710805e+02 5.000000e+00 1.977625e+01
         vertex -1.749784e+02 5.000000e+00 2.497481e+01
      endloop
   endfacet
   facet normal 0.000000e+00 -1.000000e+00 -0.000000e+00
      outer loop
         vertex -1.734818e+02 5.000000e+00 1.797574e+01
         vertex -1.749784e+02 5.000000e+00 2.497481e+01
         vertex -1.773797e+02 5.000000e+00 2.317431e+01
      endloop
   endfacet
   facet normal 1.539547e-01 -0.000000e+00 9.880779e-01
      outer loop
         vertex -1.580451e+02 8.400000e+01 4.740440e-01
         vertex -1.580451e+02 0.000000e+00 4.740440e-01
         vertex -1.550027e+02 0.000000e+00 -2.131628e-14
      endloop
   endfacet
   facet normal 1.539547e-01 -8.327353e-17 9.880779e-01
      outer loop
         vertex -1.550027e+02 8.400000e+01 -1.421085e-14
         vertex -1.580451e+02 8.400000e+01 4.740440e-01
         vertex -1.550027e+02 0.000000e+00 -2.131628e-14
      endloop
   endfacet
   facet normal 4.472688e-01 -0.000000e+00 8.943996e-01
      outer loop
         vertex -1.607990e+02 8.400000e+01 1.851232e+00
         vertex -1.607990e+02 0.000000e+00 1.851232e+00
         vertex -1.580451e+02 0.000000e+00 4.740440e-01
      endloop
   endfacet
   facet normal 4.472688e-01 0.000000e+00 8.943996e-01
      outer loop
         vertex -1.580451e+02 8.400000e+01 4.740440e-01
         vertex -1.607990e+02 8.400000e+01 1.851232e+00
         vertex -1.580451e+02 0.000000e+00 4.740440e-01
      endloop
   endfacet
   facet normal 6.981803e-01 -0.000000e+00 7.159220e-01
      outer loop
         vertex -1.630034e+02 8.400000e+01 4.000996e+00
         vertex -1.630034e+02 0.000000e+00 4.000996e+00
         vertex -1.607990e+02 0.000000e+00 1.851232e+00
      endloop
   endfacet
   facet normal 6.981803e-01 0.000000e+00 7.159220e-01
      outer loop
         vertex -1.607990e+02 8.400000e+01 1.851232e+00
         vertex -1.630034e+02 8.400000e+01 4.000996e+00
         vertex -1.607990e+02 0.000000e+00 1.851232e+00
      endloop
   endfacet
   facet normal 0.000000e+00 1.000000e+00 0.000000e+00
      outer loop
         vertex -2.100007e+02 8.400000e+01 6.668032e+01
         vertex -1.630034e+02 8.400000e+01 4.000996e+00
         vertex -2.100007e+02 8.400000e+01 6.168253e+01
      endloop
   endfacet
   facet normal 0.000000e+00 1.000000e+00 -0.000000e+00
      outer loop
         vertex 4.000000e+01 8.400000e+01 6.668093e+01
         vertex 4.000000e+01 8.400000e+01 6.168088e+01
         vertex 2.912888e+00 8.400000e+01 4.855852e+00
      endloop
   endfacet
   facet normal 0.000000e+00 1.000000e+00 -0.000000e+00
      outer loop
         vertex 4.000000e+01 8.400000e+01 6.168088e+01
         vertex 5.476099e+00 8.400000e+01 3.362973e+00
         vertex 2.912888e+00 8.400000e+01 4.855852e+00
      endloop
   endfacet
   facet normal 0.000000e+00 1.000000e+00 -0.000000e+00
      outer loop
         vertex 5.476099e+00 8.400000e+01 3.362973e+00
         vertex 3.883881e+00 8.400000e+01 1.328481e+00
         vertex 2.912888e+00 8.400000e+01 4.855852e+00
      endloop
   endfacet
   facet normal 0.000000e+00 1.000000e+00 0.000000e+00
      outer loop
         vertex 2.912888e+00 8.400000e+01 4.855852e+00
         vertex 3.883881e+00 8.400000e+01 1.328481e+00
         vertex 1.319282e+00 8.400000e+01 2.840786e+00
      endloop
   endfacet
   facet normal 0.000000e+00 1.000000e+00 -0.000000e+00
      outer loop
         vertex 3.883881e+00 8.400000e+01 1.328481e+00
         vertex 1.823596e+00 8.400000e+01 -2.302193e-01
         vertex 1.319282e+00 8.400000e+01 2.840786e+00
      endloop
   endfacet
   facet normal 0.000000e+00 1.000000e+00 0.000000e+00
      outer loop
         vertex 1.319282e+00 8.400000e+01 2.840786e+00
         vertex 1.823596e+00 8.400000e+01 -2.302193e-01
         vertex -7.351282e-01 8.400000e+01 1.298234e+00
      endloop
   endfacet
   facet normal 0.000000e+00 1.000000e+00 -0.000000e+00
      outer loop
         vertex 1.823596e+00 8.400000e+01 -2.302193e-01
         vertex -5.672457e-01 8.400000e+01 -1.209094e+00
         vertex -7.351282e-01 8.400000e+01 1.298234e+00
      endloop
   endfacet
   facet normal 0.000000e+00 1.000000e+00 0.000000e+00
      outer loop
         vertex -7.351282e-01 8.400000e+01 1.298234e+00
         vertex -5.672457e-01 8.400000e+01 -1.209094e+00
         vertex -3.114750e+00 8.400000e+01 3.300035e-01
      endloop
   endfacet
   facet normal 0.000000e+00 1.000000e+00 0.000000e+00
      outer loop
         vertex -5.672457e-01 8.400000e+01 -1.209094e+00
         vertex -3.129072e+00 8.400000e+01 -1.542810e+00
         vertex -3.114750e+00 8.400000e+01 3.300035e-01
      endloop
   endfacet
   facet normal 0.000000e+00 1.000000e+00 -0.000000e+00
      outer loop
         vertex -3.114750e+00 8.400000e+01 3.300035e-01
         vertex -3.129072e+00 8.400000e+01 -1.542810e+00
         vertex -5.662527e+00 8.400000e+01 5.335181e-15
      endloop
   endfacet
   facet normal 0.000000e+00 1.000000e+00 0.000000e+00
      outer loop
         vertex -3.129072e+00 8.400000e+01 -1.542810e+00
         vertex -1.542950e+02 8.400000e+01 -1.542810e+00
         vertex -5.662527e+00 8.400000e+01 5.335181e-15
      endloop
   endfacet
   facet normal 0.000000e+00 1.000000e+00 -0.000000e+00
      outer loop
         vertex -5.662527e+00 8.400000e+01 5.335181e-15
         vertex -1.542950e+02 8.400000e+01 -1.542810e+00
         vertex -1.550027e+02 8.400000e+01 -1.692344e-14
      endloop
   endfacet
   facet normal 0.000000e+00 1.000000e+00 0.000000e+00
      outer loop
         vertex -1.542950e+02 8.400000e+01 -1.542810e+00
         vertex -1.575584e+02 8.400000e+01 -1.547497e+00
         vertex -1.550027e+02 8.400000e+01 -1.692344e-14
      endloop
   endfacet
   facet normal 0.000000e+00 1.000000e+00 -0.000000e+00
      outer loop
         vertex -1.550027e+02 8.400000e+01 -1.692344e-14
         vertex -1.575584e+02 8.400000e+01 -1.547497e+00
         vertex -1.580451e+02 8.400000e+01 4.740440e-01
      endloop
   endfacet
   facet normal -0.000000e+00 1.000000e+00 0.000000e+00
      outer loop
         vertex -1.575584e+02 8.400000e+01 -1.547497e+00
         vertex -1.606054e+02 8.400000e+01 -1.076558e+00
         vertex -1.580451e+02 8.400000e+01 4.740440e-01
      endloop
   endfacet
   facet normal 0.000000e+00 1.000000e+00 -0.000000e+00
      outer loop
         vertex -1.580451e+02 8.400000e+01 4.740440e-01
         vertex -1.606054e+02 8.400000e+01 -1.076558e+00
         vertex -1.607990e+02 8.400000e+01 1.851232e+00
      endloop
   endfacet
   facet normal -0.000000e+00 1.000000e+00 0.000000e+00
      outer loop
         vertex -1.606054e+02 8.400000e+01 -1.076558e+00
         vertex -1.633642e+02 8.400000e+01 3.002424e-01
         vertex -1.607990e+02 8.400000e+01 1.851232e+00
      endloop
   endfacet
   facet normal 0.000000e+00 1.000000e+00 0.000000e+00
      outer loop
         vertex -1.607990e+02 8.400000e+01 1.851232e+00
         vertex -1.633642e+02 8.400000e+01 3.002424e-01
         vertex -1.630034e+02 8.400000e+01 4.000996e+00
      endloop
   endfacet
   facet normal -0.000000e+00 1.000000e+00 0.000000e+00
      outer loop
         vertex -1.633642e+02 8.400000e+01 3.002424e-01
         vertex -1.655724e+02 8.400000e+01 2.452020e+00
         vertex -1.630034e+02 8.400000e+01 4.000996e+00
      endloop
   endfacet
   facet normal 0.000000e+00 1.000000e+00 -0.000000e+00
      outer loop
         vertex -1.630034e+02 8.400000e+01 4.000996e+00
         vertex -1.655724e+02 8.400000e+01 2.452020e+00
         vertex -2.100007e+02 8.400000e+01 6.168253e+01
      endloop
   endfacet
   facet normal -1.000000e+00 0.000000e+00 0.000000e+00
      outer loop
         vertex -2.100007e+02 8.400000e+01 6.168253e+01
         vertex -2.100007e+02 -3.776966e-15 6.168253e+01
         vertex -2.100007e+02 -4.082992e-15 6.668032e+01
      endloop
   endfacet
   facet normal -1.000000e+00 0.000000e+00 0.000000e+00
      outer loop
         vertex -2.100007e+02 8.400000e+01 6.168253e+01
         vertex -2.100007e+02 -4.082992e-15 6.668032e+01
         vertex -2.100007e+02 8.400000e+01 6.668032e+01
      endloop
   endfacet
   facet normal -0.000000e+00 1.000000e+00 0.000000e+00
      outer loop
         vertex -1.734818e+02 7.900000e+01 1.797574e+01
         vertex -1.773797e+02 7.900000e+01 2.317431e+01
         vertex -1.749784e+02 7.900000e+01 2.497481e+01
      endloop
   endfacet
   facet normal 0.000000e+00 1.000000e+00 0.000000e+00
      outer loop
         vertex -1.734818e+02 7.900000e+01 1.797574e+01
         vertex -1.749784e+02 7.900000e+01 2.497481e+01
         vertex -1.710805e+02 7.900000e+01 1.977625e+01
      endloop
   endfacet
   facet normal -7.999646e-01 -0.000000e+00 -6.000472e-01
      outer loop
         vertex -2.100007e+02 8.400000e+01 6.168253e+01
         vertex -1.655724e+02 8.400000e+01 2.452020e+00
         vertex -1.655724e+02 -1.501429e-16 2.452020e+00
      endloop
   endfacet
   facet normal -7.999646e-01 0.000000e+00 -6.000472e-01
      outer loop
         vertex -2.100007e+02 8.400000e+01 6.168253e+01
         vertex -1.655724e+02 -1.501429e-16 2.452020e+00
         vertex -2.100007e+02 -3.776966e-15 6.168253e+01
      endloop
   endfacet
   facet normal -6.978967e-01 0.000000e+00 -7.161985e-01
      outer loop
         vertex -1.633642e+02 8.400000e+01 3.002424e-01
         vertex -1.633642e+02 0.000000e+00 3.002424e-01
         vertex -1.655724e+02 0.000000e+00 2.452020e+00
      endloop
   endfacet
   facet normal -6.978967e-01 0.000000e+00 -7.161985e-01
      outer loop
         vertex -1.655724e+02 8.400000e+01 2.452020e+00
         vertex -1.633642e+02 8.400000e+01 3.002424e-01
         vertex -1.655724e+02 0.000000e+00 2.452020e+00
      endloop
   endfacet
   facet normal -4.465442e-01 0.000000e+00 -8.947616e-01
      outer loop
         vertex -1.606054e+02 8.400000e+01 -1.076558e+00
         vertex -1.606054e+02 0.000000e+00 -1.076558e+00
         vertex -1.633642e+02 0.000000e+00 3.002424e-01
      endloop
   endfacet
   facet normal -4.465442e-01 0.000000e+00 -8.947616e-01
      outer loop
         vertex -1.633642e+02 8.400000e+01 3.002424e-01
         vertex -1.606054e+02 8.400000e+01 -1.076558e+00
         vertex -1.633642e+02 0.000000e+00 3.002424e-01
      endloop
   endfacet
   facet normal -1.527426e-01 0.000000e+00 -9.882660e-01
      outer loop
         vertex -1.575584e+02 8.400000e+01 -1.547497e+00
         vertex -1.575584e+02 0.000000e+00 -1.547497e+00
         vertex -1.606054e+02 0.000000e+00 -1.076558e+00
      endloop
   endfacet
   facet normal -1.527426e-01 0.000000e+00 -9.882660e-01
      outer loop
         vertex -1.606054e+02 8.400000e+01 -1.076558e+00
         vertex -1.575584e+02 8.400000e+01 -1.547497e+00
         vertex -1.606054e+02 0.000000e+00 -1.076558e+00
      endloop
   endfacet
   facet normal 1.436231e-03 0.000000e+00 -9.999990e-01
      outer loop
         vertex -1.542950e+02 9.446986e-17 -1.542810e+00
         vertex -1.575584e+02 9.475685e-17 -1.547497e+00
         vertex -1.575584e+02 8.400000e+01 -1.547497e+00
      endloop
   endfacet
   facet normal 1.436231e-03 0.000000e+00 -9.999990e-01
      outer loop
         vertex -1.542950e+02 9.446986e-17 -1.542810e+00
         vertex -1.575584e+02 8.400000e+01 -1.547497e+00
         vertex -1.542950e+02 8.400000e+01 -1.542810e+00
      endloop
   endfacet
   facet normal -0.000000e+00 -0.000000e+00 -1.000000e+00
      outer loop
         vertex -1.542950e+02 8.400000e+01 -1.542810e+00
         vertex -3.129072e+00 8.400000e+01 -1.542810e+00
         vertex -3.129072e+00 9.446986e-17 -1.542810e+00
      endloop
   endfacet
   facet normal 0.000000e+00 0.000000e+00 -1.000000e+00
      outer loop
         vertex -1.542950e+02 8.400000e+01 -1.542810e+00
         vertex -3.129072e+00 9.446986e-17 -1.542810e+00
         vertex -1.542950e+02 9.446986e-17 -1.542810e+00
      endloop
   endfacet
   facet normal 1.291735e-01 0.000000e+00 -9.916220e-01
      outer loop
         vertex -5.672457e-01 8.400000e+01 -1.209094e+00
         vertex -5.672457e-01 0.000000e+00 -1.209094e+00
         vertex -3.129072e+00 0.000000e+00 -1.542810e+00
      endloop
   endfacet
   facet normal 1.291735e-01 0.000000e+00 -9.916220e-01
      outer loop
         vertex -3.129072e+00 8.400000e+01 -1.542810e+00
         vertex -5.672457e-01 8.400000e+01 -1.209094e+00
         vertex -3.129072e+00 0.000000e+00 -1.542810e+00
      endloop
   endfacet
   facet normal 3.788991e-01 0.000000e+00 -9.254380e-01
      outer loop
         vertex 1.823596e+00 8.400000e+01 -2.302193e-01
         vertex 1.823596e+00 0.000000e+00 -2.302193e-01
         vertex -5.672457e-01 0.000000e+00 -1.209094e+00
      endloop
   endfacet
   facet normal 3.788991e-01 0.000000e+00 -9.254380e-01
      outer loop
         vertex -5.672457e-01 8.400000e+01 -1.209094e+00
         vertex 1.823596e+00 8.400000e+01 -2.302193e-01
         vertex -5.672457e-01 0.000000e+00 -1.209094e+00
      endloop
   endfacet
   facet normal 6.033357e-01 0.000000e+00 -7.974873e-01
      outer loop
         vertex 3.883881e+00 8.400000e+01 1.328481e+00
         vertex 3.883881e+00 0.000000e+00 1.328481e+00
         vertex 1.823596e+00 0.000000e+00 -2.302193e-01
      endloop
   endfacet
   facet normal 6.033357e-01 0.000000e+00 -7.974873e-01
      outer loop
         vertex 1.823596e+00 8.400000e+01 -2.302193e-01
         vertex 3.883881e+00 8.400000e+01 1.328481e+00
         vertex 1.823596e+00 0.000000e+00 -2.302193e-01
      endloop
   endfacet
   facet normal 7.875039e-01 0.000000e+00 -6.163097e-01
      outer loop
         vertex 5.476099e+00 8.400000e+01 3.362973e+00
         vertex 5.476099e+00 0.000000e+00 3.362973e+00
         vertex 3.883881e+00 0.000000e+00 1.328481e+00
      endloop
   endfacet
   facet normal 7.875039e-01 0.000000e+00 -6.163097e-01
      outer loop
         vertex 3.883881e+00 8.400000e+01 1.328481e+00
         vertex 5.476099e+00 8.400000e+01 3.362973e+00
         vertex 3.883881e+00 0.000000e+00 1.328481e+00
      endloop
   endfacet
   facet normal 8.605170e-01 0.000000e+00 -5.094217e-01
      outer loop
         vertex 4.000000e+01 -3.776864e-15 6.168088e+01
         vertex 5.476099e+00 -2.059227e-16 3.362973e+00
         vertex 5.476099e+00 8.400000e+01 3.362973e+00
      endloop
   endfacet
   facet normal 8.605170e-01 0.000000e+00 -5.094217e-01
      outer loop
         vertex 4.000000e+01 -3.776864e-15 6.168088e+01
         vertex 5.476099e+00 8.400000e+01 3.362973e+00
         vertex 4.000000e+01 8.400000e+01 6.168088e+01
      endloop
   endfacet
   facet normal 1.000000e+00 -0.000000e+00 0.000000e+00
      outer loop
         vertex 4.000000e+01 8.400000e+01 6.668093e+01
         vertex 4.000000e+01 -4.083030e-15 6.668093e+01
         vertex 4.000000e+01 -3.776864e-15 6.168088e+01
      endloop
   endfacet
   facet normal 1.000000e+00 0.000000e+00 0.000000e+00
      outer loop
         vertex 4.000000e+01 8.400000e+01 6.668093e+01
         vertex 4.000000e+01 -3.776864e-15 6.168088e+01
         vertex 4.000000e+01 8.400000e+01 6.168088e+01
      endloop
   endfacet
   facet normal -8.575415e-01 0.000000e+00 5.144148e-01
      outer loop
         vertex 4.000000e+01 8.400000e+01 6.668093e+01
         vertex 2.912888e+00 8.400000e+01 4.855852e+00
         vertex 2.912888e+00 -2.973352e-16 4.855852e+00
      endloop
   endfacet
   facet normal -8.575415e-01 0.000000e+00 5.144148e-01
      outer loop
         vertex 4.000000e+01 8.400000e+01 6.668093e+01
         vertex 2.912888e+00 -2.973352e-16 4.855852e+00
         vertex 4.000000e+01 -4.083030e-15 6.668093e+01
      endloop
   endfacet
   facet normal -7.843592e-01 0.000000e+00 6.203069e-01
      outer loop
         vertex 1.319282e+00 8.400000e+01 2.840786e+00
         vertex 1.319282e+00 0.000000e+00 2.840786e+00
         vertex 2.912888e+00 0.000000e+00 4.855852e+00
      endloop
   endfacet
   facet normal -7.843592e-01 0.000000e+00 6.203069e-01
      outer loop
         vertex 2.912888e+00 8.400000e+01 4.855852e+00
         vertex 1.319282e+00 8.400000e+01 2.840786e+00
         vertex 2.912888e+00 0.000000e+00 4.855852e+00
      endloop
   endfacet
   facet normal -6.004346e-01 0.000000e+00 7.996738e-01
      outer loop
         vertex -7.351282e-01 8.400000e+01 1.298234e+00
         vertex -7.351282e-01 0.000000e+00 1.298234e+00
         vertex 1.319282e+00 0.000000e+00 2.840786e+00
      endloop
   endfacet
   facet normal -6.004346e-01 0.000000e+00 7.996738e-01
      outer loop
         vertex 1.319282e+00 8.400000e+01 2.840786e+00
         vertex -7.351282e-01 8.400000e+01 1.298234e+00
         vertex 1.319282e+00 0.000000e+00 2.840786e+00
      endloop
   endfacet
   facet normal -3.768810e-01 0.000000e+00 9.262617e-01
      outer loop
         vertex -3.114750e+00 8.400000e+01 3.300035e-01
         vertex -3.114750e+00 0.000000e+00 3.300035e-01
         vertex -7.351282e-01 0.000000e+00 1.298234e+00
      endloop
   endfacet
   facet normal -3.768810e-01 0.000000e+00 9.262617e-01
      outer loop
         vertex -7.351282e-01 8.400000e+01 1.298234e+00
         vertex -3.114750e+00 8.400000e+01 3.300035e-01
         vertex -7.351282e-01 0.000000e+00 1.298234e+00
      endloop
   endfacet
   facet normal -1.284530e-01 -8.388766e-17 9.917156e-01
      outer loop
         vertex -5.662527e+00 8.400000e+01 7.105427e-15
         vertex -5.662527e+00 0.000000e+00 0.000000e+00
         vertex -3.114750e+00 0.000000e+00 3.300035e-01
      endloop
   endfacet
   facet normal -1.284530e-01 0.000000e+00 9.917156e-01
      outer loop
         vertex -3.114750e+00 8.400000e+01 3.300035e-01
         vertex -5.662527e+00 8.400000e+01 7.105427e-15
         vertex -3.114750e+00 0.000000e+00 3.300035e-01
      endloop
   endfacet
   facet normal -1.224647e-16 -6.123234e-17 1.000000e+00
      outer loop
         vertex -1.550027e+02 1.124834e-30 -1.898236e-14
         vertex -5.662527e+00 4.246215e-32 -6.934596e-16
         vertex -5.662527e+00 8.400000e+01 4.450057e-15
      endloop
   endfacet
   facet normal -1.224647e-16 -6.123234e-17 1.000000e+00
      outer loop
         vertex -1.550027e+02 1.124834e-30 -1.898236e-14
         vertex -5.662527e+00 8.400000e+01 4.450057e-15
         vertex -1.550027e+02 8.400000e+01 -1.383884e-14
      endloop
   endfacet
endsolid
