solid 
   facet normal -0.000000e+00 0.000000e+00 -1.000000e+00
      outer loop
         vertex -1.400000e+01 1.750000e+02 0.000000e+00
         vertex -1.144184e+01 1.720000e+02 0.000000e+00
         vertex -4.200000e+01 5.143517e-15 0.000000e+00
      endloop
   endfacet
   facet normal -1.061916e-16 1.886639e-17 -1.000000e+00
      outer loop
         vertex -1.144184e+01 1.720000e+02 0.000000e+00
         vertex -1.736184e+01 1.350000e+02 -6.940223e-17
         vertex -4.200000e+01 5.143517e-15 0.000000e+00
      endloop
   endfacet
   facet normal 0.000000e+00 -0.000000e+00 -1.000000e+00
      outer loop
         vertex -4.200000e+01 5.143517e-15 0.000000e+00
         vertex -3.891262e+01 3.076723e-01 0.000000e+00
         vertex -1.400000e+01 -7.500000e+01 0.000000e+00
      endloop
   endfacet
   facet normal 1.357846e-15 4.491907e-16 -1.000000e+00
      outer loop
         vertex -3.891262e+01 3.076723e-01 0.000000e+00
         vertex -2.573108e+01 -3.500000e+01 2.038617e-15
         vertex -1.400000e+01 -7.500000e+01 0.000000e+00
      endloop
   endfacet
   facet normal 0.000000e+00 -0.000000e+00 -1.000000e+00
      outer loop
         vertex -1.400000e+01 -7.500000e+01 0.000000e+00
         vertex -1.191775e+01 -7.200000e+01 0.000000e+00
         vertex 1.400000e+01 -7.500000e+01 0.000000e+00
      endloop
   endfacet
   facet normal -0.000000e+00 -0.000000e+00 -1.000000e+00
      outer loop
         vertex -1.191775e+01 -7.200000e+01 0.000000e+00
         vertex 1.191775e+01 -7.200000e+01 0.000000e+00
         vertex 1.400000e+01 -7.500000e+01 0.000000e+00
      endloop
   endfacet
   facet normal 0.000000e+00 0.000000e+00 -1.000000e+00
      outer loop
         vertex 1.400000e+01 -7.500000e+01 0.000000e+00
         vertex 1.191775e+01 -7.200000e+01 0.000000e+00
         vertex 4.200000e+01 -1.028703e-14 0.000000e+00
      endloop
   endfacet
   facet normal 6.233934e-16 -2.604594e-16 -1.000000e+00
      outer loop
         vertex 1.191775e+01 -7.200000e+01 0.000000e+00
         vertex 2.013108e+01 -5.000000e+01 -6.099682e-16
         vertex 4.200000e+01 -1.028703e-14 0.000000e+00
      endloop
   endfacet
   facet normal 0.000000e+00 0.000000e+00 -1.000000e+00
      outer loop
         vertex 4.200000e+01 -1.028703e-14 0.000000e+00
         vertex 3.891262e+01 3.076723e-01 0.000000e+00
         vertex 1.400000e+01 1.750000e+02 0.000000e+00
      endloop
   endfacet
   facet normal -5.272889e-16 -7.519589e-17 -1.000000e+00
      outer loop
         vertex 3.891262e+01 3.076723e-01 0.000000e+00
         vertex 1.976184e+01 1.200000e+02 1.097619e-15
         vertex 1.400000e+01 1.750000e+02 0.000000e+00
      endloop
   endfacet
   facet normal 0.000000e+00 0.000000e+00 -1.000000e+00
      outer loop
         vertex 1.400000e+01 1.750000e+02 0.000000e+00
         vertex 1.144184e+01 1.720000e+02 0.000000e+00
         vertex -1.400000e+01 1.750000e+02 0.000000e+00
      endloop
   endfacet
   facet normal 0.000000e+00 0.000000e+00 -1.000000e+00
      outer loop
         vertex 1.144184e+01 1.720000e+02 0.000000e+00
         vertex -1.144184e+01 1.720000e+02 0.000000e+00
         vertex -1.400000e+01 1.750000e+02 0.000000e+00
      endloop
   endfacet
   facet normal 3.565363e-19 3.577717e-18 -1.000000e+00
      outer loop
         vertex 3.891262e+01 3.076723e-01 0.000000e+00
         vertex 4.200000e+01 -1.028703e-14 0.000000e+00
         vertex 2.573108e+01 -3.500000e+01 -1.310205e-16
      endloop
   endfacet
   facet normal -3.080724e-16 1.469435e-16 -1.000000e+00
      outer loop
         vertex 4.200000e+01 -1.028703e-14 0.000000e+00
         vertex 2.013108e+01 -5.000000e+01 -6.099682e-16
         vertex 2.573108e+01 -3.500000e+01 -1.310205e-16
      endloop
   endfacet
   facet normal -4.215986e-17 4.766953e-17 -1.000000e+00
      outer loop
         vertex 2.573108e+01 -3.500000e+01 -1.310205e-16
         vertex 2.013108e+01 -5.000000e+01 -6.099682e-16
         vertex -2.573108e+01 -3.500000e+01 2.038617e-15
      endloop
   endfacet
   facet normal -1.717757e-17 1.240523e-16 -1.000000e+00
      outer loop
         vertex 2.013108e+01 -5.000000e+01 -6.099682e-16
         vertex -2.013108e+01 -5.000000e+01 8.163811e-17
         vertex -2.573108e+01 -3.500000e+01 2.038617e-15
      endloop
   endfacet
   facet normal -9.930500e-16 -2.402734e-16 -1.000000e+00
      outer loop
         vertex -2.573108e+01 -3.500000e+01 2.038617e-15
         vertex -2.013108e+01 -5.000000e+01 8.163811e-17
         vertex -1.400000e+01 -7.500000e+01 0.000000e+00
      endloop
   endfacet
   facet normal -3.476453e-18 2.412948e-18 -1.000000e+00
      outer loop
         vertex -2.013108e+01 -5.000000e+01 8.163811e-17
         vertex -1.191775e+01 -7.200000e+01 0.000000e+00
         vertex -1.400000e+01 -7.500000e+01 0.000000e+00
      endloop
   endfacet
   facet normal 1.488911e-16 -1.269623e-16 -1.000000e+00
      outer loop
         vertex 1.144184e+01 1.720000e+02 0.000000e+00
         vertex 1.400000e+01 1.750000e+02 0.000000e+00
         vertex 1.736184e+01 1.350000e+02 5.579040e-15
      endloop
   endfacet
   facet normal -5.769782e-15 -6.244036e-16 -1.000000e+00
      outer loop
         vertex 1.400000e+01 1.750000e+02 0.000000e+00
         vertex 1.976184e+01 1.200000e+02 1.097619e-15
         vertex 1.736184e+01 1.350000e+02 5.579040e-15
      endloop
   endfacet
   facet normal 1.626683e-16 3.247884e-16 -1.000000e+00
      outer loop
         vertex 1.736184e+01 1.350000e+02 5.579040e-15
         vertex 1.976184e+01 1.200000e+02 1.097619e-15
         vertex -1.736184e+01 1.350000e+02 -6.940223e-17
      endloop
   endfacet
   facet normal 1.822435e-17 -3.269772e-17 -1.000000e+00
      outer loop
         vertex 1.976184e+01 1.200000e+02 1.097619e-15
         vertex -1.976184e+01 1.200000e+02 3.773251e-16
         vertex -1.736184e+01 1.350000e+02 -6.940223e-17
      endloop
   endfacet
   facet normal 1.300505e-15 -2.378627e-16 -1.000000e+00
      outer loop
         vertex -1.736184e+01 1.350000e+02 -6.940223e-17
         vertex -1.976184e+01 1.200000e+02 3.773251e-16
         vertex -4.200000e+01 5.143517e-15 0.000000e+00
      endloop
   endfacet
   facet normal -3.192477e-19 3.203539e-18 -1.000000e+00
      outer loop
         vertex -1.976184e+01 1.200000e+02 3.773251e-16
         vertex -3.891262e+01 3.076723e-01 0.000000e+00
         vertex -4.200000e+01 5.143517e-15 0.000000e+00
      endloop
   endfacet
   facet normal 8.949251e-01 -1.431880e-01 -4.226184e-01
      outer loop
         vertex -3.891262e+01 3.076723e-01 0.000000e+00
         vertex -1.976184e+01 1.200000e+02 3.773251e-16
         vertex -3.171426e+01 1.025022e+00 1.500000e+01
      endloop
   endfacet
   facet normal 8.949250e-01 -1.431880e-01 -4.226184e-01
      outer loop
         vertex -1.976184e+01 1.200000e+02 3.773251e-16
         vertex -1.858125e+01 1.200000e+02 2.500000e+00
         vertex -3.171426e+01 1.025022e+00 1.500000e+01
      endloop
   endfacet
   facet normal 8.949251e-01 -1.431880e-01 -4.226182e-01
      outer loop
         vertex -3.171426e+01 1.025022e+00 1.500000e+01
         vertex -1.858125e+01 1.200000e+02 2.500000e+00
         vertex -5.477401e+00 1.650054e+02 1.500000e+01
      endloop
   endfacet
   facet normal 8.949251e-01 -1.431880e-01 -4.226183e-01
      outer loop
         vertex -1.858125e+01 1.200000e+02 2.500000e+00
         vertex -1.618125e+01 1.350000e+02 2.500000e+00
         vertex -5.477401e+00 1.650054e+02 1.500000e+01
      endloop
   endfacet
   facet normal 8.949251e-01 -1.431880e-01 -4.226183e-01
      outer loop
         vertex -5.477401e+00 1.650054e+02 1.500000e+01
         vertex -1.618125e+01 1.350000e+02 2.500000e+00
         vertex -1.144184e+01 1.720000e+02 0.000000e+00
      endloop
   endfacet
   facet normal 8.949251e-01 -1.431880e-01 -4.226184e-01
      outer loop
         vertex -1.618125e+01 1.350000e+02 2.500000e+00
         vertex -1.736184e+01 1.350000e+02 -6.940223e-17
         vertex -1.144184e+01 1.720000e+02 0.000000e+00
      endloop
   endfacet
   facet normal 8.490668e-01 3.169850e-01 -4.226182e-01
      outer loop
         vertex -1.191775e+01 -7.200000e+01 0.000000e+00
         vertex -2.013108e+01 -5.000000e+01 8.163811e-17
         vertex -7.062907e+00 -6.500539e+01 1.500000e+01
      endloop
   endfacet
   facet normal 8.490667e-01 3.169846e-01 -4.226185e-01
      outer loop
         vertex -2.013108e+01 -5.000000e+01 8.163811e-17
         vertex -1.888672e+01 -5.000000e+01 2.500000e+00
         vertex -7.062907e+00 -6.500539e+01 1.500000e+01
      endloop
   endfacet
   facet normal 8.490668e-01 3.169849e-01 -4.226182e-01
      outer loop
         vertex -7.062907e+00 -6.500539e+01 1.500000e+01
         vertex -1.888672e+01 -5.000000e+01 2.500000e+00
         vertex -3.171426e+01 1.025022e+00 1.500000e+01
      endloop
   endfacet
   facet normal 8.490667e-01 3.169849e-01 -4.226184e-01
      outer loop
         vertex -1.888672e+01 -5.000000e+01 2.500000e+00
         vertex -2.448672e+01 -3.500000e+01 2.500000e+00
         vertex -3.171426e+01 1.025022e+00 1.500000e+01
      endloop
   endfacet
   facet normal 8.490667e-01 3.169849e-01 -4.226184e-01
      outer loop
         vertex -3.171426e+01 1.025022e+00 1.500000e+01
         vertex -2.448672e+01 -3.500000e+01 2.500000e+00
         vertex -3.891262e+01 3.076723e-01 0.000000e+00
      endloop
   endfacet
   facet normal 8.490667e-01 3.169849e-01 -4.226185e-01
      outer loop
         vertex -2.448672e+01 -3.500000e+01 2.500000e+00
         vertex -2.573108e+01 -3.500000e+01 2.038617e-15
         vertex -3.891262e+01 3.076723e-01 0.000000e+00
      endloop
   endfacet
   facet normal -8.490667e-01 3.169849e-01 -4.226185e-01
      outer loop
         vertex 2.013108e+01 -5.000000e+01 -6.099682e-16
         vertex 1.191775e+01 -7.200000e+01 0.000000e+00
         vertex 1.888672e+01 -5.000000e+01 2.500000e+00
      endloop
   endfacet
   facet normal -8.490668e-01 3.169849e-01 -4.226182e-01
      outer loop
         vertex 1.191775e+01 -7.200000e+01 0.000000e+00
         vertex 7.062907e+00 -6.500539e+01 1.500000e+01
         vertex 1.888672e+01 -5.000000e+01 2.500000e+00
      endloop
   endfacet
   facet normal -8.490668e-01 3.169850e-01 -4.226182e-01
      outer loop
         vertex 1.888672e+01 -5.000000e+01 2.500000e+00
         vertex 7.062907e+00 -6.500539e+01 1.500000e+01
         vertex 2.448672e+01 -3.500000e+01 2.500000e+00
      endloop
   endfacet
   facet normal -8.490668e-01 3.169849e-01 -4.226183e-01
      outer loop
         vertex 7.062907e+00 -6.500539e+01 1.500000e+01
         vertex 3.171426e+01 1.025022e+00 1.500000e+01
         vertex 2.448672e+01 -3.500000e+01 2.500000e+00
      endloop
   endfacet
   facet normal -8.490666e-01 3.169850e-01 -4.226185e-01
      outer loop
         vertex 2.448672e+01 -3.500000e+01 2.500000e+00
         vertex 3.171426e+01 1.025022e+00 1.500000e+01
         vertex 2.573108e+01 -3.500000e+01 -1.310205e-16
      endloop
   endfacet
   facet normal -8.490667e-01 3.169849e-01 -4.226184e-01
      outer loop
         vertex 3.171426e+01 1.025022e+00 1.500000e+01
         vertex 3.891262e+01 3.076723e-01 0.000000e+00
         vertex 2.573108e+01 -3.500000e+01 -1.310205e-16
      endloop
   endfacet
   facet normal -8.949250e-01 -1.431880e-01 -4.226184e-01
      outer loop
         vertex 1.976184e+01 1.200000e+02 1.097619e-15
         vertex 3.891262e+01 3.076723e-01 0.000000e+00
         vertex 1.858125e+01 1.200000e+02 2.500000e+00
      endloop
   endfacet
   facet normal -8.949251e-01 -1.431880e-01 -4.226184e-01
      outer loop
         vertex 3.891262e+01 3.076723e-01 0.000000e+00
         vertex 3.171426e+01 1.025022e+00 1.500000e+01
         vertex 1.858125e+01 1.200000e+02 2.500000e+00
      endloop
   endfacet
   facet normal -8.949252e-01 -1.431880e-01 -4.226181e-01
      outer loop
         vertex 1.858125e+01 1.200000e+02 2.500000e+00
         vertex 3.171426e+01 1.025022e+00 1.500000e+01
         vertex 1.618125e+01 1.350000e+02 2.500000e+00
      endloop
   endfacet
   facet normal -8.949251e-01 -1.431880e-01 -4.226183e-01
      outer loop
         vertex 3.171426e+01 1.025022e+00 1.500000e+01
         vertex 5.477401e+00 1.650054e+02 1.500000e+01
         vertex 1.618125e+01 1.350000e+02 2.500000e+00
      endloop
   endfacet
   facet normal -8.949251e-01 -1.431879e-01 -4.226184e-01
      outer loop
         vertex 1.618125e+01 1.350000e+02 2.500000e+00
         vertex 5.477401e+00 1.650054e+02 1.500000e+01
         vertex 1.736184e+01 1.350000e+02 5.579040e-15
      endloop
   endfacet
   facet normal -8.949251e-01 -1.431880e-01 -4.226183e-01
      outer loop
         vertex 5.477401e+00 1.650054e+02 1.500000e+01
         vertex 1.144184e+01 1.720000e+02 0.000000e+00
         vertex 1.736184e+01 1.350000e+02 5.579040e-15
      endloop
   endfacet
   facet normal 0.000000e+00 0.000000e+00 1.000000e+00
      outer loop
         vertex -1.858125e+01 1.200000e+02 2.500000e+00
         vertex 1.858125e+01 1.200000e+02 2.500000e+00
         vertex 1.618125e+01 1.350000e+02 2.500000e+00
      endloop
   endfacet
   facet normal 0.000000e+00 0.000000e+00 1.000000e+00
      outer loop
         vertex -1.618125e+01 1.350000e+02 2.500000e+00
         vertex -1.858125e+01 1.200000e+02 2.500000e+00
         vertex 1.618125e+01 1.350000e+02 2.500000e+00
      endloop
   endfacet
   facet normal 0.000000e+00 1.000000e+00 0.000000e+00
      outer loop
         vertex -1.618125e+01 1.350000e+02 2.500000e+00
         vertex 1.618125e+01 1.350000e+02 2.500000e+00
         vertex 1.736184e+01 1.350000e+02 0.000000e+00
      endloop
   endfacet
   facet normal 0.000000e+00 1.000000e+00 0.000000e+00
      outer loop
         vertex -1.618125e+01 1.350000e+02 2.500000e+00
         vertex 1.736184e+01 1.350000e+02 0.000000e+00
         vertex -1.736184e+01 1.350000e+02 4.440892e-16
      endloop
   endfacet
   facet normal -0.000000e+00 -1.000000e+00 0.000000e+00
      outer loop
         vertex -1.976184e+01 1.200000e+02 0.000000e+00
         vertex 1.976184e+01 1.200000e+02 2.220446e-15
         vertex 1.858125e+01 1.200000e+02 2.500000e+00
      endloop
   endfacet
   facet normal -0.000000e+00 -1.000000e+00 0.000000e+00
      outer loop
         vertex -1.976184e+01 1.200000e+02 0.000000e+00
         vertex 1.858125e+01 1.200000e+02 2.500000e+00
         vertex -1.858125e+01 1.200000e+02 2.500000e+00
      endloop
   endfacet
   facet normal 0.000000e+00 -0.000000e+00 1.000000e+00
      outer loop
         vertex -1.888672e+01 -5.000000e+01 2.500000e+00
         vertex 1.888672e+01 -5.000000e+01 2.500000e+00
         vertex 2.448672e+01 -3.500000e+01 2.500000e+00
      endloop
   endfacet
   facet normal 0.000000e+00 -0.000000e+00 1.000000e+00
      outer loop
         vertex -2.448672e+01 -3.500000e+01 2.500000e+00
         vertex -1.888672e+01 -5.000000e+01 2.500000e+00
         vertex 2.448672e+01 -3.500000e+01 2.500000e+00
      endloop
   endfacet
   facet normal 0.000000e+00 1.000000e+00 0.000000e+00
      outer loop
         vertex 2.448672e+01 -3.500000e+01 2.500000e+00
         vertex 2.573108e+01 -3.500000e+01 0.000000e+00
         vertex -2.573108e+01 -3.500000e+01 5.773160e-15
      endloop
   endfacet
   facet normal 0.000000e+00 1.000000e+00 0.000000e+00
      outer loop
         vertex 2.448672e+01 -3.500000e+01 2.500000e+00
         vertex -2.573108e+01 -3.500000e+01 5.773160e-15
         vertex -2.448672e+01 -3.500000e+01 2.500000e+00
      endloop
   endfacet
   facet normal 0.000000e+00 -1.000000e+00 0.000000e+00
      outer loop
         vertex -2.013108e+01 -5.000000e+01 0.000000e+00
         vertex 2.013108e+01 -5.000000e+01 -1.332268e-15
         vertex 1.888672e+01 -5.000000e+01 2.500000e+00
      endloop
   endfacet
   facet normal -0.000000e+00 -1.000000e+00 0.000000e+00
      outer loop
         vertex -2.013108e+01 -5.000000e+01 0.000000e+00
         vertex 1.888672e+01 -5.000000e+01 2.500000e+00
         vertex -1.888672e+01 -5.000000e+01 2.500000e+00
      endloop
   endfacet
   facet normal 8.949251e-01 1.431880e-01 4.226183e-01
      outer loop
         vertex 4.200000e+01 -1.028703e-14 0.000000e+00
         vertex 1.400000e+01 1.750000e+02 -3.219852e-15
         vertex 8.035558e+00 1.680054e+02 1.500000e+01
      endloop
   endfacet
   facet normal 8.949251e-01 1.431880e-01 4.226183e-01
      outer loop
         vertex 4.200000e+01 -1.028703e-14 0.000000e+00
         vertex 8.035558e+00 1.680054e+02 1.500000e+01
         vertex 3.480164e+01 7.173496e-01 1.500000e+01
      endloop
   endfacet
   facet normal 8.490668e-01 -3.169849e-01 4.226183e-01
      outer loop
         vertex 9.145156e+00 -6.800539e+01 1.500000e+01
         vertex 1.400000e+01 -7.500000e+01 0.000000e+00
         vertex 4.200000e+01 -7.877032e-16 -4.829778e-15
      endloop
   endfacet
   facet normal 8.490668e-01 -3.169849e-01 4.226183e-01
      outer loop
         vertex 9.145156e+00 -6.800539e+01 1.500000e+01
         vertex 4.200000e+01 -7.877032e-16 -4.829778e-15
         vertex 3.480164e+01 7.173496e-01 1.500000e+01
      endloop
   endfacet
   facet normal 0.000000e+00 -9.063078e-01 4.226182e-01
      outer loop
         vertex -9.145156e+00 -6.800539e+01 1.500000e+01
         vertex -1.400000e+01 -7.500000e+01 0.000000e+00
         vertex 1.400000e+01 -7.500000e+01 0.000000e+00
      endloop
   endfacet
   facet normal 0.000000e+00 -9.063078e-01 4.226182e-01
      outer loop
         vertex -9.145156e+00 -6.800539e+01 1.500000e+01
         vertex 1.400000e+01 -7.500000e+01 0.000000e+00
         vertex 9.145156e+00 -6.800539e+01 1.500000e+01
      endloop
   endfacet
   facet normal -8.490668e-01 -3.169849e-01 4.226183e-01
      outer loop
         vertex -4.200000e+01 5.143517e-15 0.000000e+00
         vertex -1.400000e+01 -7.500000e+01 0.000000e+00
         vertex -9.145156e+00 -6.800539e+01 1.500000e+01
      endloop
   endfacet
   facet normal -8.490668e-01 -3.169849e-01 4.226183e-01
      outer loop
         vertex -4.200000e+01 5.143517e-15 0.000000e+00
         vertex -9.145156e+00 -6.800539e+01 1.500000e+01
         vertex -3.480164e+01 7.173496e-01 1.500000e+01
      endloop
   endfacet
   facet normal -8.949251e-01 1.431880e-01 4.226183e-01
      outer loop
         vertex -8.035558e+00 1.680054e+02 1.500000e+01
         vertex -1.400000e+01 1.750000e+02 0.000000e+00
         vertex -4.200000e+01 7.116406e-16 -9.659556e-15
      endloop
   endfacet
   facet normal -8.949251e-01 1.431880e-01 4.226183e-01
      outer loop
         vertex -8.035558e+00 1.680054e+02 1.500000e+01
         vertex -4.200000e+01 7.116406e-16 -9.659556e-15
         vertex -3.480164e+01 7.173496e-01 1.500000e+01
      endloop
   endfacet
   facet normal 4.110916e-17 9.063078e-01 4.226182e-01
      outer loop
         vertex 8.035558e+00 1.680054e+02 1.500000e+01
         vertex 1.400000e+01 1.750000e+02 0.000000e+00
         vertex -1.400000e+01 1.750000e+02 2.723632e-15
      endloop
   endfacet
   facet normal 0.000000e+00 9.063078e-01 4.226182e-01
      outer loop
         vertex 8.035558e+00 1.680054e+02 1.500000e+01
         vertex -1.400000e+01 1.750000e+02 2.723632e-15
         vertex -8.035558e+00 1.680054e+02 1.500000e+01
      endloop
   endfacet
   facet normal 0.000000e+00 -9.063078e-01 -4.226182e-01
      outer loop
         vertex -5.477401e+00 1.650054e+02 1.500000e+01
         vertex -1.144184e+01 1.720000e+02 0.000000e+00
         vertex 1.144184e+01 1.720000e+02 0.000000e+00
      endloop
   endfacet
   facet normal 0.000000e+00 -9.063078e-01 -4.226182e-01
      outer loop
         vertex -5.477401e+00 1.650054e+02 1.500000e+01
         vertex 1.144184e+01 1.720000e+02 0.000000e+00
         vertex 5.477401e+00 1.650054e+02 1.500000e+01
      endloop
   endfacet
   facet normal 0.000000e+00 9.063078e-01 -4.226182e-01
      outer loop
         vertex 7.062907e+00 -6.500539e+01 1.500000e+01
         vertex 1.191775e+01 -7.200000e+01 0.000000e+00
         vertex -1.191775e+01 -7.200000e+01 0.000000e+00
      endloop
   endfacet
   facet normal 0.000000e+00 9.063078e-01 -4.226182e-01
      outer loop
         vertex 7.062907e+00 -6.500539e+01 1.500000e+01
         vertex -1.191775e+01 -7.200000e+01 0.000000e+00
         vertex -7.062907e+00 -6.500539e+01 1.500000e+01
      endloop
   endfacet
   facet normal 0.000000e+00 0.000000e+00 1.000000e+00
      outer loop
         vertex 3.480164e+01 7.173496e-01 1.500000e+01
         vertex 3.171426e+01 1.025022e+00 1.500000e+01
         vertex 9.145156e+00 -6.800539e+01 1.500000e+01
      endloop
   endfacet
   facet normal -0.000000e+00 0.000000e+00 1.000000e+00
      outer loop
         vertex 3.171426e+01 1.025022e+00 1.500000e+01
         vertex 7.062907e+00 -6.500539e+01 1.500000e+01
         vertex 9.145156e+00 -6.800539e+01 1.500000e+01
      endloop
   endfacet
   facet normal 0.000000e+00 0.000000e+00 1.000000e+00
      outer loop
         vertex 9.145156e+00 -6.800539e+01 1.500000e+01
         vertex 7.062907e+00 -6.500539e+01 1.500000e+01
         vertex -9.145156e+00 -6.800539e+01 1.500000e+01
      endloop
   endfacet
   facet normal -0.000000e+00 0.000000e+00 1.000000e+00
      outer loop
         vertex 7.062907e+00 -6.500539e+01 1.500000e+01
         vertex -7.062907e+00 -6.500539e+01 1.500000e+01
         vertex -9.145156e+00 -6.800539e+01 1.500000e+01
      endloop
   endfacet
   facet normal 0.000000e+00 0.000000e+00 1.000000e+00
      outer loop
         vertex -9.145156e+00 -6.800539e+01 1.500000e+01
         vertex -7.062907e+00 -6.500539e+01 1.500000e+01
         vertex -3.480164e+01 7.173496e-01 1.500000e+01
      endloop
   endfacet
   facet normal 0.000000e+00 0.000000e+00 1.000000e+00
      outer loop
         vertex -7.062907e+00 -6.500539e+01 1.500000e+01
         vertex -3.171426e+01 1.025022e+00 1.500000e+01
         vertex -3.480164e+01 7.173496e-01 1.500000e+01
      endloop
   endfacet
   facet normal 0.000000e+00 -0.000000e+00 1.000000e+00
      outer loop
         vertex -3.480164e+01 7.173496e-01 1.500000e+01
         vertex -3.171426e+01 1.025022e+00 1.500000e+01
         vertex -8.035558e+00 1.680054e+02 1.500000e+01
      endloop
   endfacet
   facet normal 0.000000e+00 0.000000e+00 1.000000e+00
      outer loop
         vertex -3.171426e+01 1.025022e+00 1.500000e+01
         vertex -5.477401e+00 1.650054e+02 1.500000e+01
         vertex -8.035558e+00 1.680054e+02 1.500000e+01
      endloop
   endfacet
   facet normal 0.000000e+00 -0.000000e+00 1.000000e+00
      outer loop
         vertex -8.035558e+00 1.680054e+02 1.500000e+01
         vertex -5.477401e+00 1.650054e+02 1.500000e+01
         vertex 8.035558e+00 1.680054e+02 1.500000e+01
      endloop
   endfacet
   facet normal 0.000000e+00 -0.000000e+00 1.000000e+00
      outer loop
         vertex -5.477401e+00 1.650054e+02 1.500000e+01
         vertex 5.477401e+00 1.650054e+02 1.500000e+01
         vertex 8.035558e+00 1.680054e+02 1.500000e+01
      endloop
   endfacet
   facet normal -0.000000e+00 0.000000e+00 1.000000e+00
      outer loop
         vertex 8.035558e+00 1.680054e+02 1.500000e+01
         vertex 5.477401e+00 1.650054e+02 1.500000e+01
         vertex 3.480164e+01 7.173496e-01 1.500000e+01
      endloop
   endfacet
   facet normal -0.000000e+00 -0.000000e+00 1.000000e+00
      outer loop
         vertex 5.477401e+00 1.650054e+02 1.500000e+01
         vertex 3.171426e+01 1.025022e+00 1.500000e+01
         vertex 3.480164e+01 7.173496e-01 1.500000e+01
      endloop
   endfacet
endsolid
