solid 
   facet normal -9.930579e-01 -6.362246e-17 -1.176265e-01
      outer loop
         vertex 1.088931e+01 1.173347e+00 9.344819e-01
         vertex 1.100000e+01 3.000000e+00 -1.469576e-15
         vertex 1.100000e+01 1.500000e+00 -6.582477e-16
      endloop
   endfacet
   facet normal -9.734694e-01 -5.467885e-02 -2.221882e-01
      outer loop
         vertex 1.088931e+01 1.173347e+00 9.344819e-01
         vertex 1.060388e+01 3.000000e+00 1.735535e+00
         vertex 1.100000e+01 3.000000e+00 -1.469576e-15
      endloop
   endfacet
   facet normal -7.818148e-01 -6.572385e-03 -6.234761e-01
      outer loop
         vertex 1.029436e+01 -1.076349e+01 2.268743e+00
         vertex 9.493959e+00 3.000000e+00 3.127326e+00
         vertex 1.060388e+01 3.000000e+00 1.735535e+00
      endloop
   endfacet
   facet normal -4.338717e-01 -7.411036e-03 -9.009442e-01
      outer loop
         vertex 8.812955e+00 -1.040609e+01 3.565557e+00
         vertex 7.890084e+00 3.000000e+00 3.899712e+00
         vertex 9.493959e+00 3.000000e+00 3.127326e+00
      endloop
   endfacet
   facet normal 0.000000e+00 -7.512053e-03 -9.999718e-01
      outer loop
         vertex 7.078564e+00 -1.024725e+01 3.999228e+00
         vertex 6.109916e+00 3.000000e+00 3.899712e+00
         vertex 7.890084e+00 3.000000e+00 3.899712e+00
      endloop
   endfacet
   facet normal 4.338717e-01 -7.416502e-03 -9.009441e-01
      outer loop
         vertex 5.189977e+00 -1.040558e+01 3.567046e+00
         vertex 4.506041e+00 3.000000e+00 3.127326e+00
         vertex 6.109916e+00 3.000000e+00 3.899712e+00
      endloop
   endfacet
   facet normal 7.818131e-01 -6.878170e-03 -6.234749e-01
      outer loop
         vertex 3.744050e+00 -1.075180e+01 2.323529e+00
         vertex 3.396125e+00 3.000000e+00 1.735535e+00
         vertex 4.506041e+00 3.000000e+00 3.127326e+00
      endloop
   endfacet
   facet normal 9.749089e-01 -6.236084e-03 -2.225167e-01
      outer loop
         vertex 3.041128e+00 -1.098511e+01 5.721283e-01
         vertex 3.000000e+00 3.000000e+00 -9.797175e-16
         vertex 3.396125e+00 3.000000e+00 1.735535e+00
      endloop
   endfacet
   facet normal 9.749142e-01 -5.294846e-03 2.225179e-01
      outer loop
         vertex 3.024118e+00 -1.099125e+01 -4.385926e-01
         vertex 3.396125e+00 3.000000e+00 -1.735535e+00
         vertex 3.000000e+00 3.000000e+00 -9.797175e-16
      endloop
   endfacet
   facet normal 7.818129e-01 -6.915144e-03 6.234748e-01
      outer loop
         vertex 3.749589e+00 -1.075012e+01 -2.331272e+00
         vertex 4.506041e+00 3.000000e+00 -3.127326e+00
         vertex 3.396125e+00 3.000000e+00 -1.735535e+00
      endloop
   endfacet
   facet normal 4.338715e-01 -7.473401e-03 9.009438e-01
      outer loop
         vertex 5.232783e+00 -1.039822e+01 -3.588446e+00
         vertex 6.109916e+00 3.000000e+00 -3.899712e+00
         vertex 4.506041e+00 3.000000e+00 -3.127326e+00
      endloop
   endfacet
   facet normal 0.000000e+00 -7.562500e-03 9.999714e-01
      outer loop
         vertex 6.971006e+00 -1.024699e+01 -3.999895e+00
         vertex 7.890084e+00 3.000000e+00 -3.899712e+00
         vertex 6.109916e+00 3.000000e+00 -3.899712e+00
      endloop
   endfacet
   facet normal -4.338720e-01 -7.312381e-03 9.009448e-01
      outer loop
         vertex 8.854148e+00 -1.041335e+01 -3.544310e+00
         vertex 9.493959e+00 3.000000e+00 -3.127326e+00
         vertex 7.890084e+00 3.000000e+00 -3.899712e+00
      endloop
   endfacet
   facet normal -7.818144e-01 -6.651028e-03 6.234758e-01
      outer loop
         vertex 1.028547e+01 -1.076078e+01 -2.281597e+00
         vertex 1.060388e+01 3.000000e+00 -1.735535e+00
         vertex 9.493959e+00 3.000000e+00 -3.127326e+00
      endloop
   endfacet
   facet normal -9.733632e-01 -5.663330e-02 2.221640e-01
      outer loop
         vertex 1.094318e+01 1.341136e+00 -6.718287e-01
         vertex 1.100000e+01 3.000000e+00 -1.469576e-15
         vertex 1.060388e+01 3.000000e+00 -1.735535e+00
      endloop
   endfacet
   facet normal -9.964423e-01 4.558495e-17 8.427835e-02
      outer loop
         vertex 1.094318e+01 1.341136e+00 -6.718287e-01
         vertex 1.100000e+01 1.500000e+00 -6.582477e-16
         vertex 1.100000e+01 3.000000e+00 -1.469576e-15
      endloop
   endfacet
   facet normal -9.644230e-01 -2.875045e-02 2.627959e-01
      outer loop
         vertex 1.060388e+01 3.000000e+00 -1.735535e+00
         vertex 1.080371e+01 8.474925e-01 -1.237642e+00
         vertex 1.094318e+01 1.341136e+00 -6.718287e-01
      endloop
   endfacet
   facet normal -9.359737e-01 -5.469190e-03 3.520275e-01
      outer loop
         vertex 1.060388e+01 3.000000e+00 -1.735535e+00
         vertex 1.071585e+01 2.399319e-01 -1.480687e+00
         vertex 1.080371e+01 8.474925e-01 -1.237642e+00
      endloop
   endfacet
   facet normal -9.325285e-01 -8.058296e-06 3.610963e-01
      outer loop
         vertex 1.074026e+01 -1.090823e+01 -1.417911e+00
         vertex 1.074378e+01 -5.156608e-01 -1.408579e+00
         vertex 1.071585e+01 2.399319e-01 -1.480687e+00
      endloop
   endfacet
   facet normal -9.559514e-01 6.056054e-05 2.935249e-01
      outer loop
         vertex 1.074026e+01 -1.090823e+01 -1.417911e+00
         vertex 1.088931e+01 -1.173347e+00 -9.344819e-01
         vertex 1.074378e+01 -5.156608e-01 -1.408579e+00
      endloop
   endfacet
   facet normal -9.931707e-01 -2.874221e-03 1.166351e-01
      outer loop
         vertex 1.097425e+01 -1.099066e+01 -4.531202e-01
         vertex 1.100000e+01 -1.500000e+00 -1.683889e-15
         vertex 1.088931e+01 -1.173347e+00 -9.344819e-01
      endloop
   endfacet
   facet normal -9.983895e-01 3.473754e-18 5.673072e-02
      outer loop
         vertex 1.097425e+01 -1.099066e+01 -4.531202e-01
         vertex 1.100000e+01 -1.100000e+01 -1.102182e-15
         vertex 1.100000e+01 -1.500000e+00 -1.683889e-15
      endloop
   endfacet
   facet normal -9.717589e-01 3.161501e-03 2.359546e-01
      outer loop
         vertex 1.088931e+01 -1.173347e+00 -9.344819e-01
         vertex 1.074026e+01 -1.090823e+01 -1.417911e+00
         vertex 1.097425e+01 -1.099066e+01 -4.531202e-01
      endloop
   endfacet
   facet normal -8.846866e-01 1.971091e-03 4.661821e-01
      outer loop
         vertex 1.060388e+01 3.000000e+00 -1.735535e+00
         vertex 1.028547e+01 -1.076078e+01 -2.281597e+00
         vertex 1.074026e+01 -1.090823e+01 -1.417911e+00
      endloop
   endfacet
   facet normal -7.472062e-01 -2.133607e-03 6.645888e-01
      outer loop
         vertex 9.493959e+00 3.000000e+00 -3.127326e+00
         vertex 9.646876e+00 -1.058329e+01 -2.999007e+00
         vertex 1.028547e+01 -1.076078e+01 -2.281597e+00
      endloop
   endfacet
   facet normal -5.665367e-01 1.406579e-03 8.240353e-01
      outer loop
         vertex 9.493959e+00 3.000000e+00 -3.127326e+00
         vertex 8.854148e+00 -1.041335e+01 -3.544310e+00
         vertex 9.646876e+00 -1.058329e+01 -2.999007e+00
      endloop
   endfacet
   facet normal -3.486342e-01 -2.238633e-04 9.372588e-01
      outer loop
         vertex 7.890084e+00 3.000000e+00 -3.899712e+00
         vertex 7.912644e+00 -1.028751e+01 -3.894494e+00
         vertex 8.854148e+00 -1.041335e+01 -3.544310e+00
      endloop
   endfacet
   facet normal -1.112308e-01 2.014124e-04 9.937946e-01
      outer loop
         vertex 7.890084e+00 3.000000e+00 -3.899712e+00
         vertex 6.971006e+00 -1.024699e+01 -3.999895e+00
         vertex 7.912644e+00 -1.028751e+01 -3.894494e+00
      endloop
   endfacet
   facet normal 1.126895e-01 -1.894259e-04 9.936302e-01
      outer loop
         vertex 6.109916e+00 3.000000e+00 -3.899712e+00
         vertex 6.132571e+00 -1.028360e+01 -3.904813e+00
         vertex 6.971006e+00 -1.024699e+01 -3.999895e+00
      endloop
   endfacet
   facet normal 3.316736e-01 2.033345e-04 9.433942e-01
      outer loop
         vertex 6.109916e+00 3.000000e+00 -3.899712e+00
         vertex 5.232783e+00 -1.039822e+01 -3.588446e+00
         vertex 6.132571e+00 -1.028360e+01 -3.904813e+00
      endloop
   endfacet
   facet normal 5.468872e-01 8.503929e-04 8.372059e-01
      outer loop
         vertex 4.506041e+00 3.000000e+00 -3.127326e+00
         vertex 4.423223e+00 -1.056597e+01 -3.059448e+00
         vertex 5.232783e+00 -1.039822e+01 -3.588446e+00
      endloop
   endfacet
   facet normal 7.341997e-01 -1.085046e-03 6.789327e-01
      outer loop
         vertex 4.506041e+00 3.000000e+00 -3.127326e+00
         vertex 3.749589e+00 -1.075012e+01 -2.331272e+00
         vertex 4.423223e+00 -1.056597e+01 -3.059448e+00
      endloop
   endfacet
   facet normal 8.815827e-01 2.211305e-03 4.720243e-01
      outer loop
         vertex 3.396125e+00 3.000000e+00 -1.735535e+00
         vertex 3.256847e+00 -1.090923e+01 -1.410250e+00
         vertex 3.749589e+00 -1.075012e+01 -2.331272e+00
      endloop
   endfacet
   facet normal 9.725669e-01 -4.299374e-03 2.325836e-01
      outer loop
         vertex 3.396125e+00 3.000000e+00 -1.735535e+00
         vertex 3.024118e+00 -1.099125e+01 -4.385926e-01
         vertex 3.256847e+00 -1.090923e+01 -1.410250e+00
      endloop
   endfacet
   facet normal 9.998557e-01 2.251460e-03 -1.684033e-02
      outer loop
         vertex 3.000000e+00 3.000000e+00 -9.797175e-16
         vertex 3.041128e+00 -1.098511e+01 5.721283e-01
         vertex 3.024118e+00 -1.099125e+01 -4.385926e-01
      endloop
   endfacet
   facet normal 9.665950e-01 -3.215589e-03 -2.562886e-01
      outer loop
         vertex 3.396125e+00 3.000000e+00 1.735535e+00
         vertex 3.278583e+00 -1.090179e+01 1.466647e+00
         vertex 3.041128e+00 -1.098511e+01 5.721283e-01
      endloop
   endfacet
   facet normal 8.785891e-01 1.808629e-03 -4.775751e-01
      outer loop
         vertex 3.396125e+00 3.000000e+00 1.735535e+00
         vertex 3.744050e+00 -1.075180e+01 2.323529e+00
         vertex 3.278583e+00 -1.090179e+01 1.466647e+00
      endloop
   endfacet
   facet normal 7.386051e-01 -1.522812e-03 -6.741366e-01
      outer loop
         vertex 4.506041e+00 3.000000e+00 3.127326e+00
         vertex 4.391296e+00 -1.057380e+01 3.032271e+00
         vertex 3.744050e+00 -1.075180e+01 2.323529e+00
      endloop
   endfacet
   facet normal 5.562084e-01 1.117838e-03 -8.310421e-01
      outer loop
         vertex 4.506041e+00 3.000000e+00 3.127326e+00
         vertex 5.189977e+00 -1.040558e+01 3.567046e+00
         vertex 4.391296e+00 -1.057380e+01 3.032271e+00
      endloop
   endfacet
   facet normal 3.369145e-01 2.443297e-04 -9.415352e-01
      outer loop
         vertex 6.109916e+00 3.000000e+00 3.899712e+00
         vertex 6.135818e+00 -1.028333e+01 3.905533e+00
         vertex 5.189977e+00 -1.040558e+01 3.567046e+00
      endloop
   endfacet
   facet normal 9.890739e-02 -2.432548e-04 -9.950966e-01
      outer loop
         vertex 6.109916e+00 3.000000e+00 3.899712e+00
         vertex 7.078564e+00 -1.024725e+01 3.999228e+00
         vertex 6.135818e+00 -1.028333e+01 3.905533e+00
      endloop
   endfacet
   facet normal -1.250709e-01 2.085026e-04 -9.921478e-01
      outer loop
         vertex 7.890084e+00 3.000000e+00 3.899712e+00
         vertex 7.916491e+00 -1.028786e+01 3.893590e+00
         vertex 7.078564e+00 -1.024725e+01 3.999228e+00
      endloop
   endfacet
   facet normal -3.436648e-01 -2.503551e-04 -9.390923e-01
      outer loop
         vertex 7.890084e+00 3.000000e+00 3.899712e+00
         vertex 8.812955e+00 -1.040609e+01 3.565557e+00
         vertex 7.916491e+00 -1.028786e+01 3.893590e+00
      endloop
   endfacet
   facet normal -5.578175e-01 1.205481e-03 -8.299628e-01
      outer loop
         vertex 9.493959e+00 3.000000e+00 3.127326e+00
         vertex 9.618040e+00 -1.057611e+01 3.024213e+00
         vertex 8.812955e+00 -1.040609e+01 3.565557e+00
      endloop
   endfacet
   facet normal -7.452726e-01 -1.747365e-03 -6.667576e-01
      outer loop
         vertex 9.493959e+00 3.000000e+00 3.127326e+00
         vertex 1.029436e+01 -1.076349e+01 2.268743e+00
         vertex 9.618040e+00 -1.057611e+01 3.024213e+00
      endloop
   endfacet
   facet normal -8.960594e-01 2.952727e-03 -4.439244e-01
      outer loop
         vertex 1.060388e+01 3.000000e+00 1.735535e+00
         vertex 1.080193e+01 -1.092953e+01 1.243108e+00
         vertex 1.029436e+01 -1.076349e+01 2.268743e+00
      endloop
   endfacet
   facet normal -9.874846e-01 5.154822e-03 -1.576315e-01
      outer loop
         vertex 1.094318e+01 -1.341136e+00 6.718287e-01
         vertex 1.100000e+01 -1.100000e+01 -1.102182e-15
         vertex 1.080193e+01 -1.092953e+01 1.243108e+00
      endloop
   endfacet
   facet normal -9.964423e-01 -5.160560e-18 -8.427835e-02
      outer loop
         vertex 1.094318e+01 -1.341136e+00 6.718287e-01
         vertex 1.100000e+01 -1.500000e+00 -1.683889e-15
         vertex 1.100000e+01 -1.100000e+01 -1.102182e-15
      endloop
   endfacet
   facet normal -9.709325e-01 4.196441e-05 -2.393536e-01
      outer loop
         vertex 1.080193e+01 -1.092953e+01 1.243108e+00
         vertex 1.080371e+01 -8.474925e-01 1.237642e+00
         vertex 1.094318e+01 -1.341136e+00 6.718287e-01
      endloop
   endfacet
   facet normal -9.404510e-01 -1.796044e-05 -3.399293e-01
      outer loop
         vertex 1.080193e+01 -1.092953e+01 1.243108e+00
         vertex 1.071585e+01 -2.399319e-01 1.480687e+00
         vertex 1.080371e+01 -8.474925e-01 1.237642e+00
      endloop
   endfacet
   facet normal -9.249756e-01 -2.077124e-03 -3.800208e-01
      outer loop
         vertex 1.060388e+01 3.000000e+00 1.735535e+00
         vertex 1.074378e+01 5.156608e-01 1.408579e+00
         vertex 1.071585e+01 -2.399319e-01 1.480687e+00
      endloop
   endfacet
   facet normal -9.507788e-01 -1.279731e-02 -3.096061e-01
      outer loop
         vertex 1.060388e+01 3.000000e+00 1.735535e+00
         vertex 1.088931e+01 1.173347e+00 9.344819e-01
         vertex 1.074378e+01 5.156608e-01 1.408579e+00
      endloop
   endfacet
   facet normal -9.144089e-01 2.776587e-04 4.047918e-01
      outer loop
         vertex 1.074026e+01 -1.090823e+01 -1.417911e+00
         vertex 1.071585e+01 2.399319e-01 -1.480687e+00
         vertex 1.060388e+01 3.000000e+00 -1.735535e+00
      endloop
   endfacet
   facet normal -9.051089e-01 2.161215e-03 -4.251742e-01
      outer loop
         vertex 1.071585e+01 -2.399319e-01 1.480687e+00
         vertex 1.080193e+01 -1.092953e+01 1.243108e+00
         vertex 1.060388e+01 3.000000e+00 1.735535e+00
      endloop
   endfacet
   facet normal 1.000000e+00 0.000000e+00 0.000000e+00
      outer loop
         vertex 1.500000e+01 -1.735535e+00 -3.603875e+00
         vertex 1.500000e+01 -4.898587e-16 -4.000000e+00
         vertex 1.500000e+01 -3.127326e+00 -2.493959e+00
      endloop
   endfacet
   facet normal 1.000000e+00 0.000000e+00 0.000000e+00
      outer loop
         vertex 1.500000e+01 -4.898587e-16 -4.000000e+00
         vertex 1.500000e+01 1.735535e+00 -3.603875e+00
         vertex 1.500000e+01 -3.127326e+00 -2.493959e+00
      endloop
   endfacet
   facet normal 1.000000e+00 0.000000e+00 0.000000e+00
      outer loop
         vertex 1.500000e+01 -3.127326e+00 -2.493959e+00
         vertex 1.500000e+01 1.735535e+00 -3.603875e+00
         vertex 1.500000e+01 -3.899712e+00 -8.900837e-01
      endloop
   endfacet
   facet normal 1.000000e+00 0.000000e+00 0.000000e+00
      outer loop
         vertex 1.500000e+01 1.735535e+00 -3.603875e+00
         vertex 1.500000e+01 3.127326e+00 -2.493959e+00
         vertex 1.500000e+01 -3.899712e+00 -8.900837e-01
      endloop
   endfacet
   facet normal 1.000000e+00 0.000000e+00 0.000000e+00
      outer loop
         vertex 1.500000e+01 -3.899712e+00 -8.900837e-01
         vertex 1.500000e+01 -7.500000e-01 -1.299038e+00
         vertex 1.500000e+01 -3.899712e+00 8.900837e-01
      endloop
   endfacet
   facet normal 1.000000e+00 0.000000e+00 0.000000e+00
      outer loop
         vertex 1.500000e+01 -7.500000e-01 -1.299038e+00
         vertex 1.500000e+01 -1.409539e+00 -5.130302e-01
         vertex 1.500000e+01 -3.899712e+00 8.900837e-01
      endloop
   endfacet
   facet normal 1.000000e+00 0.000000e+00 0.000000e+00
      outer loop
         vertex 1.500000e+01 -3.899712e+00 8.900837e-01
         vertex 1.500000e+01 -1.409539e+00 -5.130302e-01
         vertex 1.500000e+01 -3.127326e+00 2.493959e+00
      endloop
   endfacet
   facet normal 1.000000e+00 0.000000e+00 0.000000e+00
      outer loop
         vertex 1.500000e+01 -1.409539e+00 -5.130302e-01
         vertex 1.500000e+01 -1.409539e+00 5.130302e-01
         vertex 1.500000e+01 -3.127326e+00 2.493959e+00
      endloop
   endfacet
   facet normal 1.000000e+00 0.000000e+00 0.000000e+00
      outer loop
         vertex 1.500000e+01 -3.127326e+00 2.493959e+00
         vertex 1.500000e+01 -1.409539e+00 5.130302e-01
         vertex 1.500000e+01 -1.735535e+00 3.603875e+00
      endloop
   endfacet
   facet normal 1.000000e+00 0.000000e+00 0.000000e+00
      outer loop
         vertex 1.500000e+01 -1.409539e+00 5.130302e-01
         vertex 1.500000e+01 -7.500000e-01 1.299038e+00
         vertex 1.500000e+01 -1.735535e+00 3.603875e+00
      endloop
   endfacet
   facet normal 1.000000e+00 0.000000e+00 -0.000000e+00
      outer loop
         vertex 1.500000e+01 -1.735535e+00 3.603875e+00
         vertex 1.500000e+01 -7.500000e-01 1.299038e+00
         vertex 1.500000e+01 9.797175e-16 4.000000e+00
      endloop
   endfacet
   facet normal 1.000000e+00 0.000000e+00 0.000000e+00
      outer loop
         vertex 1.500000e+01 -7.500000e-01 1.299038e+00
         vertex 1.500000e+01 2.604723e-01 1.477212e+00
         vertex 1.500000e+01 9.797175e-16 4.000000e+00
      endloop
   endfacet
   facet normal 1.000000e+00 0.000000e+00 -0.000000e+00
      outer loop
         vertex 1.500000e+01 9.797175e-16 4.000000e+00
         vertex 1.500000e+01 2.604723e-01 1.477212e+00
         vertex 1.500000e+01 1.735535e+00 3.603875e+00
      endloop
   endfacet
   facet normal 1.000000e+00 0.000000e+00 -0.000000e+00
      outer loop
         vertex 1.500000e+01 2.604723e-01 1.477212e+00
         vertex 1.500000e+01 1.149067e+00 9.641814e-01
         vertex 1.500000e+01 1.735535e+00 3.603875e+00
      endloop
   endfacet
   facet normal 1.000000e+00 0.000000e+00 0.000000e+00
      outer loop
         vertex 1.500000e+01 1.735535e+00 3.603875e+00
         vertex 1.500000e+01 1.149067e+00 9.641814e-01
         vertex 1.500000e+01 3.127326e+00 2.493959e+00
      endloop
   endfacet
   facet normal 1.000000e+00 0.000000e+00 -0.000000e+00
      outer loop
         vertex 1.500000e+01 1.149067e+00 9.641814e-01
         vertex 1.500000e+01 1.500000e+00 -1.836970e-16
         vertex 1.500000e+01 3.127326e+00 2.493959e+00
      endloop
   endfacet
   facet normal 1.000000e+00 0.000000e+00 0.000000e+00
      outer loop
         vertex 1.500000e+01 3.127326e+00 2.493959e+00
         vertex 1.500000e+01 1.500000e+00 -1.836970e-16
         vertex 1.500000e+01 3.899712e+00 8.900837e-01
      endloop
   endfacet
   facet normal 1.000000e+00 0.000000e+00 0.000000e+00
      outer loop
         vertex 1.500000e+01 1.500000e+00 -1.836970e-16
         vertex 1.500000e+01 1.149067e+00 -9.641814e-01
         vertex 1.500000e+01 3.899712e+00 8.900837e-01
      endloop
   endfacet
   facet normal 1.000000e+00 0.000000e+00 0.000000e+00
      outer loop
         vertex 1.500000e+01 3.899712e+00 8.900837e-01
         vertex 1.500000e+01 1.149067e+00 -9.641814e-01
         vertex 1.500000e+01 3.899712e+00 -8.900837e-01
      endloop
   endfacet
   facet normal 1.000000e+00 0.000000e+00 0.000000e+00
      outer loop
         vertex 1.500000e+01 1.149067e+00 -9.641814e-01
         vertex 1.500000e+01 2.604723e-01 -1.477212e+00
         vertex 1.500000e+01 3.899712e+00 -8.900837e-01
      endloop
   endfacet
   facet normal 1.000000e+00 -0.000000e+00 0.000000e+00
      outer loop
         vertex 1.500000e+01 3.899712e+00 -8.900837e-01
         vertex 1.500000e+01 2.604723e-01 -1.477212e+00
         vertex 1.500000e+01 3.127326e+00 -2.493959e+00
      endloop
   endfacet
   facet normal 1.000000e+00 0.000000e+00 0.000000e+00
      outer loop
         vertex 1.500000e+01 2.604723e-01 -1.477212e+00
         vertex 1.500000e+01 -7.500000e-01 -1.299038e+00
         vertex 1.500000e+01 3.127326e+00 -2.493959e+00
      endloop
   endfacet
   facet normal 1.000000e+00 0.000000e+00 0.000000e+00
      outer loop
         vertex 1.500000e+01 3.127326e+00 -2.493959e+00
         vertex 1.500000e+01 -7.500000e-01 -1.299038e+00
         vertex 1.500000e+01 -3.899712e+00 -8.900837e-01
      endloop
   endfacet
   facet normal 3.914761e-17 -9.439892e-01 -3.299762e-01
      outer loop
         vertex 1.088931e+01 1.173347e+00 9.344819e-01
         vertex 1.100000e+01 1.500000e+00 -6.582477e-16
         vertex 1.500000e+01 1.500000e+00 -1.836970e-16
      endloop
   endfacet
   facet normal 2.403031e-03 -5.851098e-01 -8.109505e-01
      outer loop
         vertex 1.500000e+01 1.149067e+00 9.641814e-01
         vertex 1.074378e+01 5.156608e-01 1.408579e+00
         vertex 1.088931e+01 1.173347e+00 9.344819e-01
      endloop
   endfacet
   facet normal 1.033266e-02 -9.537403e-02 -9.953879e-01
      outer loop
         vertex 1.500000e+01 2.604723e-01 1.477212e+00
         vertex 1.071585e+01 -2.399319e-01 1.480687e+00
         vertex 1.074378e+01 5.156608e-01 1.408579e+00
      endloop
   endfacet
   facet normal 4.937389e-03 3.720289e-01 -9.282080e-01
      outer loop
         vertex 1.500000e+01 -7.500000e-01 1.299038e+00
         vertex 1.080371e+01 -8.474925e-01 1.237642e+00
         vertex 1.071585e+01 -2.399319e-01 1.480687e+00
      endloop
   endfacet
   facet normal -7.849404e-03 7.525455e-01 -6.584934e-01
      outer loop
         vertex 1.500000e+01 -7.500000e-01 1.299038e+00
         vertex 1.094318e+01 -1.341136e+00 6.718287e-01
         vertex 1.080371e+01 -8.474925e-01 1.237642e+00
      endloop
   endfacet
   facet normal 7.426467e-03 9.732762e-01 -2.295175e-01
      outer loop
         vertex 1.500000e+01 -1.409539e+00 5.130302e-01
         vertex 1.100000e+01 -1.500000e+00 -1.683889e-15
         vertex 1.094318e+01 -1.341136e+00 6.718287e-01
      endloop
   endfacet
   facet normal 2.067175e-02 9.445477e-01 3.277229e-01
      outer loop
         vertex 1.500000e+01 -1.409539e+00 -5.130302e-01
         vertex 1.088931e+01 -1.173347e+00 -9.344819e-01
         vertex 1.100000e+01 -1.500000e+00 -1.683889e-15
      endloop
   endfacet
   facet normal 1.144004e-02 5.863879e-01 8.099496e-01
      outer loop
         vertex 1.500000e+01 -7.500000e-01 -1.299038e+00
         vertex 1.074378e+01 -5.156608e-01 -1.408579e+00
         vertex 1.088931e+01 -1.173347e+00 -9.344819e-01
      endloop
   endfacet
   facet normal -1.262713e-03 9.495431e-02 9.954808e-01
      outer loop
         vertex 1.500000e+01 2.604723e-01 -1.477212e+00
         vertex 1.071585e+01 2.399319e-01 -1.480687e+00
         vertex 1.074378e+01 -5.156608e-01 -1.408579e+00
      endloop
   endfacet
   facet normal 1.028330e-03 -3.715460e-01 9.284140e-01
      outer loop
         vertex 1.500000e+01 2.604723e-01 -1.477212e+00
         vertex 1.080371e+01 8.474925e-01 -1.237642e+00
         vertex 1.071585e+01 2.399319e-01 -1.480687e+00
      endloop
   endfacet
   facet normal 1.151714e-02 -7.548826e-01 6.557589e-01
      outer loop
         vertex 1.500000e+01 1.149067e+00 -9.641814e-01
         vertex 1.094318e+01 1.341136e+00 -6.718287e-01
         vertex 1.080371e+01 8.474925e-01 -1.237642e+00
      endloop
   endfacet
   facet normal -2.730075e-17 -9.731626e-01 2.301188e-01
      outer loop
         vertex 1.500000e+01 1.500000e+00 -1.836970e-16
         vertex 1.100000e+01 1.500000e+00 -6.582477e-16
         vertex 1.094318e+01 1.341136e+00 -6.718287e-01
      endloop
   endfacet
   facet normal -1.983815e-02 -9.395077e-01 3.419528e-01
      outer loop
         vertex 1.094318e+01 1.341136e+00 -6.718287e-01
         vertex 1.500000e+01 1.149067e+00 -9.641814e-01
         vertex 1.500000e+01 1.500000e+00 -1.836970e-16
      endloop
   endfacet
   facet normal -2.049867e-02 -4.998949e-01 8.658435e-01
      outer loop
         vertex 1.080371e+01 8.474925e-01 -1.237642e+00
         vertex 1.500000e+01 2.604723e-01 -1.477212e+00
         vertex 1.500000e+01 1.149067e+00 -9.641814e-01
      endloop
   endfacet
   facet normal -1.578290e-02 1.736266e-01 9.846851e-01
      outer loop
         vertex 1.074378e+01 -5.156608e-01 -1.408579e+00
         vertex 1.500000e+01 -7.500000e-01 -1.299038e+00
         vertex 1.500000e+01 2.604723e-01 -1.477212e+00
      endloop
   endfacet
   facet normal -2.188173e-02 7.658610e-01 6.426338e-01
      outer loop
         vertex 1.088931e+01 -1.173347e+00 -9.344819e-01
         vertex 1.500000e+01 -1.409539e+00 -5.130302e-01
         vertex 1.500000e+01 -7.500000e-01 -1.299038e+00
      endloop
   endfacet
   facet normal -2.260947e-02 9.997444e-01 0.000000e+00
      outer loop
         vertex 1.100000e+01 -1.500000e+00 -1.683889e-15
         vertex 1.500000e+01 -1.409539e+00 5.130302e-01
         vertex 1.500000e+01 -1.409539e+00 -5.130302e-01
      endloop
   endfacet
   facet normal -1.224366e-02 7.659870e-01 -6.427395e-01
      outer loop
         vertex 1.094318e+01 -1.341136e+00 6.718287e-01
         vertex 1.500000e+01 -7.500000e-01 1.299038e+00
         vertex 1.500000e+01 -1.409539e+00 5.130302e-01
      endloop
   endfacet
   facet normal -2.107686e-02 1.736096e-01 -9.845890e-01
      outer loop
         vertex 1.071585e+01 -2.399319e-01 1.480687e+00
         vertex 1.500000e+01 2.604723e-01 1.477212e+00
         vertex 1.500000e+01 -7.500000e-01 1.299038e+00
      endloop
   endfacet
   facet normal -1.601131e-02 -4.999359e-01 -8.659144e-01
      outer loop
         vertex 1.074378e+01 5.156608e-01 1.408579e+00
         vertex 1.500000e+01 1.149067e+00 9.641814e-01
         vertex 1.500000e+01 2.604723e-01 1.477212e+00
      endloop
   endfacet
   facet normal -3.079351e-03 -9.396882e-01 -3.420185e-01
      outer loop
         vertex 1.088931e+01 1.173347e+00 9.344819e-01
         vertex 1.500000e+01 1.500000e+00 -1.836970e-16
         vertex 1.500000e+01 1.149067e+00 9.641814e-01
      endloop
   endfacet
   facet normal 2.501338e-17 9.906860e-01 1.361665e-01
      outer loop
         vertex 1.400000e+01 1.100000e+01 -1.898203e-15
         vertex 1.237302e-31 1.100000e+01 6.735557e-16
         vertex 5.451695e-16 1.059209e+01 2.967764e+00
      endloop
   endfacet
   facet normal -0.000000e+00 9.172112e-01 3.984013e-01
      outer loop
         vertex 5.451695e-16 1.059209e+01 2.967764e+00
         vertex 1.049906e-15 9.398613e+00 5.715424e+00
         vertex 1.400000e+01 9.398613e+00 5.715424e+00
      endloop
   endfacet
   facet normal -0.000000e+00 7.757114e-01 6.310878e-01
      outer loop
         vertex 1.049906e-15 9.398613e+00 5.715424e+00
         vertex 1.476776e-15 7.508085e+00 8.039196e+00
         vertex 1.400000e+01 7.508085e+00 8.039196e+00
      endloop
   endfacet
   facet normal -0.000000e+00 5.766801e-01 8.169701e-01
      outer loop
         vertex 1.476776e-15 7.508085e+00 8.039196e+00
         vertex 1.794121e-15 5.060715e+00 9.766737e+00
         vertex 1.400000e+01 5.060715e+00 9.766737e+00
      endloop
   endfacet
   facet normal -0.000000e+00 3.348798e-01 9.422609e-01
      outer loop
         vertex 1.794121e-15 5.060715e+00 9.766737e+00
         vertex 1.978403e-15 2.238016e+00 1.076993e+01
         vertex 1.400000e+01 2.238016e+00 1.076993e+01
      endloop
   endfacet
   facet normal -0.000000e+00 6.824243e-02 9.976688e-01
      outer loop
         vertex 1.978403e-15 2.238016e+00 1.076993e+01
         vertex 2.015957e-15 -7.506666e-01 1.097436e+01
         vertex 1.400000e+01 -7.506666e-01 1.097436e+01
      endloop
   endfacet
   facet normal 0.000000e+00 -2.034561e-01 9.790841e-01
      outer loop
         vertex 2.015957e-15 -7.506666e-01 1.097436e+01
         vertex 1.903996e-15 -3.683676e+00 1.036487e+01
         vertex 1.400000e+01 -3.683676e+00 1.036487e+01
      endloop
   endfacet
   facet normal 0.000000e+00 -4.600651e-01 8.878852e-01
      outer loop
         vertex 1.903996e-15 -3.683676e+00 1.036487e+01
         vertex 1.650824e-15 -6.343483e+00 8.986669e+00
         vertex 1.400000e+01 -6.343483e+00 8.986669e+00
      endloop
   endfacet
   facet normal 0.000000e+00 -6.825530e-01 7.308361e-01
      outer loop
         vertex 1.650824e-15 -6.343483e+00 8.986669e+00
         vertex 1.275219e-15 -8.532825e+00 6.941967e+00
         vertex 1.400000e+01 -8.532825e+00 6.941967e+00
      endloop
   endfacet
   facet normal 0.000000e+00 -8.544195e-01 5.195838e-01
      outer loop
         vertex 1.275219e-15 -8.532825e+00 6.941967e+00
         vertex 8.050360e-16 -1.008932e+01 4.382412e+00
         vertex 1.400000e+01 -1.008932e+01 4.382412e+00
      endloop
   endfacet
   facet normal -2.327838e-02 -9.626563e-01 2.697239e-01
      outer loop
         vertex 8.050360e-16 -1.008932e+01 4.382412e+00
         vertex 2.751475e-16 -1.089755e+01 1.497833e+00
         vertex 4.391296e+00 -1.057380e+01 3.032271e+00
      endloop
   endfacet
   facet normal -3.097172e-02 -9.995203e-01 5.689412e-18
      outer loop
         vertex 2.751475e-16 -1.089755e+01 1.497833e+00
         vertex -2.751475e-16 -1.089755e+01 -1.497833e+00
         vertex 3.024118e+00 -1.099125e+01 -4.385926e-01
      endloop
   endfacet
   facet normal -2.306325e-02 -9.626611e-01 -2.697252e-01
      outer loop
         vertex -2.751475e-16 -1.089755e+01 -1.497833e+00
         vertex -8.050360e-16 -1.008932e+01 -4.382412e+00
         vertex 4.423223e+00 -1.056597e+01 -3.059448e+00
      endloop
   endfacet
   facet normal 0.000000e+00 -8.544195e-01 -5.195838e-01
      outer loop
         vertex -8.050360e-16 -1.008932e+01 -4.382412e+00
         vertex -1.275219e-15 -8.532825e+00 -6.941967e+00
         vertex 1.400000e+01 -8.532825e+00 -6.941967e+00
      endloop
   endfacet
   facet normal 0.000000e+00 -6.825530e-01 -7.308361e-01
      outer loop
         vertex -1.275219e-15 -8.532825e+00 -6.941967e+00
         vertex -1.650824e-15 -6.343483e+00 -8.986669e+00
         vertex 1.400000e+01 -6.343483e+00 -8.986669e+00
      endloop
   endfacet
   facet normal 0.000000e+00 -4.600651e-01 -8.878852e-01
      outer loop
         vertex -1.650824e-15 -6.343483e+00 -8.986669e+00
         vertex -1.903996e-15 -3.683676e+00 -1.036487e+01
         vertex 1.400000e+01 -3.683676e+00 -1.036487e+01
      endloop
   endfacet
   facet normal 0.000000e+00 -2.034561e-01 -9.790841e-01
      outer loop
         vertex -1.903996e-15 -3.683676e+00 -1.036487e+01
         vertex -2.015957e-15 -7.506666e-01 -1.097436e+01
         vertex 1.400000e+01 -7.506666e-01 -1.097436e+01
      endloop
   endfacet
   facet normal 0.000000e+00 6.824243e-02 -9.976688e-01
      outer loop
         vertex -2.015957e-15 -7.506666e-01 -1.097436e+01
         vertex -1.978403e-15 2.238016e+00 -1.076993e+01
         vertex 1.400000e+01 2.238016e+00 -1.076993e+01
      endloop
   endfacet
   facet normal 0.000000e+00 3.348798e-01 -9.422609e-01
      outer loop
         vertex -1.978403e-15 2.238016e+00 -1.076993e+01
         vertex -1.794121e-15 5.060715e+00 -9.766737e+00
         vertex 1.400000e+01 5.060715e+00 -9.766737e+00
      endloop
   endfacet
   facet normal 0.000000e+00 5.766801e-01 -8.169701e-01
      outer loop
         vertex -1.794121e-15 5.060715e+00 -9.766737e+00
         vertex -1.476776e-15 7.508085e+00 -8.039196e+00
         vertex 1.400000e+01 7.508085e+00 -8.039196e+00
      endloop
   endfacet
   facet normal 0.000000e+00 7.757114e-01 -6.310878e-01
      outer loop
         vertex -1.476776e-15 7.508085e+00 -8.039196e+00
         vertex -1.049906e-15 9.398613e+00 -5.715424e+00
         vertex 1.400000e+01 9.398613e+00 -5.715424e+00
      endloop
   endfacet
   facet normal 0.000000e+00 9.172112e-01 -3.984013e-01
      outer loop
         vertex -1.049906e-15 9.398613e+00 -5.715424e+00
         vertex -5.451695e-16 1.059209e+01 -2.967764e+00
         vertex 1.400000e+01 1.059209e+01 -2.967764e+00
      endloop
   endfacet
   facet normal -2.501338e-17 9.906860e-01 -1.361665e-01
      outer loop
         vertex -5.451695e-16 1.059209e+01 -2.967764e+00
         vertex 1.237302e-31 1.100000e+01 6.735557e-16
         vertex 1.400000e+01 1.100000e+01 -1.898203e-15
      endloop
   endfacet
   facet normal 0.000000e+00 9.906860e-01 -1.361665e-01
      outer loop
         vertex 1.400000e+01 1.100000e+01 -1.898203e-15
         vertex 1.400000e+01 1.059209e+01 -2.967764e+00
         vertex -5.451695e-16 1.059209e+01 -2.967764e+00
      endloop
   endfacet
   facet normal 0.000000e+00 9.172112e-01 -3.984013e-01
      outer loop
         vertex 1.400000e+01 1.059209e+01 -2.967764e+00
         vertex 1.400000e+01 9.398613e+00 -5.715424e+00
         vertex -1.049906e-15 9.398613e+00 -5.715424e+00
      endloop
   endfacet
   facet normal 0.000000e+00 7.757114e-01 -6.310878e-01
      outer loop
         vertex 1.400000e+01 9.398613e+00 -5.715424e+00
         vertex 1.400000e+01 7.508085e+00 -8.039196e+00
         vertex -1.476776e-15 7.508085e+00 -8.039196e+00
      endloop
   endfacet
   facet normal 0.000000e+00 5.766801e-01 -8.169701e-01
      outer loop
         vertex 1.400000e+01 7.508085e+00 -8.039196e+00
         vertex 1.400000e+01 5.060715e+00 -9.766737e+00
         vertex -1.794121e-15 5.060715e+00 -9.766737e+00
      endloop
   endfacet
   facet normal 0.000000e+00 3.348798e-01 -9.422609e-01
      outer loop
         vertex 1.400000e+01 5.060715e+00 -9.766737e+00
         vertex 1.400000e+01 2.238016e+00 -1.076993e+01
         vertex -1.978403e-15 2.238016e+00 -1.076993e+01
      endloop
   endfacet
   facet normal 0.000000e+00 6.824243e-02 -9.976688e-01
      outer loop
         vertex 1.400000e+01 2.238016e+00 -1.076993e+01
         vertex 1.400000e+01 -7.506666e-01 -1.097436e+01
         vertex -2.015957e-15 -7.506666e-01 -1.097436e+01
      endloop
   endfacet
   facet normal -0.000000e+00 -2.034561e-01 -9.790841e-01
      outer loop
         vertex 1.400000e+01 -7.506666e-01 -1.097436e+01
         vertex 1.400000e+01 -3.683676e+00 -1.036487e+01
         vertex -1.903996e-15 -3.683676e+00 -1.036487e+01
      endloop
   endfacet
   facet normal -0.000000e+00 -4.600651e-01 -8.878852e-01
      outer loop
         vertex 1.400000e+01 -3.683676e+00 -1.036487e+01
         vertex 1.400000e+01 -6.343483e+00 -8.986669e+00
         vertex -1.650824e-15 -6.343483e+00 -8.986669e+00
      endloop
   endfacet
   facet normal -0.000000e+00 -6.825530e-01 -7.308361e-01
      outer loop
         vertex 1.400000e+01 -6.343483e+00 -8.986669e+00
         vertex 1.400000e+01 -8.532825e+00 -6.941967e+00
         vertex -1.275219e-15 -8.532825e+00 -6.941967e+00
      endloop
   endfacet
   facet normal -0.000000e+00 -8.544195e-01 -5.195838e-01
      outer loop
         vertex 1.400000e+01 -8.532825e+00 -6.941967e+00
         vertex 1.400000e+01 -1.008932e+01 -4.382412e+00
         vertex -8.050360e-16 -1.008932e+01 -4.382412e+00
      endloop
   endfacet
   facet normal 2.351831e-02 -9.626509e-01 -2.697224e-01
      outer loop
         vertex 1.400000e+01 -1.008932e+01 -4.382412e+00
         vertex 1.400000e+01 -1.089755e+01 -1.497833e+00
         vertex 9.646876e+00 -1.058329e+01 -2.999007e+00
      endloop
   endfacet
   facet normal 3.413150e-02 -9.994174e-01 0.000000e+00
      outer loop
         vertex 1.400000e+01 -1.089755e+01 -1.497833e+00
         vertex 1.400000e+01 -1.089755e+01 1.497833e+00
         vertex 1.100000e+01 -1.100000e+01 -1.102182e-15
      endloop
   endfacet
   facet normal 2.333897e-02 -9.626549e-01 2.697235e-01
      outer loop
         vertex 1.400000e+01 -1.089755e+01 1.497833e+00
         vertex 1.400000e+01 -1.008932e+01 4.382412e+00
         vertex 9.618040e+00 -1.057611e+01 3.024213e+00
      endloop
   endfacet
   facet normal 0.000000e+00 -8.544195e-01 5.195838e-01
      outer loop
         vertex 1.400000e+01 -1.008932e+01 4.382412e+00
         vertex 1.400000e+01 -8.532825e+00 6.941967e+00
         vertex 1.275219e-15 -8.532825e+00 6.941967e+00
      endloop
   endfacet
   facet normal 0.000000e+00 -6.825530e-01 7.308361e-01
      outer loop
         vertex 1.400000e+01 -8.532825e+00 6.941967e+00
         vertex 1.400000e+01 -6.343483e+00 8.986669e+00
         vertex 1.650824e-15 -6.343483e+00 8.986669e+00
      endloop
   endfacet
   facet normal 0.000000e+00 -4.600651e-01 8.878852e-01
      outer loop
         vertex 1.400000e+01 -6.343483e+00 8.986669e+00
         vertex 1.400000e+01 -3.683676e+00 1.036487e+01
         vertex 1.903996e-15 -3.683676e+00 1.036487e+01
      endloop
   endfacet
   facet normal 0.000000e+00 -2.034561e-01 9.790841e-01
      outer loop
         vertex 1.400000e+01 -3.683676e+00 1.036487e+01
         vertex 1.400000e+01 -7.506666e-01 1.097436e+01
         vertex 2.015957e-15 -7.506666e-01 1.097436e+01
      endloop
   endfacet
   facet normal 0.000000e+00 6.824243e-02 9.976688e-01
      outer loop
         vertex 1.400000e+01 -7.506666e-01 1.097436e+01
         vertex 1.400000e+01 2.238016e+00 1.076993e+01
         vertex 1.978403e-15 2.238016e+00 1.076993e+01
      endloop
   endfacet
   facet normal 0.000000e+00 3.348798e-01 9.422609e-01
      outer loop
         vertex 1.400000e+01 2.238016e+00 1.076993e+01
         vertex 1.400000e+01 5.060715e+00 9.766737e+00
         vertex 1.794121e-15 5.060715e+00 9.766737e+00
      endloop
   endfacet
   facet normal 0.000000e+00 5.766801e-01 8.169701e-01
      outer loop
         vertex 1.400000e+01 5.060715e+00 9.766737e+00
         vertex 1.400000e+01 7.508085e+00 8.039196e+00
         vertex 1.476776e-15 7.508085e+00 8.039196e+00
      endloop
   endfacet
   facet normal 0.000000e+00 7.757114e-01 6.310878e-01
      outer loop
         vertex 1.400000e+01 7.508085e+00 8.039196e+00
         vertex 1.400000e+01 9.398613e+00 5.715424e+00
         vertex 1.049906e-15 9.398613e+00 5.715424e+00
      endloop
   endfacet
   facet normal 0.000000e+00 9.172112e-01 3.984013e-01
      outer loop
         vertex 1.400000e+01 9.398613e+00 5.715424e+00
         vertex 1.400000e+01 1.059209e+01 2.967764e+00
         vertex 5.451695e-16 1.059209e+01 2.967764e+00
      endloop
   endfacet
   facet normal 0.000000e+00 9.906860e-01 1.361665e-01
      outer loop
         vertex 1.400000e+01 1.059209e+01 2.967764e+00
         vertex 1.400000e+01 1.100000e+01 -1.898203e-15
         vertex 5.451695e-16 1.059209e+01 2.967764e+00
      endloop
   endfacet
   facet normal 5.409213e-03 -9.983335e-01 5.745354e-02
      outer loop
         vertex 1.080193e+01 -1.092953e+01 1.243108e+00
         vertex 1.100000e+01 -1.100000e+01 -1.102182e-15
         vertex 1.400000e+01 -1.089755e+01 1.497833e+00
      endloop
   endfacet
   facet normal 2.319370e-02 -9.994908e-01 -2.191227e-02
      outer loop
         vertex 1.100000e+01 -1.100000e+01 -1.102182e-15
         vertex 1.097425e+01 -1.099066e+01 -4.531202e-01
         vertex 1.400000e+01 -1.089755e+01 -1.497833e+00
      endloop
   endfacet
   facet normal 1.172036e-03 -9.963450e-01 -8.541206e-02
      outer loop
         vertex 1.097425e+01 -1.099066e+01 -4.531202e-01
         vertex 1.074026e+01 -1.090823e+01 -1.417911e+00
         vertex 1.400000e+01 -1.089755e+01 -1.497833e+00
      endloop
   endfacet
   facet normal -8.834705e-04 -9.858137e-01 -1.678406e-01
      outer loop
         vertex 1.074026e+01 -1.090823e+01 -1.417911e+00
         vertex 1.028547e+01 -1.076078e+01 -2.281597e+00
         vertex 1.400000e+01 -1.089755e+01 -1.497833e+00
      endloop
   endfacet
   facet normal 1.830748e-02 -9.666492e-01 -2.554490e-01
      outer loop
         vertex 1.028547e+01 -1.076078e+01 -2.281597e+00
         vertex 9.646876e+00 -1.058329e+01 -2.999007e+00
         vertex 1.400000e+01 -1.089755e+01 -1.497833e+00
      endloop
   endfacet
   facet normal 9.387769e-03 -9.507148e-01 -3.099246e-01
      outer loop
         vertex 9.646876e+00 -1.058329e+01 -2.999007e+00
         vertex 8.854148e+00 -1.041335e+01 -3.544310e+00
         vertex 1.400000e+01 -1.008932e+01 -4.382412e+00
      endloop
   endfacet
   facet normal 2.899339e-03 -9.385730e-01 -3.450686e-01
      outer loop
         vertex 8.854148e+00 -1.041335e+01 -3.544310e+00
         vertex 7.912644e+00 -1.028751e+01 -3.894494e+00
         vertex 1.400000e+01 -1.008932e+01 -4.382412e+00
      endloop
   endfacet
   facet normal 9.453441e-04 -9.305417e-01 -3.661848e-01
      outer loop
         vertex 7.912644e+00 -1.028751e+01 -3.894494e+00
         vertex 6.971006e+00 -1.024699e+01 -3.999895e+00
         vertex 1.400000e+01 -1.008932e+01 -4.382412e+00
      endloop
   endfacet
   facet normal -9.348879e-04 -9.304286e-01 -3.664720e-01
      outer loop
         vertex 6.971006e+00 -1.024699e+01 -3.999895e+00
         vertex 6.132571e+00 -1.028360e+01 -3.904813e+00
         vertex -8.050360e-16 -1.008932e+01 -4.382412e+00
      endloop
   endfacet
   facet normal -2.658364e-03 -9.377438e-01 -3.473175e-01
      outer loop
         vertex 6.132571e+00 -1.028360e+01 -3.904813e+00
         vertex 5.232783e+00 -1.039822e+01 -3.588446e+00
         vertex -8.050360e-16 -1.008932e+01 -4.382412e+00
      endloop
   endfacet
   facet normal -8.411861e-03 -9.494070e-01 -3.139357e-01
      outer loop
         vertex 5.232783e+00 -1.039822e+01 -3.588446e+00
         vertex 4.423223e+00 -1.056597e+01 -3.059448e+00
         vertex -8.050360e-16 -1.008932e+01 -4.382412e+00
      endloop
   endfacet
   facet normal -2.051580e-02 -9.645992e-01 -2.629212e-01
      outer loop
         vertex 4.423223e+00 -1.056597e+01 -3.059448e+00
         vertex 3.749589e+00 -1.075012e+01 -2.331272e+00
         vertex -2.751475e-16 -1.089755e+01 -1.497833e+00
      endloop
   endfacet
   facet normal 1.029089e-03 -9.854972e-01 -1.696886e-01
      outer loop
         vertex 3.749589e+00 -1.075012e+01 -2.331272e+00
         vertex 3.256847e+00 -1.090923e+01 -1.410250e+00
         vertex -2.751475e-16 -1.089755e+01 -1.497833e+00
      endloop
   endfacet
   facet normal -1.302867e-03 -9.964285e-01 -8.443067e-02
      outer loop
         vertex 3.256847e+00 -1.090923e+01 -1.410250e+00
         vertex 3.024118e+00 -1.099125e+01 -4.385926e-01
         vertex -2.751475e-16 -1.089755e+01 -1.497833e+00
      endloop
   endfacet
   facet normal -2.679655e-02 -9.996196e-01 6.525166e-03
      outer loop
         vertex 3.024118e+00 -1.099125e+01 -4.385926e-01
         vertex 3.041128e+00 -1.098511e+01 5.721283e-01
         vertex 2.751475e-16 -1.089755e+01 1.497833e+00
      endloop
   endfacet
   facet normal -4.047153e-04 -9.956796e-01 9.285499e-02
      outer loop
         vertex 3.041128e+00 -1.098511e+01 5.721283e-01
         vertex 3.278583e+00 -1.090179e+01 1.466647e+00
         vertex 2.751475e-16 -1.089755e+01 1.497833e+00
      endloop
   endfacet
   facet normal 3.639852e-04 -9.850577e-01 1.722240e-01
      outer loop
         vertex 3.278583e+00 -1.090179e+01 1.466647e+00
         vertex 3.744050e+00 -1.075180e+01 2.323529e+00
         vertex 2.751475e-16 -1.089755e+01 1.497833e+00
      endloop
   endfacet
   facet normal -1.989379e-02 -9.652461e-01 2.605842e-01
      outer loop
         vertex 3.744050e+00 -1.075180e+01 2.323529e+00
         vertex 4.391296e+00 -1.057380e+01 3.032271e+00
         vertex 2.751475e-16 -1.089755e+01 1.497833e+00
      endloop
   endfacet
   facet normal -8.862760e-03 -9.500163e-01 3.120746e-01
      outer loop
         vertex 4.391296e+00 -1.057380e+01 3.032271e+00
         vertex 5.189977e+00 -1.040558e+01 3.567046e+00
         vertex 8.050360e-16 -1.008932e+01 4.382412e+00
      endloop
   endfacet
   facet normal -2.733240e-03 -9.380630e-01 3.464539e-01
      outer loop
         vertex 5.189977e+00 -1.040558e+01 3.567046e+00
         vertex 6.135818e+00 -1.028333e+01 3.905533e+00
         vertex 8.050360e-16 -1.008932e+01 4.382412e+00
      endloop
   endfacet
   facet normal -8.838951e-04 -9.302007e-01 3.670502e-01
      outer loop
         vertex 6.135818e+00 -1.028333e+01 3.905533e+00
         vertex 7.078564e+00 -1.024725e+01 3.999228e+00
         vertex 8.050360e-16 -1.008932e+01 4.382412e+00
      endloop
   endfacet
   facet normal 9.947056e-04 -9.307559e-01 3.656399e-01
      outer loop
         vertex 7.078564e+00 -1.024725e+01 3.999228e+00
         vertex 7.916491e+00 -1.028786e+01 3.893590e+00
         vertex 1.400000e+01 -1.008932e+01 4.382412e+00
      endloop
   endfacet
   facet normal 2.824580e-03 -9.382616e-01 3.459150e-01
      outer loop
         vertex 7.916491e+00 -1.028786e+01 3.893590e+00
         vertex 8.812955e+00 -1.040609e+01 3.565557e+00
         vertex 1.400000e+01 -1.008932e+01 4.382412e+00
      endloop
   endfacet
   facet normal 8.938350e-03 -9.501390e-01 3.116985e-01
      outer loop
         vertex 8.812955e+00 -1.040609e+01 3.565557e+00
         vertex 9.618040e+00 -1.057611e+01 3.024213e+00
         vertex 1.400000e+01 -1.008932e+01 4.382412e+00
      endloop
   endfacet
   facet normal 1.832017e-02 -9.664716e-01 2.561192e-01
      outer loop
         vertex 9.618040e+00 -1.057611e+01 3.024213e+00
         vertex 1.029436e+01 -1.076349e+01 2.268743e+00
         vertex 1.400000e+01 -1.089755e+01 1.497833e+00
      endloop
   endfacet
   facet normal -2.747467e-03 -9.873580e-01 1.584823e-01
      outer loop
         vertex 1.029436e+01 -1.076349e+01 2.268743e+00
         vertex 1.080193e+01 -1.092953e+01 1.243108e+00
         vertex 1.400000e+01 -1.089755e+01 1.497833e+00
      endloop
   endfacet
   facet normal 0.000000e+00 -9.245540e-01 3.810512e-01
      outer loop
         vertex 1.400000e+01 -1.008932e+01 4.382412e+00
         vertex 8.050360e-16 -1.008932e+01 4.382412e+00
         vertex 7.078564e+00 -1.024725e+01 3.999228e+00
      endloop
   endfacet
   facet normal -0.000000e+00 -9.245410e-01 -3.810827e-01
      outer loop
         vertex -8.050360e-16 -1.008932e+01 -4.382412e+00
         vertex 1.400000e+01 -1.008932e+01 -4.382412e+00
         vertex 6.971006e+00 -1.024699e+01 -3.999895e+00
      endloop
   endfacet
   facet normal 0.000000e+00 -1.000000e+00 0.000000e+00
      outer loop
         vertex 1.060388e+01 3.000000e+00 -1.735535e+00
         vertex 1.100000e+01 3.000000e+00 -1.469576e-15
         vertex 9.493959e+00 3.000000e+00 -3.127326e+00
      endloop
   endfacet
   facet normal 0.000000e+00 -1.000000e+00 -0.000000e+00
      outer loop
         vertex 1.100000e+01 3.000000e+00 -1.469576e-15
         vertex 1.060388e+01 3.000000e+00 1.735535e+00
         vertex 9.493959e+00 3.000000e+00 -3.127326e+00
      endloop
   endfacet
   facet normal 0.000000e+00 -1.000000e+00 0.000000e+00
      outer loop
         vertex 9.493959e+00 3.000000e+00 -3.127326e+00
         vertex 1.060388e+01 3.000000e+00 1.735535e+00
         vertex 7.890084e+00 3.000000e+00 -3.899712e+00
      endloop
   endfacet
   facet normal 0.000000e+00 -1.000000e+00 -0.000000e+00
      outer loop
         vertex 1.060388e+01 3.000000e+00 1.735535e+00
         vertex 9.493959e+00 3.000000e+00 3.127326e+00
         vertex 7.890084e+00 3.000000e+00 -3.899712e+00
      endloop
   endfacet
   facet normal 0.000000e+00 -1.000000e+00 0.000000e+00
      outer loop
         vertex 7.890084e+00 3.000000e+00 -3.899712e+00
         vertex 9.493959e+00 3.000000e+00 3.127326e+00
         vertex 6.109916e+00 3.000000e+00 -3.899712e+00
      endloop
   endfacet
   facet normal 0.000000e+00 -1.000000e+00 -0.000000e+00
      outer loop
         vertex 9.493959e+00 3.000000e+00 3.127326e+00
         vertex 7.890084e+00 3.000000e+00 3.899712e+00
         vertex 6.109916e+00 3.000000e+00 -3.899712e+00
      endloop
   endfacet
   facet normal 0.000000e+00 -1.000000e+00 0.000000e+00
      outer loop
         vertex 6.109916e+00 3.000000e+00 -3.899712e+00
         vertex 7.890084e+00 3.000000e+00 3.899712e+00
         vertex 4.506041e+00 3.000000e+00 -3.127326e+00
      endloop
   endfacet
   facet normal 0.000000e+00 -1.000000e+00 -0.000000e+00
      outer loop
         vertex 7.890084e+00 3.000000e+00 3.899712e+00
         vertex 6.109916e+00 3.000000e+00 3.899712e+00
         vertex 4.506041e+00 3.000000e+00 -3.127326e+00
      endloop
   endfacet
   facet normal 0.000000e+00 -1.000000e+00 0.000000e+00
      outer loop
         vertex 4.506041e+00 3.000000e+00 -3.127326e+00
         vertex 6.109916e+00 3.000000e+00 3.899712e+00
         vertex 3.396125e+00 3.000000e+00 -1.735535e+00
      endloop
   endfacet
   facet normal 0.000000e+00 -1.000000e+00 -0.000000e+00
      outer loop
         vertex 6.109916e+00 3.000000e+00 3.899712e+00
         vertex 4.506041e+00 3.000000e+00 3.127326e+00
         vertex 3.396125e+00 3.000000e+00 -1.735535e+00
      endloop
   endfacet
   facet normal 0.000000e+00 -1.000000e+00 0.000000e+00
      outer loop
         vertex 3.396125e+00 3.000000e+00 -1.735535e+00
         vertex 4.506041e+00 3.000000e+00 3.127326e+00
         vertex 3.000000e+00 3.000000e+00 -9.797175e-16
      endloop
   endfacet
   facet normal 0.000000e+00 -1.000000e+00 -0.000000e+00
      outer loop
         vertex 4.506041e+00 3.000000e+00 3.127326e+00
         vertex 3.396125e+00 3.000000e+00 1.735535e+00
         vertex 3.000000e+00 3.000000e+00 -9.797175e-16
      endloop
   endfacet
   facet normal 0.000000e+00 2.225210e-01 -9.749279e-01
      outer loop
         vertex 1.400000e+01 -4.898587e-16 -4.000000e+00
         vertex 1.400000e+01 1.735535e+00 -3.603875e+00
         vertex 1.500000e+01 1.735535e+00 -3.603875e+00
      endloop
   endfacet
   facet normal 0.000000e+00 2.225210e-01 -9.749279e-01
      outer loop
         vertex 1.400000e+01 -4.898587e-16 -4.000000e+00
         vertex 1.500000e+01 1.735535e+00 -3.603875e+00
         vertex 1.500000e+01 -4.898587e-16 -4.000000e+00
      endloop
   endfacet
   facet normal 0.000000e+00 6.234897e-01 -7.818315e-01
      outer loop
         vertex 1.400000e+01 1.735535e+00 -3.603875e+00
         vertex 1.400000e+01 3.127326e+00 -2.493959e+00
         vertex 1.500000e+01 3.127326e+00 -2.493959e+00
      endloop
   endfacet
   facet normal 0.000000e+00 6.234897e-01 -7.818315e-01
      outer loop
         vertex 1.400000e+01 1.735535e+00 -3.603875e+00
         vertex 1.500000e+01 3.127326e+00 -2.493959e+00
         vertex 1.500000e+01 1.735535e+00 -3.603875e+00
      endloop
   endfacet
   facet normal 0.000000e+00 9.009689e-01 -4.338837e-01
      outer loop
         vertex 1.400000e+01 3.127326e+00 -2.493959e+00
         vertex 1.400000e+01 3.899712e+00 -8.900837e-01
         vertex 1.500000e+01 3.899712e+00 -8.900837e-01
      endloop
   endfacet
   facet normal 0.000000e+00 9.009689e-01 -4.338837e-01
      outer loop
         vertex 1.400000e+01 3.127326e+00 -2.493959e+00
         vertex 1.500000e+01 3.899712e+00 -8.900837e-01
         vertex 1.500000e+01 3.127326e+00 -2.493959e+00
      endloop
   endfacet
   facet normal -0.000000e+00 1.000000e+00 0.000000e+00
      outer loop
         vertex 1.400000e+01 3.899712e+00 -8.900837e-01
         vertex 1.400000e+01 3.899712e+00 8.900837e-01
         vertex 1.500000e+01 3.899712e+00 8.900837e-01
      endloop
   endfacet
   facet normal 0.000000e+00 1.000000e+00 0.000000e+00
      outer loop
         vertex 1.400000e+01 3.899712e+00 -8.900837e-01
         vertex 1.500000e+01 3.899712e+00 8.900837e-01
         vertex 1.500000e+01 3.899712e+00 -8.900837e-01
      endloop
   endfacet
   facet normal -0.000000e+00 9.009689e-01 4.338837e-01
      outer loop
         vertex 1.400000e+01 3.899712e+00 8.900837e-01
         vertex 1.400000e+01 3.127326e+00 2.493959e+00
         vertex 1.500000e+01 3.127326e+00 2.493959e+00
      endloop
   endfacet
   facet normal 0.000000e+00 9.009689e-01 4.338837e-01
      outer loop
         vertex 1.400000e+01 3.899712e+00 8.900837e-01
         vertex 1.500000e+01 3.127326e+00 2.493959e+00
         vertex 1.500000e+01 3.899712e+00 8.900837e-01
      endloop
   endfacet
   facet normal -0.000000e+00 6.234897e-01 7.818315e-01
      outer loop
         vertex 1.400000e+01 3.127326e+00 2.493959e+00
         vertex 1.400000e+01 1.735535e+00 3.603875e+00
         vertex 1.500000e+01 1.735535e+00 3.603875e+00
      endloop
   endfacet
   facet normal 0.000000e+00 6.234897e-01 7.818315e-01
      outer loop
         vertex 1.400000e+01 3.127326e+00 2.493959e+00
         vertex 1.500000e+01 1.735535e+00 3.603875e+00
         vertex 1.500000e+01 3.127326e+00 2.493959e+00
      endloop
   endfacet
   facet normal -0.000000e+00 2.225210e-01 9.749279e-01
      outer loop
         vertex 1.400000e+01 1.735535e+00 3.603875e+00
         vertex 1.400000e+01 9.797175e-16 4.000000e+00
         vertex 1.500000e+01 9.797175e-16 4.000000e+00
      endloop
   endfacet
   facet normal 0.000000e+00 2.225210e-01 9.749279e-01
      outer loop
         vertex 1.400000e+01 1.735535e+00 3.603875e+00
         vertex 1.500000e+01 9.797175e-16 4.000000e+00
         vertex 1.500000e+01 1.735535e+00 3.603875e+00
      endloop
   endfacet
   facet normal 0.000000e+00 -2.225210e-01 9.749279e-01
      outer loop
         vertex 1.400000e+01 9.797175e-16 4.000000e+00
         vertex 1.400000e+01 -1.735535e+00 3.603875e+00
         vertex 1.500000e+01 -1.735535e+00 3.603875e+00
      endloop
   endfacet
   facet normal 0.000000e+00 -2.225210e-01 9.749279e-01
      outer loop
         vertex 1.400000e+01 9.797175e-16 4.000000e+00
         vertex 1.500000e+01 -1.735535e+00 3.603875e+00
         vertex 1.500000e+01 9.797175e-16 4.000000e+00
      endloop
   endfacet
   facet normal 0.000000e+00 -6.234897e-01 7.818315e-01
      outer loop
         vertex 1.400000e+01 -1.735535e+00 3.603875e+00
         vertex 1.400000e+01 -3.127326e+00 2.493959e+00
         vertex 1.500000e+01 -3.127326e+00 2.493959e+00
      endloop
   endfacet
   facet normal 0.000000e+00 -6.234897e-01 7.818315e-01
      outer loop
         vertex 1.400000e+01 -1.735535e+00 3.603875e+00
         vertex 1.500000e+01 -3.127326e+00 2.493959e+00
         vertex 1.500000e+01 -1.735535e+00 3.603875e+00
      endloop
   endfacet
   facet normal 0.000000e+00 -9.009689e-01 4.338837e-01
      outer loop
         vertex 1.400000e+01 -3.127326e+00 2.493959e+00
         vertex 1.400000e+01 -3.899712e+00 8.900837e-01
         vertex 1.500000e+01 -3.899712e+00 8.900837e-01
      endloop
   endfacet
   facet normal 0.000000e+00 -9.009689e-01 4.338837e-01
      outer loop
         vertex 1.400000e+01 -3.127326e+00 2.493959e+00
         vertex 1.500000e+01 -3.899712e+00 8.900837e-01
         vertex 1.500000e+01 -3.127326e+00 2.493959e+00
      endloop
   endfacet
   facet normal 0.000000e+00 -1.000000e+00 0.000000e+00
      outer loop
         vertex 1.400000e+01 -3.899712e+00 8.900837e-01
         vertex 1.400000e+01 -3.899712e+00 -8.900837e-01
         vertex 1.500000e+01 -3.899712e+00 -8.900837e-01
      endloop
   endfacet
   facet normal 0.000000e+00 -1.000000e+00 0.000000e+00
      outer loop
         vertex 1.400000e+01 -3.899712e+00 8.900837e-01
         vertex 1.500000e+01 -3.899712e+00 -8.900837e-01
         vertex 1.500000e+01 -3.899712e+00 8.900837e-01
      endloop
   endfacet
   facet normal 0.000000e+00 -9.009689e-01 -4.338837e-01
      outer loop
         vertex 1.400000e+01 -3.899712e+00 -8.900837e-01
         vertex 1.400000e+01 -3.127326e+00 -2.493959e+00
         vertex 1.500000e+01 -3.127326e+00 -2.493959e+00
      endloop
   endfacet
   facet normal 0.000000e+00 -9.009689e-01 -4.338837e-01
      outer loop
         vertex 1.400000e+01 -3.899712e+00 -8.900837e-01
         vertex 1.500000e+01 -3.127326e+00 -2.493959e+00
         vertex 1.500000e+01 -3.899712e+00 -8.900837e-01
      endloop
   endfacet
   facet normal 0.000000e+00 -6.234897e-01 -7.818315e-01
      outer loop
         vertex 1.400000e+01 -3.127326e+00 -2.493959e+00
         vertex 1.400000e+01 -1.735535e+00 -3.603875e+00
         vertex 1.500000e+01 -1.735535e+00 -3.603875e+00
      endloop
   endfacet
   facet normal 0.000000e+00 -6.234897e-01 -7.818315e-01
      outer loop
         vertex 1.400000e+01 -3.127326e+00 -2.493959e+00
         vertex 1.500000e+01 -1.735535e+00 -3.603875e+00
         vertex 1.500000e+01 -3.127326e+00 -2.493959e+00
      endloop
   endfacet
   facet normal 0.000000e+00 -2.225210e-01 -9.749279e-01
      outer loop
         vertex 1.400000e+01 -1.735535e+00 -3.603875e+00
         vertex 1.400000e+01 -1.469576e-15 -4.000000e+00
         vertex 1.500000e+01 -1.469576e-15 -4.000000e+00
      endloop
   endfacet
   facet normal 0.000000e+00 -2.225210e-01 -9.749279e-01
      outer loop
         vertex 1.400000e+01 -1.735535e+00 -3.603875e+00
         vertex 1.500000e+01 -1.469576e-15 -4.000000e+00
         vertex 1.500000e+01 -1.735535e+00 -3.603875e+00
      endloop
   endfacet
   facet normal -1.000000e+00 1.627981e-22 1.836971e-16
      outer loop
         vertex 5.451695e-16 1.059209e+01 2.967764e+00
         vertex 1.237302e-31 1.100000e+01 6.735557e-16
         vertex 1.049906e-15 9.398613e+00 5.715424e+00
      endloop
   endfacet
   facet normal -1.000000e+00 5.564170e-23 1.836970e-16
      outer loop
         vertex 1.237302e-31 1.100000e+01 6.735557e-16
         vertex -5.451695e-16 1.059209e+01 -2.967764e+00
         vertex 1.049906e-15 9.398613e+00 5.715424e+00
      endloop
   endfacet
   facet normal -1.000000e+00 -1.237268e-23 1.836970e-16
      outer loop
         vertex 1.049906e-15 9.398613e+00 5.715424e+00
         vertex -5.451695e-16 1.059209e+01 -2.967764e+00
         vertex 1.476776e-15 7.508085e+00 8.039196e+00
      endloop
   endfacet
   facet normal -1.000000e+00 -4.871289e-23 1.836970e-16
      outer loop
         vertex -5.451695e-16 1.059209e+01 -2.967764e+00
         vertex -1.049906e-15 9.398613e+00 -5.715424e+00
         vertex 1.476776e-15 7.508085e+00 8.039196e+00
      endloop
   endfacet
   facet normal -1.000000e+00 -7.403684e-23 1.836970e-16
      outer loop
         vertex 1.476776e-15 7.508085e+00 8.039196e+00
         vertex -1.049906e-15 9.398613e+00 -5.715424e+00
         vertex 1.794121e-15 5.060715e+00 9.766737e+00
      endloop
   endfacet
   facet normal -1.000000e+00 2.728707e-24 1.836970e-16
      outer loop
         vertex -1.049906e-15 9.398613e+00 -5.715424e+00
         vertex -1.476776e-15 7.508085e+00 -8.039196e+00
         vertex 1.794121e-15 5.060715e+00 9.766737e+00
      endloop
   endfacet
   facet normal -1.000000e+00 2.616236e-23 1.836970e-16
      outer loop
         vertex 1.794121e-15 5.060715e+00 9.766737e+00
         vertex -1.476776e-15 7.508085e+00 -8.039196e+00
         vertex 1.978403e-15 2.238016e+00 1.076993e+01
      endloop
   endfacet
   facet normal -1.000000e+00 3.370594e-23 1.836970e-16
      outer loop
         vertex -1.476776e-15 7.508085e+00 -8.039196e+00
         vertex -4.499279e-32 4.000000e+00 -2.449294e-16
         vertex 1.978403e-15 2.238016e+00 1.076993e+01
      endloop
   endfacet
   facet normal -1.000000e+00 1.605339e-23 1.836970e-16
      outer loop
         vertex 1.978403e-15 2.238016e+00 1.076993e+01
         vertex 3.188126e-16 3.603875e+00 1.735535e+00
         vertex 2.015957e-15 -7.506666e-01 1.097436e+01
      endloop
   endfacet
   facet normal -1.000000e+00 2.633809e-23 1.836970e-16
      outer loop
         vertex 3.188126e-16 3.603875e+00 1.735535e+00
         vertex 5.744805e-16 2.493959e+00 3.127326e+00
         vertex 2.015957e-15 -7.506666e-01 1.097436e+01
      endloop
   endfacet
   facet normal -1.000000e+00 -1.741377e-23 1.836970e-16
      outer loop
         vertex 2.015957e-15 -7.506666e-01 1.097436e+01
         vertex 5.744805e-16 2.493959e+00 3.127326e+00
         vertex 1.903996e-15 -3.683676e+00 1.036487e+01
      endloop
   endfacet
   facet normal -1.000000e+00 -1.357618e-23 1.836970e-16
      outer loop
         vertex 5.744805e-16 2.493959e+00 3.127326e+00
         vertex 7.163654e-16 8.900837e-01 3.899712e+00
         vertex 1.903996e-15 -3.683676e+00 1.036487e+01
      endloop
   endfacet
   facet normal -1.000000e+00 -1.112528e-23 1.836970e-16
      outer loop
         vertex 1.903996e-15 -3.683676e+00 1.036487e+01
         vertex 7.163654e-16 8.900837e-01 3.899712e+00
         vertex 1.650824e-15 -6.343483e+00 8.986669e+00
      endloop
   endfacet
   facet normal -1.000000e+00 0.000000e+00 1.836970e-16
      outer loop
         vertex 7.163654e-16 8.900837e-01 3.899712e+00
         vertex 7.163654e-16 -8.900837e-01 3.899712e+00
         vertex 1.650824e-15 -6.343483e+00 8.986669e+00
      endloop
   endfacet
   facet normal -1.000000e+00 2.508618e-23 1.836971e-16
      outer loop
         vertex 1.650824e-15 -6.343483e+00 8.986669e+00
         vertex 7.163654e-16 -8.900837e-01 3.899712e+00
         vertex 1.275219e-15 -8.532825e+00 6.941967e+00
      endloop
   endfacet
   facet normal -1.000000e+00 1.019141e-23 1.836970e-16
      outer loop
         vertex 7.163654e-16 -8.900837e-01 3.899712e+00
         vertex 5.744805e-16 -2.493959e+00 3.127326e+00
         vertex 1.275219e-15 -8.532825e+00 6.941967e+00
      endloop
   endfacet
   facet normal -1.000000e+00 -1.003881e-23 1.836970e-16
      outer loop
         vertex 1.275219e-15 -8.532825e+00 6.941967e+00
         vertex 5.744805e-16 -2.493959e+00 3.127326e+00
         vertex 8.050360e-16 -1.008932e+01 4.382412e+00
      endloop
   endfacet
   facet normal -1.000000e+00 -6.123827e-24 1.836970e-16
      outer loop
         vertex 5.744805e-16 -2.493959e+00 3.127326e+00
         vertex 3.188126e-16 -3.603875e+00 1.735535e+00
         vertex 8.050360e-16 -1.008932e+01 4.382412e+00
      endloop
   endfacet
   facet normal -1.000000e+00 -7.953549e-25 1.836970e-16
      outer loop
         vertex 8.050360e-16 -1.008932e+01 4.382412e+00
         vertex 3.188126e-16 -3.603875e+00 1.735535e+00
         vertex 2.751475e-16 -1.089755e+01 1.497833e+00
      endloop
   endfacet
   facet normal -1.000000e+00 -3.728116e-25 1.836970e-16
      outer loop
         vertex 3.188126e-16 -3.603875e+00 1.735535e+00
         vertex -4.499279e-32 -4.000000e+00 -2.449294e-16
         vertex 2.751475e-16 -1.089755e+01 1.497833e+00
      endloop
   endfacet
   facet normal -1.000000e+00 0.000000e+00 1.836970e-16
      outer loop
         vertex 2.751475e-16 -1.089755e+01 1.497833e+00
         vertex -4.499279e-32 -4.000000e+00 -2.449294e-16
         vertex -2.751475e-16 -1.089755e+01 -1.497833e+00
      endloop
   endfacet
   facet normal -1.000000e+00 3.728116e-25 1.836970e-16
      outer loop
         vertex -4.499279e-32 -4.000000e+00 -2.449294e-16
         vertex -3.188126e-16 -3.603875e+00 -1.735535e+00
         vertex -2.751475e-16 -1.089755e+01 -1.497833e+00
      endloop
   endfacet
   facet normal -1.000000e+00 7.953549e-25 1.836970e-16
      outer loop
         vertex -2.751475e-16 -1.089755e+01 -1.497833e+00
         vertex -3.188126e-16 -3.603875e+00 -1.735535e+00
         vertex -8.050360e-16 -1.008932e+01 -4.382412e+00
      endloop
   endfacet
   facet normal -1.000000e+00 6.123827e-24 1.836970e-16
      outer loop
         vertex -3.188126e-16 -3.603875e+00 -1.735535e+00
         vertex -5.744805e-16 -2.493959e+00 -3.127326e+00
         vertex -8.050360e-16 -1.008932e+01 -4.382412e+00
      endloop
   endfacet
   facet normal -1.000000e+00 1.003881e-23 1.836970e-16
      outer loop
         vertex -8.050360e-16 -1.008932e+01 -4.382412e+00
         vertex -5.744805e-16 -2.493959e+00 -3.127326e+00
         vertex -1.275219e-15 -8.532825e+00 -6.941967e+00
      endloop
   endfacet
   facet normal -1.000000e+00 -1.019141e-23 1.836970e-16
      outer loop
         vertex -5.744805e-16 -2.493959e+00 -3.127326e+00
         vertex -7.163654e-16 -8.900837e-01 -3.899712e+00
         vertex -1.275219e-15 -8.532825e+00 -6.941967e+00
      endloop
   endfacet
   facet normal -1.000000e+00 -2.508618e-23 1.836971e-16
      outer loop
         vertex -1.275219e-15 -8.532825e+00 -6.941967e+00
         vertex -7.163654e-16 -8.900837e-01 -3.899712e+00
         vertex -1.650824e-15 -6.343483e+00 -8.986669e+00
      endloop
   endfacet
   facet normal -1.000000e+00 0.000000e+00 1.836970e-16
      outer loop
         vertex -7.163654e-16 -8.900837e-01 -3.899712e+00
         vertex -7.163654e-16 8.900837e-01 -3.899712e+00
         vertex -1.650824e-15 -6.343483e+00 -8.986669e+00
      endloop
   endfacet
   facet normal -1.000000e+00 1.112528e-23 1.836970e-16
      outer loop
         vertex -1.650824e-15 -6.343483e+00 -8.986669e+00
         vertex -7.163654e-16 8.900837e-01 -3.899712e+00
         vertex -1.903996e-15 -3.683676e+00 -1.036487e+01
      endloop
   endfacet
   facet normal -1.000000e+00 1.357618e-23 1.836970e-16
      outer loop
         vertex -7.163654e-16 8.900837e-01 -3.899712e+00
         vertex -5.744805e-16 2.493959e+00 -3.127326e+00
         vertex -1.903996e-15 -3.683676e+00 -1.036487e+01
      endloop
   endfacet
   facet normal -1.000000e+00 1.741377e-23 1.836970e-16
      outer loop
         vertex -1.903996e-15 -3.683676e+00 -1.036487e+01
         vertex -5.744805e-16 2.493959e+00 -3.127326e+00
         vertex -2.015957e-15 -7.506666e-01 -1.097436e+01
      endloop
   endfacet
   facet normal -1.000000e+00 -2.633809e-23 1.836970e-16
      outer loop
         vertex -5.744805e-16 2.493959e+00 -3.127326e+00
         vertex -3.188126e-16 3.603875e+00 -1.735535e+00
         vertex -2.015957e-15 -7.506666e-01 -1.097436e+01
      endloop
   endfacet
   facet normal -1.000000e+00 -1.605339e-23 1.836970e-16
      outer loop
         vertex -2.015957e-15 -7.506666e-01 -1.097436e+01
         vertex -3.188126e-16 3.603875e+00 -1.735535e+00
         vertex -1.978403e-15 2.238016e+00 -1.076993e+01
      endloop
   endfacet
   facet normal -1.000000e+00 -1.147213e-22 1.836970e-16
      outer loop
         vertex -3.188126e-16 3.603875e+00 -1.735535e+00
         vertex -4.499279e-32 4.000000e+00 -2.449294e-16
         vertex -1.978403e-15 2.238016e+00 -1.076993e+01
      endloop
   endfacet
   facet normal -1.000000e+00 -2.649422e-23 1.836970e-16
      outer loop
         vertex -1.978403e-15 2.238016e+00 -1.076993e+01
         vertex -4.499279e-32 4.000000e+00 -2.449294e-16
         vertex -1.794121e-15 5.060715e+00 -9.766737e+00
      endloop
   endfacet
   facet normal -1.000000e+00 5.005343e-23 1.836970e-16
      outer loop
         vertex -4.499279e-32 4.000000e+00 -2.449294e-16
         vertex -1.476776e-15 7.508085e+00 -8.039196e+00
         vertex -1.794121e-15 5.060715e+00 -9.766737e+00
      endloop
   endfacet
   facet normal -1.000000e+00 1.147213e-22 1.836970e-16
      outer loop
         vertex 3.188126e-16 3.603875e+00 1.735535e+00
         vertex 1.978403e-15 2.238016e+00 1.076993e+01
         vertex -4.499279e-32 4.000000e+00 -2.449294e-16
      endloop
   endfacet
   facet normal 1.000000e+00 0.000000e+00 0.000000e+00
      outer loop
         vertex 1.400000e+01 1.059209e+01 -2.967764e+00
         vertex 1.400000e+01 1.100000e+01 -1.898203e-15
         vertex 1.400000e+01 9.398613e+00 -5.715424e+00
      endloop
   endfacet
   facet normal 1.000000e+00 0.000000e+00 0.000000e+00
      outer loop
         vertex 1.400000e+01 1.100000e+01 -1.898203e-15
         vertex 1.400000e+01 1.059209e+01 2.967764e+00
         vertex 1.400000e+01 9.398613e+00 -5.715424e+00
      endloop
   endfacet
   facet normal 1.000000e+00 0.000000e+00 0.000000e+00
      outer loop
         vertex 1.400000e+01 9.398613e+00 -5.715424e+00
         vertex 1.400000e+01 1.059209e+01 2.967764e+00
         vertex 1.400000e+01 7.508085e+00 -8.039196e+00
      endloop
   endfacet
   facet normal 1.000000e+00 0.000000e+00 0.000000e+00
      outer loop
         vertex 1.400000e+01 1.059209e+01 2.967764e+00
         vertex 1.400000e+01 9.398613e+00 5.715424e+00
         vertex 1.400000e+01 7.508085e+00 -8.039196e+00
      endloop
   endfacet
   facet normal 1.000000e+00 0.000000e+00 0.000000e+00
      outer loop
         vertex 1.400000e+01 7.508085e+00 -8.039196e+00
         vertex 1.400000e+01 9.398613e+00 5.715424e+00
         vertex 1.400000e+01 5.060715e+00 -9.766737e+00
      endloop
   endfacet
   facet normal 1.000000e+00 0.000000e+00 0.000000e+00
      outer loop
         vertex 1.400000e+01 9.398613e+00 5.715424e+00
         vertex 1.400000e+01 7.508085e+00 8.039196e+00
         vertex 1.400000e+01 5.060715e+00 -9.766737e+00
      endloop
   endfacet
   facet normal 1.000000e+00 0.000000e+00 0.000000e+00
      outer loop
         vertex 1.400000e+01 5.060715e+00 -9.766737e+00
         vertex 1.400000e+01 7.508085e+00 8.039196e+00
         vertex 1.400000e+01 2.238016e+00 -1.076993e+01
      endloop
   endfacet
   facet normal 1.000000e+00 -0.000000e+00 0.000000e+00
      outer loop
         vertex 1.400000e+01 7.508085e+00 8.039196e+00
         vertex 1.400000e+01 3.899712e+00 -8.900837e-01
         vertex 1.400000e+01 2.238016e+00 -1.076993e+01
      endloop
   endfacet
   facet normal 1.000000e+00 0.000000e+00 0.000000e+00
      outer loop
         vertex 1.400000e+01 2.238016e+00 -1.076993e+01
         vertex 1.400000e+01 3.899712e+00 -8.900837e-01
         vertex 1.400000e+01 -7.506666e-01 -1.097436e+01
      endloop
   endfacet
   facet normal 1.000000e+00 -0.000000e+00 0.000000e+00
      outer loop
         vertex 1.400000e+01 3.899712e+00 -8.900837e-01
         vertex 1.400000e+01 3.127326e+00 -2.493959e+00
         vertex 1.400000e+01 -7.506666e-01 -1.097436e+01
      endloop
   endfacet
   facet normal 1.000000e+00 0.000000e+00 0.000000e+00
      outer loop
         vertex 1.400000e+01 -7.506666e-01 -1.097436e+01
         vertex 1.400000e+01 3.127326e+00 -2.493959e+00
         vertex 1.400000e+01 -3.683676e+00 -1.036487e+01
      endloop
   endfacet
   facet normal 1.000000e+00 -0.000000e+00 0.000000e+00
      outer loop
         vertex 1.400000e+01 3.127326e+00 -2.493959e+00
         vertex 1.400000e+01 1.735535e+00 -3.603875e+00
         vertex 1.400000e+01 -3.683676e+00 -1.036487e+01
      endloop
   endfacet
   facet normal 1.000000e+00 0.000000e+00 0.000000e+00
      outer loop
         vertex 1.400000e+01 -3.683676e+00 -1.036487e+01
         vertex 1.400000e+01 1.735535e+00 -3.603875e+00
         vertex 1.400000e+01 -6.343483e+00 -8.986669e+00
      endloop
   endfacet
   facet normal 1.000000e+00 -0.000000e+00 0.000000e+00
      outer loop
         vertex 1.400000e+01 1.735535e+00 -3.603875e+00
         vertex 1.400000e+01 -4.898587e-16 -4.000000e+00
         vertex 1.400000e+01 -6.343483e+00 -8.986669e+00
      endloop
   endfacet
   facet normal 1.000000e+00 0.000000e+00 0.000000e+00
      outer loop
         vertex 1.400000e+01 -6.343483e+00 -8.986669e+00
         vertex 1.400000e+01 -4.898587e-16 -4.000000e+00
         vertex 1.400000e+01 -8.532825e+00 -6.941967e+00
      endloop
   endfacet
   facet normal 1.000000e+00 0.000000e+00 0.000000e+00
      outer loop
         vertex 1.400000e+01 -4.898587e-16 -4.000000e+00
         vertex 1.400000e+01 -1.735535e+00 -3.603875e+00
         vertex 1.400000e+01 -8.532825e+00 -6.941967e+00
      endloop
   endfacet
   facet normal 1.000000e+00 0.000000e+00 0.000000e+00
      outer loop
         vertex 1.400000e+01 -8.532825e+00 -6.941967e+00
         vertex 1.400000e+01 -1.735535e+00 -3.603875e+00
         vertex 1.400000e+01 -1.008932e+01 -4.382412e+00
      endloop
   endfacet
   facet normal 1.000000e+00 0.000000e+00 0.000000e+00
      outer loop
         vertex 1.400000e+01 -1.735535e+00 -3.603875e+00
         vertex 1.400000e+01 -3.127326e+00 -2.493959e+00
         vertex 1.400000e+01 -1.008932e+01 -4.382412e+00
      endloop
   endfacet
   facet normal 1.000000e+00 0.000000e+00 0.000000e+00
      outer loop
         vertex 1.400000e+01 -1.008932e+01 -4.382412e+00
         vertex 1.400000e+01 -3.127326e+00 -2.493959e+00
         vertex 1.400000e+01 -1.089755e+01 -1.497833e+00
      endloop
   endfacet
   facet normal 1.000000e+00 0.000000e+00 0.000000e+00
      outer loop
         vertex 1.400000e+01 -3.127326e+00 -2.493959e+00
         vertex 1.400000e+01 -3.899712e+00 -8.900837e-01
         vertex 1.400000e+01 -1.089755e+01 -1.497833e+00
      endloop
   endfacet
   facet normal 1.000000e+00 0.000000e+00 0.000000e+00
      outer loop
         vertex 1.400000e+01 -1.089755e+01 -1.497833e+00
         vertex 1.400000e+01 -3.899712e+00 -8.900837e-01
         vertex 1.400000e+01 -1.089755e+01 1.497833e+00
      endloop
   endfacet
   facet normal 1.000000e+00 0.000000e+00 0.000000e+00
      outer loop
         vertex 1.400000e+01 -3.899712e+00 -8.900837e-01
         vertex 1.400000e+01 -3.899712e+00 8.900837e-01
         vertex 1.400000e+01 -1.089755e+01 1.497833e+00
      endloop
   endfacet
   facet normal 1.000000e+00 0.000000e+00 0.000000e+00
      outer loop
         vertex 1.400000e+01 -1.089755e+01 1.497833e+00
         vertex 1.400000e+01 -3.899712e+00 8.900837e-01
         vertex 1.400000e+01 -1.008932e+01 4.382412e+00
      endloop
   endfacet
   facet normal 1.000000e+00 0.000000e+00 0.000000e+00
      outer loop
         vertex 1.400000e+01 -3.899712e+00 8.900837e-01
         vertex 1.400000e+01 -3.127326e+00 2.493959e+00
         vertex 1.400000e+01 -1.008932e+01 4.382412e+00
      endloop
   endfacet
   facet normal 1.000000e+00 0.000000e+00 0.000000e+00
      outer loop
         vertex 1.400000e+01 -1.008932e+01 4.382412e+00
         vertex 1.400000e+01 -3.127326e+00 2.493959e+00
         vertex 1.400000e+01 -8.532825e+00 6.941967e+00
      endloop
   endfacet
   facet normal 1.000000e+00 0.000000e+00 0.000000e+00
      outer loop
         vertex 1.400000e+01 -3.127326e+00 2.493959e+00
         vertex 1.400000e+01 -1.735535e+00 3.603875e+00
         vertex 1.400000e+01 -8.532825e+00 6.941967e+00
      endloop
   endfacet
   facet normal 1.000000e+00 0.000000e+00 0.000000e+00
      outer loop
         vertex 1.400000e+01 -8.532825e+00 6.941967e+00
         vertex 1.400000e+01 -1.735535e+00 3.603875e+00
         vertex 1.400000e+01 -6.343483e+00 8.986669e+00
      endloop
   endfacet
   facet normal 1.000000e+00 0.000000e+00 0.000000e+00
      outer loop
         vertex 1.400000e+01 -1.735535e+00 3.603875e+00
         vertex 1.400000e+01 9.797175e-16 4.000000e+00
         vertex 1.400000e+01 -6.343483e+00 8.986669e+00
      endloop
   endfacet
   facet normal 1.000000e+00 0.000000e+00 0.000000e+00
      outer loop
         vertex 1.400000e+01 -6.343483e+00 8.986669e+00
         vertex 1.400000e+01 9.797175e-16 4.000000e+00
         vertex 1.400000e+01 -3.683676e+00 1.036487e+01
      endloop
   endfacet
   facet normal 1.000000e+00 0.000000e+00 0.000000e+00
      outer loop
         vertex 1.400000e+01 9.797175e-16 4.000000e+00
         vertex 1.400000e+01 1.735535e+00 3.603875e+00
         vertex 1.400000e+01 -3.683676e+00 1.036487e+01
      endloop
   endfacet
   facet normal 1.000000e+00 0.000000e+00 0.000000e+00
      outer loop
         vertex 1.400000e+01 -3.683676e+00 1.036487e+01
         vertex 1.400000e+01 1.735535e+00 3.603875e+00
         vertex 1.400000e+01 -7.506666e-01 1.097436e+01
      endloop
   endfacet
   facet normal 1.000000e+00 0.000000e+00 0.000000e+00
      outer loop
         vertex 1.400000e+01 1.735535e+00 3.603875e+00
         vertex 1.400000e+01 3.127326e+00 2.493959e+00
         vertex 1.400000e+01 -7.506666e-01 1.097436e+01
      endloop
   endfacet
   facet normal 1.000000e+00 0.000000e+00 0.000000e+00
      outer loop
         vertex 1.400000e+01 -7.506666e-01 1.097436e+01
         vertex 1.400000e+01 3.127326e+00 2.493959e+00
         vertex 1.400000e+01 2.238016e+00 1.076993e+01
      endloop
   endfacet
   facet normal 1.000000e+00 0.000000e+00 0.000000e+00
      outer loop
         vertex 1.400000e+01 3.127326e+00 2.493959e+00
         vertex 1.400000e+01 3.899712e+00 8.900837e-01
         vertex 1.400000e+01 2.238016e+00 1.076993e+01
      endloop
   endfacet
   facet normal 1.000000e+00 0.000000e+00 -0.000000e+00
      outer loop
         vertex 1.400000e+01 2.238016e+00 1.076993e+01
         vertex 1.400000e+01 3.899712e+00 8.900837e-01
         vertex 1.400000e+01 5.060715e+00 9.766737e+00
      endloop
   endfacet
   facet normal 1.000000e+00 0.000000e+00 0.000000e+00
      outer loop
         vertex 1.400000e+01 3.899712e+00 8.900837e-01
         vertex 1.400000e+01 3.899712e+00 -8.900837e-01
         vertex 1.400000e+01 5.060715e+00 9.766737e+00
      endloop
   endfacet
   facet normal 1.000000e+00 0.000000e+00 0.000000e+00
      outer loop
         vertex 1.400000e+01 5.060715e+00 9.766737e+00
         vertex 1.400000e+01 3.899712e+00 -8.900837e-01
         vertex 1.400000e+01 7.508085e+00 8.039196e+00
      endloop
   endfacet
   facet normal 0.000000e+00 9.749279e-01 -2.225210e-01
      outer loop
         vertex -4.499279e-32 4.000000e+00 -2.449294e-16
         vertex -3.188126e-16 3.603875e+00 -1.735535e+00
         vertex -1.000000e+00 3.603875e+00 -1.735535e+00
      endloop
   endfacet
   facet normal -6.236621e-17 9.749279e-01 -2.225210e-01
      outer loop
         vertex -4.499279e-32 4.000000e+00 -2.449294e-16
         vertex -1.000000e+00 3.603875e+00 -1.735535e+00
         vertex -1.000000e+00 4.000000e+00 -6.123234e-17
      endloop
   endfacet
   facet normal 0.000000e+00 7.818315e-01 -6.234897e-01
      outer loop
         vertex -3.188126e-16 3.603875e+00 -1.735535e+00
         vertex -5.744805e-16 2.493959e+00 -3.127326e+00
         vertex -1.000000e+00 2.493959e+00 -3.127326e+00
      endloop
   endfacet
   facet normal 0.000000e+00 7.818315e-01 -6.234897e-01
      outer loop
         vertex -3.188126e-16 3.603875e+00 -1.735535e+00
         vertex -1.000000e+00 2.493959e+00 -3.127326e+00
         vertex -1.000000e+00 3.603875e+00 -1.735535e+00
      endloop
   endfacet
   facet normal 0.000000e+00 4.338837e-01 -9.009689e-01
      outer loop
         vertex -5.744805e-16 2.493959e+00 -3.127326e+00
         vertex -7.163654e-16 8.900837e-01 -3.899712e+00
         vertex -1.000000e+00 8.900837e-01 -3.899712e+00
      endloop
   endfacet
   facet normal 0.000000e+00 4.338837e-01 -9.009689e-01
      outer loop
         vertex -5.744805e-16 2.493959e+00 -3.127326e+00
         vertex -1.000000e+00 8.900837e-01 -3.899712e+00
         vertex -1.000000e+00 2.493959e+00 -3.127326e+00
      endloop
   endfacet
   facet normal 0.000000e+00 0.000000e+00 -1.000000e+00
      outer loop
         vertex -7.163654e-16 8.900837e-01 -3.899712e+00
         vertex -7.163654e-16 -8.900837e-01 -3.899712e+00
         vertex -1.000000e+00 -8.900837e-01 -3.899712e+00
      endloop
   endfacet
   facet normal 0.000000e+00 0.000000e+00 -1.000000e+00
      outer loop
         vertex -7.163654e-16 8.900837e-01 -3.899712e+00
         vertex -1.000000e+00 -8.900837e-01 -3.899712e+00
         vertex -1.000000e+00 8.900837e-01 -3.899712e+00
      endloop
   endfacet
   facet normal -0.000000e+00 -4.338837e-01 -9.009689e-01
      outer loop
         vertex -7.163654e-16 -8.900837e-01 -3.899712e+00
         vertex -5.744805e-16 -2.493959e+00 -3.127326e+00
         vertex -1.000000e+00 -2.493959e+00 -3.127326e+00
      endloop
   endfacet
   facet normal 0.000000e+00 -4.338837e-01 -9.009689e-01
      outer loop
         vertex -7.163654e-16 -8.900837e-01 -3.899712e+00
         vertex -1.000000e+00 -2.493959e+00 -3.127326e+00
         vertex -1.000000e+00 -8.900837e-01 -3.899712e+00
      endloop
   endfacet
   facet normal -0.000000e+00 -7.818315e-01 -6.234897e-01
      outer loop
         vertex -5.744805e-16 -2.493959e+00 -3.127326e+00
         vertex -3.188126e-16 -3.603875e+00 -1.735535e+00
         vertex -1.000000e+00 -3.603875e+00 -1.735535e+00
      endloop
   endfacet
   facet normal 0.000000e+00 -7.818315e-01 -6.234897e-01
      outer loop
         vertex -5.744805e-16 -2.493959e+00 -3.127326e+00
         vertex -1.000000e+00 -3.603875e+00 -1.735535e+00
         vertex -1.000000e+00 -2.493959e+00 -3.127326e+00
      endloop
   endfacet
   facet normal -4.087644e-17 -9.749279e-01 -2.225210e-01
      outer loop
         vertex -3.188126e-16 -3.603875e+00 -1.735535e+00
         vertex -4.499279e-32 -4.000000e+00 -2.449294e-16
         vertex -1.000000e+00 -4.000000e+00 -6.123234e-17
      endloop
   endfacet
   facet normal 0.000000e+00 -9.749279e-01 -2.225210e-01
      outer loop
         vertex -3.188126e-16 -3.603875e+00 -1.735535e+00
         vertex -1.000000e+00 -4.000000e+00 -6.123234e-17
         vertex -1.000000e+00 -3.603875e+00 -1.735535e+00
      endloop
   endfacet
   facet normal 0.000000e+00 -9.749279e-01 2.225210e-01
      outer loop
         vertex -4.499279e-32 -4.000000e+00 -2.449294e-16
         vertex 3.188126e-16 -3.603875e+00 1.735535e+00
         vertex -1.000000e+00 -3.603875e+00 1.735535e+00
      endloop
   endfacet
   facet normal 6.236621e-17 -9.749279e-01 2.225210e-01
      outer loop
         vertex -4.499279e-32 -4.000000e+00 -2.449294e-16
         vertex -1.000000e+00 -3.603875e+00 1.735535e+00
         vertex -1.000000e+00 -4.000000e+00 -6.123234e-17
      endloop
   endfacet
   facet normal 0.000000e+00 -7.818315e-01 6.234897e-01
      outer loop
         vertex 3.188126e-16 -3.603875e+00 1.735535e+00
         vertex 5.744805e-16 -2.493959e+00 3.127326e+00
         vertex -1.000000e+00 -2.493959e+00 3.127326e+00
      endloop
   endfacet
   facet normal 0.000000e+00 -7.818315e-01 6.234897e-01
      outer loop
         vertex 3.188126e-16 -3.603875e+00 1.735535e+00
         vertex -1.000000e+00 -2.493959e+00 3.127326e+00
         vertex -1.000000e+00 -3.603875e+00 1.735535e+00
      endloop
   endfacet
   facet normal 0.000000e+00 -4.338837e-01 9.009689e-01
      outer loop
         vertex 5.744805e-16 -2.493959e+00 3.127326e+00
         vertex 7.163654e-16 -8.900837e-01 3.899712e+00
         vertex -1.000000e+00 -8.900837e-01 3.899712e+00
      endloop
   endfacet
   facet normal 0.000000e+00 -4.338837e-01 9.009689e-01
      outer loop
         vertex 5.744805e-16 -2.493959e+00 3.127326e+00
         vertex -1.000000e+00 -8.900837e-01 3.899712e+00
         vertex -1.000000e+00 -2.493959e+00 3.127326e+00
      endloop
   endfacet
   facet normal 0.000000e+00 0.000000e+00 1.000000e+00
      outer loop
         vertex 7.163654e-16 -8.900837e-01 3.899712e+00
         vertex 7.163654e-16 8.900837e-01 3.899712e+00
         vertex -1.000000e+00 8.900837e-01 3.899712e+00
      endloop
   endfacet
   facet normal 0.000000e+00 0.000000e+00 1.000000e+00
      outer loop
         vertex 7.163654e-16 -8.900837e-01 3.899712e+00
         vertex -1.000000e+00 8.900837e-01 3.899712e+00
         vertex -1.000000e+00 -8.900837e-01 3.899712e+00
      endloop
   endfacet
   facet normal 0.000000e+00 4.338837e-01 9.009689e-01
      outer loop
         vertex 7.163654e-16 8.900837e-01 3.899712e+00
         vertex 5.744805e-16 2.493959e+00 3.127326e+00
         vertex -1.000000e+00 2.493959e+00 3.127326e+00
      endloop
   endfacet
   facet normal 0.000000e+00 4.338837e-01 9.009689e-01
      outer loop
         vertex 7.163654e-16 8.900837e-01 3.899712e+00
         vertex -1.000000e+00 2.493959e+00 3.127326e+00
         vertex -1.000000e+00 8.900837e-01 3.899712e+00
      endloop
   endfacet
   facet normal 0.000000e+00 7.818315e-01 6.234897e-01
      outer loop
         vertex 5.744805e-16 2.493959e+00 3.127326e+00
         vertex 3.188126e-16 3.603875e+00 1.735535e+00
         vertex -1.000000e+00 3.603875e+00 1.735535e+00
      endloop
   endfacet
   facet normal 0.000000e+00 7.818315e-01 6.234897e-01
      outer loop
         vertex 5.744805e-16 2.493959e+00 3.127326e+00
         vertex -1.000000e+00 3.603875e+00 1.735535e+00
         vertex -1.000000e+00 2.493959e+00 3.127326e+00
      endloop
   endfacet
   facet normal 4.087643e-17 9.749279e-01 2.225210e-01
      outer loop
         vertex 3.188126e-16 3.603875e+00 1.735535e+00
         vertex 1.349784e-31 4.000000e+00 7.347881e-16
         vertex -1.000000e+00 4.000000e+00 9.184850e-16
      endloop
   endfacet
   facet normal 0.000000e+00 9.749279e-01 2.225210e-01
      outer loop
         vertex 3.188126e-16 3.603875e+00 1.735535e+00
         vertex -1.000000e+00 4.000000e+00 9.184850e-16
         vertex -1.000000e+00 3.603875e+00 1.735535e+00
      endloop
   endfacet
   facet normal -1.000000e+00 0.000000e+00 0.000000e+00
      outer loop
         vertex -1.000000e+00 3.603875e+00 1.735535e+00
         vertex -1.000000e+00 4.000000e+00 -6.123234e-17
         vertex -1.000000e+00 2.493959e+00 3.127326e+00
      endloop
   endfacet
   facet normal -1.000000e+00 0.000000e+00 0.000000e+00
      outer loop
         vertex -1.000000e+00 4.000000e+00 -6.123234e-17
         vertex -1.000000e+00 3.603875e+00 -1.735535e+00
         vertex -1.000000e+00 2.493959e+00 3.127326e+00
      endloop
   endfacet
   facet normal -1.000000e+00 0.000000e+00 0.000000e+00
      outer loop
         vertex -1.000000e+00 2.493959e+00 3.127326e+00
         vertex -1.000000e+00 3.603875e+00 -1.735535e+00
         vertex -1.000000e+00 8.900837e-01 3.899712e+00
      endloop
   endfacet
   facet normal -1.000000e+00 0.000000e+00 0.000000e+00
      outer loop
         vertex -1.000000e+00 3.603875e+00 -1.735535e+00
         vertex -1.000000e+00 2.493959e+00 -3.127326e+00
         vertex -1.000000e+00 8.900837e-01 3.899712e+00
      endloop
   endfacet
   facet normal -1.000000e+00 0.000000e+00 0.000000e+00
      outer loop
         vertex -1.000000e+00 8.900837e-01 3.899712e+00
         vertex -1.000000e+00 2.493959e+00 -3.127326e+00
         vertex -1.000000e+00 -8.900837e-01 3.899712e+00
      endloop
   endfacet
   facet normal -1.000000e+00 0.000000e+00 0.000000e+00
      outer loop
         vertex -1.000000e+00 2.493959e+00 -3.127326e+00
         vertex -1.000000e+00 8.900837e-01 -3.899712e+00
         vertex -1.000000e+00 -8.900837e-01 3.899712e+00
      endloop
   endfacet
   facet normal -1.000000e+00 0.000000e+00 0.000000e+00
      outer loop
         vertex -1.000000e+00 -8.900837e-01 3.899712e+00
         vertex -1.000000e+00 8.900837e-01 -3.899712e+00
         vertex -1.000000e+00 -2.493959e+00 3.127326e+00
      endloop
   endfacet
   facet normal -1.000000e+00 0.000000e+00 0.000000e+00
      outer loop
         vertex -1.000000e+00 8.900837e-01 -3.899712e+00
         vertex -1.000000e+00 -8.900837e-01 -3.899712e+00
         vertex -1.000000e+00 -2.493959e+00 3.127326e+00
      endloop
   endfacet
   facet normal -1.000000e+00 0.000000e+00 0.000000e+00
      outer loop
         vertex -1.000000e+00 -2.493959e+00 3.127326e+00
         vertex -1.000000e+00 -8.900837e-01 -3.899712e+00
         vertex -1.000000e+00 -3.603875e+00 1.735535e+00
      endloop
   endfacet
   facet normal -1.000000e+00 0.000000e+00 0.000000e+00
      outer loop
         vertex -1.000000e+00 -8.900837e-01 -3.899712e+00
         vertex -1.000000e+00 -2.493959e+00 -3.127326e+00
         vertex -1.000000e+00 -3.603875e+00 1.735535e+00
      endloop
   endfacet
   facet normal -1.000000e+00 0.000000e+00 0.000000e+00
      outer loop
         vertex -1.000000e+00 -3.603875e+00 1.735535e+00
         vertex -1.000000e+00 -2.493959e+00 -3.127326e+00
         vertex -1.000000e+00 -4.000000e+00 -6.123234e-17
      endloop
   endfacet
   facet normal -1.000000e+00 0.000000e+00 0.000000e+00
      outer loop
         vertex -1.000000e+00 -2.493959e+00 -3.127326e+00
         vertex -1.000000e+00 -3.603875e+00 -1.735535e+00
         vertex -1.000000e+00 -4.000000e+00 -6.123234e-17
      endloop
   endfacet
endsolid
